solid buckle
facet normal 0.0 0.0 -1.0
  outer loop
    vertex 0.0 2.9999999999999996 0.0
    vertex 2.25 0.0 0.0
    vertex 0.0 -5.0 0.0
  endloop
endfacet
facet normal 0.0 0.0 -1.0
  outer loop
    vertex 2.25 0.0 0.0
    vertex 0.0 2.9999999999999996 0.0
    vertex 4.5 2.9999999999999996 0.0
  endloop
endfacet
facet normal 0.0 0.0 -1.0
  outer loop
    vertex 18.179999999999996 2.9999999999999996 0.0
    vertex 15.929999999999998 0.0 0.0
    vertex 13.68 2.9999999999999996 0.0
  endloop
endfacet
facet normal 0.0 0.0 -1.0
  outer loop
    vertex 2.25 0.0 0.0
    vertex 18.179999999999996 -5.0 0.0
    vertex 0.0 -5.0 0.0
  endloop
endfacet
facet normal 0.0 0.0 -1.0
  outer loop
    vertex 18.179999999999996 -5.0 0.0
    vertex 2.25 0.0 0.0
    vertex 4.5 0.0 0.0
  endloop
endfacet
facet normal 0.0 0.0 -1.0
  outer loop
    vertex 18.179999999999996 -5.0 0.0
    vertex 4.5 0.0 0.0
    vertex 15.929999999999998 0.0 0.0
  endloop
endfacet
facet normal 0.0 0.0 -1.0
  outer loop
    vertex 18.179999999999996 -5.0 0.0
    vertex 15.929999999999998 0.0 0.0
    vertex 18.179999999999996 2.9999999999999996 0.0
  endloop
endfacet
facet normal 0.8 -0.6 0.0
  outer loop
    vertex 4.5 2.9999999999999996 0.0
    vertex 2.25 0.0 25.0
    vertex 2.25 0.0 0.0
  endloop
endfacet
facet normal 0.8 -0.6 0.0
  outer loop
    vertex 2.25 0.0 25.0
    vertex 4.5 2.9999999999999996 0.0
    vertex 4.5 2.9999999999999996 25.0
  endloop
endfacet
facet normal 0.0 0.0 1.0
  outer loop
    vertex 4.5 2.9999999999999996 25.0
    vertex 0.0 2.9999999999999996 25.0
    vertex 2.25 0.0 25.0
  endloop
endfacet
facet normal 0.0 0.0 1.0
  outer loop
    vertex 0.0 -5.0 25.0
    vertex 2.25 0.0 25.0
    vertex 0.0 2.9999999999999996 25.0
  endloop
endfacet
facet normal 0.0 0.0 1.0
  outer loop
    vertex 2.25 0.0 25.0
    vertex 0.0 -5.0 25.0
    vertex 18.179999999999996 -5.0 25.0
  endloop
endfacet
facet normal 0.0 0.0 1.0
  outer loop
    vertex 2.25 0.0 25.0
    vertex 18.179999999999996 -5.0 25.0
    vertex 4.5 0.0 25.0
  endloop
endfacet
facet normal 0.0 0.0 1.0
  outer loop
    vertex 4.5 0.0 25.0
    vertex 18.179999999999996 -5.0 25.0
    vertex 15.929999999999998 0.0 25.0
  endloop
endfacet
facet normal 0.0 0.0 1.0
  outer loop
    vertex 15.929999999999998 0.0 25.0
    vertex 18.179999999999996 2.9999999999999996 25.0
    vertex 13.68 2.9999999999999996 25.0
  endloop
endfacet
facet normal 0.0 0.0 1.0
  outer loop
    vertex 18.179999999999996 2.9999999999999996 25.0
    vertex 15.929999999999998 0.0 25.0
    vertex 18.179999999999996 -5.0 25.0
  endloop
endfacet
facet normal 0.0 1.0 0.0
  outer loop
    vertex 13.68 2.9999999999999996 25.0
    vertex 18.179999999999996 2.9999999999999996 0.0
    vertex 13.68 2.9999999999999996 0.0
  endloop
endfacet
facet normal 0.0 1.0 0.0
  outer loop
    vertex 18.179999999999996 2.9999999999999996 0.0
    vertex 13.68 2.9999999999999996 25.0
    vertex 18.179999999999996 2.9999999999999996 25.0
  endloop
endfacet
facet normal 0.0 1.0 0.0
  outer loop
    vertex 4.5 0.0 25.0
    vertex 15.929999999999998 0.0 0.0
    vertex 4.5 0.0 0.0
  endloop
endfacet
facet normal 0.0 1.0 0.0
  outer loop
    vertex 15.929999999999998 0.0 0.0
    vertex 4.5 0.0 25.0
    vertex 15.929999999999998 0.0 25.0
  endloop
endfacet
facet normal -0.8000000000000002 -0.5999999999999998 -0.0
  outer loop
    vertex 13.68 2.9999999999999996 25.0
    vertex 15.929999999999998 0.0 0.0
    vertex 15.929999999999998 0.0 25.0
  endloop
endfacet
facet normal -0.8000000000000002 -0.5999999999999998 -0.0
  outer loop
    vertex 15.929999999999998 0.0 0.0
    vertex 13.68 2.9999999999999996 25.0
    vertex 13.68 2.9999999999999996 0.0
  endloop
endfacet
facet normal -1.0 0.0 0.0
  outer loop
    vertex 0.0 2.9999999999999996 25.0
    vertex 0.0 -5.0 0.0
    vertex 0.0 -5.0 25.0
  endloop
endfacet
facet normal -1.0 0.0 0.0
  outer loop
    vertex 0.0 -5.0 0.0
    vertex 0.0 2.9999999999999996 25.0
    vertex 0.0 2.9999999999999996 0.0
  endloop
endfacet
facet normal 1.0 0.0 0.0
  outer loop
    vertex 18.179999999999996 2.9999999999999996 0.0
    vertex 18.179999999999996 -5.0 25.0
    vertex 18.179999999999996 -5.0 0.0
  endloop
endfacet
facet normal 1.0 0.0 0.0
  outer loop
    vertex 18.179999999999996 -5.0 25.0
    vertex 18.179999999999996 2.9999999999999996 0.0
    vertex 18.179999999999996 2.9999999999999996 25.0
  endloop
endfacet
facet normal 0.0 1.0 0.0
  outer loop
    vertex 0.0 2.9999999999999996 25.0
    vertex 4.5 2.9999999999999996 0.0
    vertex 0.0 2.9999999999999996 0.0
  endloop
endfacet
facet normal 0.0 1.0 0.0
  outer loop
    vertex 4.5 2.9999999999999996 0.0
    vertex 0.0 2.9999999999999996 25.0
    vertex 4.5 2.9999999999999996 25.0
  endloop
endfacet
facet normal -0.0 -1.0 -0.0
  outer loop
    vertex 18.179999999999996 -5.0 25.0
    vertex 0.0 -5.0 0.0
    vertex 18.179999999999996 -5.0 0.0
  endloop
endfacet
facet normal -0.0 -1.0 -0.0
  outer loop
    vertex 0.0 -5.0 0.0
    vertex 18.179999999999996 -5.0 25.0
    vertex 0.0 -5.0 25.0
  endloop
endfacet
facet normal 0.0 1.0 0.0
  outer loop
    vertex 2.25 0.0 25.0
    vertex 4.5 0.0 0.0
    vertex 2.25 0.0 0.0
  endloop
endfacet
facet normal 0.0 1.0 0.0
  outer loop
    vertex 4.5 0.0 0.0
    vertex 2.25 0.0 25.0
    vertex 4.5 0.0 25.0
  endloop
endfacet
endsolid buckle
