solid 18-12 assembly with hole
facet normal -5.004682148554685e-18 -3.290837295075798e-18 -1.0
  outer loop
    vertex 20.000000000000004 -20.000000000000004 -3.427689706957774e-17
    vertex -1.8476244957234487e-17 -20.000000000000004 6.581674590151598e-17
    vertex 20.000000000000004 -1.0009364297109367e-16 -1.0009364297109372e-16
  endloop
endfacet
facet normal -1.0 9.238122478617244e-19 -9.394131637008132e-35
  outer loop
    vertex 0.0 0.0 20.000000000000004
    vertex -1.8476244957234487e-17 -20.000000000000004 6.581674590151598e-17
    vertex -1.8476244957234487e-17 -20.000000000000004 20.000000000000004
  endloop
endfacet
facet normal 5.004682148554683e-18 1.0 -0.0
  outer loop
    vertex 20.000000000000004 -1.0009364297109367e-16 20.000000000000004
    vertex 20.000000000000004 -1.0009364297109367e-16 -1.0009364297109372e-16
    vertex 0.0 0.0 20.000000000000004
  endloop
endfacet
facet normal -3.2309634419494244e-17 3.078584316170043e-17 1.0
  outer loop
    vertex 5.356999312880727 -20.0 20.000000000000004
    vertex 0.0 0.0 20.000000000000004
    vertex -1.8476244957234487e-17 -20.000000000000004 20.000000000000004
  endloop
endfacet
facet normal -3.2309634419494244e-17 3.078584316170043e-17 1.0
  outer loop
    vertex 0.0 0.0 20.000000000000004
    vertex 5.356999312880727 -20.0 20.000000000000004
    vertex 5.431665979547394 -19.528333333333332 20.000000000000004
  endloop
endfacet
facet normal -3.2309634419494244e-17 3.078584316170043e-17 1.0
  outer loop
    vertex 0.0 0.0 20.000000000000004
    vertex 5.431665979547394 -19.528333333333332 20.000000000000004
    vertex 5.598332646214061 -19.05666666666667 20.000000000000007
  endloop
endfacet
facet normal -3.2309634419494244e-17 3.078584316170043e-17 1.0
  outer loop
    vertex 0.0 0.0 20.000000000000004
    vertex 5.598332646214061 -19.05666666666667 20.000000000000007
    vertex 5.856999312880727 -18.584999999999997 20.000000000000004
  endloop
endfacet
facet normal -3.2309634419494244e-17 3.078584316170043e-17 1.0
  outer loop
    vertex 0.0 0.0 20.000000000000004
    vertex 5.856999312880727 -18.584999999999997 20.000000000000004
    vertex 20.000000000000004 -1.0009364297109367e-16 20.000000000000004
  endloop
endfacet
facet normal -3.2309634419494244e-17 3.078584316170043e-17 1.0
  outer loop
    vertex 20.000000000000004 -1.0009364297109367e-16 20.000000000000004
    vertex 5.856999312880727 -18.584999999999997 20.000000000000004
    vertex 18.585000000000004 -5.856999312880713 20.000000000000004
  endloop
endfacet
facet normal -3.2309634419494244e-17 3.078584316170043e-17 1.0
  outer loop
    vertex 20.000000000000004 -1.0009364297109367e-16 20.000000000000004
    vertex 18.585000000000004 -5.856999312880713 20.000000000000004
    vertex 19.11066666666667 -5.6293326462140465 20.000000000000004
  endloop
endfacet
facet normal -3.2309634419494244e-17 3.078584316170043e-17 1.0
  outer loop
    vertex 20.000000000000004 -1.0009364297109367e-16 20.000000000000004
    vertex 19.11066666666667 -5.6293326462140465 20.000000000000004
    vertex 19.582333333333338 -5.46266597954738 20.000000000000007
  endloop
endfacet
facet normal -3.2309634419494244e-17 3.078584316170043e-17 1.0
  outer loop
    vertex 20.000000000000004 -1.0009364297109367e-16 20.000000000000004
    vertex 19.582333333333338 -5.46266597954738 20.000000000000007
    vertex 20.000000000000007 -5.356999312880713 20.000000000000004
  endloop
endfacet
facet normal 0.7071067811865478 -0.7071067811865474 0.0
  outer loop
    vertex 18.585000000000004 -5.856999312880713 18.585
    vertex 5.856999312880727 -18.584999999999997 20.000000000000004
    vertex 5.856999312880727 -18.584999999999997 18.585
  endloop
endfacet
facet normal 0.7071067811865478 -0.7071067811865474 0.0
  outer loop
    vertex 5.856999312880727 -18.584999999999997 20.000000000000004
    vertex 18.585000000000004 -5.856999312880713 18.585
    vertex 18.585000000000004 -5.856999312880713 20.000000000000004
  endloop
endfacet
facet normal 1.0 -3.6053621298398684e-17 -3.348412455601606e-17
  outer loop
    vertex 20.000000000000004 -1.0009364297109367e-16 -1.0009364297109372e-16
    vertex 20.0 -20.000000000000004 5.35699931288071
    vertex 20.000000000000004 -20.000000000000004 -3.427689706957774e-17
  endloop
endfacet
facet normal 1.0 -3.6053621298398684e-17 -3.348412455601606e-17
  outer loop
    vertex 20.0 -20.000000000000004 5.35699931288071
    vertex 20.000000000000004 -1.0009364297109367e-16 -1.0009364297109372e-16
    vertex 20.000000000000004 -19.23658317348305 5.4660470613710315
  endloop
endfacet
facet normal 1.0 -3.6053621298398684e-17 -3.348412455601606e-17
  outer loop
    vertex 20.000000000000004 -19.23658317348305 5.4660470613710315
    vertex 20.000000000000004 -1.0009364297109367e-16 -1.0009364297109372e-16
    vertex 20.000000000000007 -18.764916506816384 5.632713728037698
  endloop
endfacet
facet normal 1.0 -3.6053621298398684e-17 -3.348412455601606e-17
  outer loop
    vertex 20.000000000000007 -18.764916506816384 5.632713728037698
    vertex 20.000000000000004 -1.0009364297109367e-16 -1.0009364297109372e-16
    vertex 20.0 -18.585 5.85699931288071
  endloop
endfacet
facet normal 1.0 -3.6053621298398684e-17 -3.348412455601606e-17
  outer loop
    vertex 20.0 -18.585 5.85699931288071
    vertex 20.000000000000004 -1.0009364297109367e-16 -1.0009364297109372e-16
    vertex 20.000000000000007 -5.856999312880713 18.585
  endloop
endfacet
facet normal 1.0 -3.6053621298398684e-17 -3.348412455601606e-17
  outer loop
    vertex 20.000000000000007 -5.856999312880713 18.585
    vertex 20.000000000000004 -1.0009364297109367e-16 -1.0009364297109372e-16
    vertex 20.0 -5.598699909363098 18.974282868814566
  endloop
endfacet
facet normal 1.0 -3.6053621298398684e-17 -3.348412455601606e-17
  outer loop
    vertex 20.0 -5.598699909363098 18.974282868814566
    vertex 20.000000000000004 -1.0009364297109367e-16 -1.0009364297109372e-16
    vertex 20.000000000000004 -5.4320332426964315 19.445949535481237
  endloop
endfacet
facet normal 1.0 -3.6053621298398684e-17 -3.348412455601606e-17
  outer loop
    vertex 20.000000000000004 -5.4320332426964315 19.445949535481237
    vertex 20.000000000000004 -1.0009364297109367e-16 -1.0009364297109372e-16
    vertex 20.000000000000007 -5.356999312880713 20.000000000000004
  endloop
endfacet
facet normal 1.0 -3.6053621298398684e-17 -3.348412455601606e-17
  outer loop
    vertex 20.000000000000007 -5.356999312880713 20.000000000000004
    vertex 20.000000000000004 -1.0009364297109367e-16 -1.0009364297109372e-16
    vertex 20.000000000000004 -1.0009364297109367e-16 20.000000000000004
  endloop
endfacet
facet normal 8.696589937471867e-33 -0.7071067811865476 0.7071067811865475
  outer loop
    vertex 20.000000000000007 -5.856999312880713 18.585
    vertex 18.584999999999997 -18.585 5.85699931288071
    vertex 20.0 -18.585 5.85699931288071
  endloop
endfacet
facet normal 8.696589937471867e-33 -0.7071067811865476 0.7071067811865475
  outer loop
    vertex 18.584999999999997 -18.585 5.85699931288071
    vertex 20.000000000000007 -5.856999312880713 18.585
    vertex 18.585000000000004 -5.856999312880713 18.585
  endloop
endfacet
facet normal -9.983370530587825e-17 -1.0 1.0102019781939826e-16
  outer loop
    vertex 20.0 -20.000000000000004 5.35699931288071
    vertex -1.8476244957234487e-17 -20.000000000000004 6.581674590151598e-17
    vertex 20.000000000000004 -20.000000000000004 -3.427689706957774e-17
  endloop
endfacet
facet normal -9.983370530587825e-17 -1.0 1.0102019781939826e-16
  outer loop
    vertex -1.8476244957234487e-17 -20.000000000000004 6.581674590151598e-17
    vertex 20.0 -20.000000000000004 5.35699931288071
    vertex 19.388098474591292 -20.000000000000007 5.442340776796279
  endloop
endfacet
facet normal -9.983370530587825e-17 -1.0 1.0102019781939826e-16
  outer loop
    vertex -1.8476244957234487e-17 -20.000000000000004 6.581674590151598e-17
    vertex 19.388098474591292 -20.000000000000007 5.442340776796279
    vertex 18.916431807924624 -20.000000000000007 5.609007443462944
  endloop
endfacet
facet normal -9.983370530587825e-17 -1.0 1.0102019781939826e-16
  outer loop
    vertex -1.8476244957234487e-17 -20.000000000000004 6.581674590151598e-17
    vertex 18.916431807924624 -20.000000000000007 5.609007443462944
    vertex 18.584999999999997 -20.000000000000004 5.85699931288071
  endloop
endfacet
facet normal -9.983370530587825e-17 -1.0 1.0102019781939826e-16
  outer loop
    vertex -1.8476244957234487e-17 -20.000000000000004 6.581674590151598e-17
    vertex 18.584999999999997 -20.000000000000004 5.85699931288071
    vertex -1.8476244957234487e-17 -20.000000000000004 20.000000000000004
  endloop
endfacet
facet normal -9.983370530587825e-17 -1.0 1.0102019781939826e-16
  outer loop
    vertex -1.8476244957234487e-17 -20.000000000000004 20.000000000000004
    vertex 18.584999999999997 -20.000000000000004 5.85699931288071
    vertex 5.856999312880727 -20.0 18.585
  endloop
endfacet
facet normal -9.983370530587825e-17 -1.0 1.0102019781939826e-16
  outer loop
    vertex -1.8476244957234487e-17 -20.000000000000004 20.000000000000004
    vertex 5.856999312880727 -20.0 18.585
    vertex 5.63333264621406 -20.0 19.05666666666667
  endloop
endfacet
facet normal -9.983370530587825e-17 -1.0 1.0102019781939826e-16
  outer loop
    vertex -1.8476244957234487e-17 -20.000000000000004 20.000000000000004
    vertex 5.63333264621406 -20.0 19.05666666666667
    vertex 5.466665979547395 -20.000000000000004 19.52833333333334
  endloop
endfacet
facet normal -9.983370530587825e-17 -1.0 1.0102019781939826e-16
  outer loop
    vertex -1.8476244957234487e-17 -20.000000000000004 20.000000000000004
    vertex 5.466665979547395 -20.000000000000004 19.52833333333334
    vertex 5.356999312880727 -20.0 20.000000000000004
  endloop
endfacet
facet normal 0.707106781186548 6.723510175840189e-30 0.7071067811865471
  outer loop
    vertex 18.584999999999997 -18.585 5.85699931288071
    vertex 5.856999312880727 -20.0 18.585
    vertex 18.584999999999997 -20.000000000000004 5.85699931288071
  endloop
endfacet
facet normal 0.707106781186548 6.723510175840189e-30 0.7071067811865471
  outer loop
    vertex 5.856999312880727 -20.0 18.585
    vertex 18.584999999999997 -18.585 5.85699931288071
    vertex 5.856999312880727 -18.584999999999997 18.585
  endloop
endfacet
facet normal 0.5773502691896257 -0.5773502691896257 0.5773502691896261
  outer loop
    vertex 14.820332043532959 -13.923811385926752 18.525496570540287
    vertex 18.585 -10.09964 18.585
    vertex 14.49671968479672 -14.196361758931948 18.57655855627134
  endloop
endfacet
facet normal 0.5773502691896257 -0.5773502691896257 0.5773502691896261
  outer loop
    vertex 18.585 -10.09964 18.585
    vertex 14.820332043532959 -13.923811385926752 18.525496570540287
    vertex 15.15391573976693 -13.674822689725763 18.440901570507307
  endloop
endfacet
facet normal 0.5773502691896257 -0.5773502691896257 0.5773502691896261
  outer loop
    vertex 18.585 -10.09964 18.585
    vertex 15.15391573976693 -13.674822689725763 18.440901570507307
    vertex 15.496634706564562 -13.457390807022625 18.315614486412812
  endloop
endfacet
facet normal 0.5773502691896257 -0.5773502691896257 0.5773502691896261
  outer loop
    vertex 18.585 -10.09964 18.585
    vertex 15.496634706564562 -13.457390807022625 18.315614486412812
    vertex 15.843293673737678 -13.274811783521253 18.15153454274108
  endloop
endfacet
facet normal 0.5773502691896257 -0.5773502691896257 0.5773502691896261
  outer loop
    vertex 18.585 -10.09964 18.585
    vertex 15.843293673737678 -13.274811783521253 18.15153454274108
    vertex 16.188637644708628 -13.12985333110712 17.95114902418426
  endloop
endfacet
facet normal 0.5773502691896257 -0.5773502691896257 0.5773502691896261
  outer loop
    vertex 18.585 -10.09964 18.585
    vertex 16.188637644708628 -13.12985333110712 17.95114902418426
    vertex 16.52743155690175 -13.024712872156313 17.717495570941942
  endloop
endfacet
facet normal 0.5773502691896257 -0.5773502691896257 0.5773502691896261
  outer loop
    vertex 18.585 -10.09964 18.585
    vertex 16.52743155690175 -13.024712872156313 17.717495570941942
    vertex 16.854539639955696 -12.96098422885225 17.45411613119206
  endloop
endfacet
facet normal 0.5773502691896257 -0.5773502691896257 0.5773502691896261
  outer loop
    vertex 18.585 -10.09964 18.585
    vertex 16.854539639955696 -12.96098422885225 17.45411613119206
    vertex 17.165003268766995 -12.939633462466015 17.165003268767
  endloop
endfacet
facet normal 0.5773502691896257 -0.5773502691896257 0.5773502691896261
  outer loop
    vertex 18.585 -10.09964 18.585
    vertex 17.165003268766995 -12.939633462466015 17.165003268767
    vertex 17.454116131192052 -12.96098422885225 16.854539639955703
  endloop
endfacet
facet normal 0.5773502691896257 -0.5773502691896257 0.5773502691896261
  outer loop
    vertex 18.585 -10.09964 18.585
    vertex 17.454116131192052 -12.96098422885225 16.854539639955703
    vertex 17.717495570941935 -13.024712872156313 16.527431556901753
  endloop
endfacet
facet normal 0.5773502691896257 -0.5773502691896257 0.5773502691896261
  outer loop
    vertex 18.585 -10.09964 18.585
    vertex 17.717495570941935 -13.024712872156313 16.527431556901753
    vertex 17.951149024184257 -13.129853331107114 16.18863764470863
  endloop
endfacet
facet normal 0.5773502691896257 -0.5773502691896257 0.5773502691896261
  outer loop
    vertex 18.585 -10.09964 18.585
    vertex 17.951149024184257 -13.129853331107114 16.18863764470863
    vertex 18.151534542741075 -13.274811783521246 15.843293673737683
  endloop
endfacet
facet normal 0.5773502691896257 -0.5773502691896257 0.5773502691896261
  outer loop
    vertex 18.585 -10.09964 18.585
    vertex 18.151534542741075 -13.274811783521246 15.843293673737683
    vertex 18.31561448641282 -13.457390807022621 15.496634706564567
  endloop
endfacet
facet normal 0.5773502691896257 -0.5773502691896257 0.5773502691896261
  outer loop
    vertex 18.585 -10.09964 18.585
    vertex 18.31561448641282 -13.457390807022621 15.496634706564567
    vertex 18.44090157050731 -13.674822689725763 15.153915739766934
  endloop
endfacet
facet normal 0.5773502691896257 -0.5773502691896257 0.5773502691896261
  outer loop
    vertex 18.585 -10.09964 18.585
    vertex 18.44090157050731 -13.674822689725763 15.153915739766934
    vertex 18.525496570540284 -13.923811385926752 14.820332043532964
  endloop
endfacet
facet normal 0.5773502691896257 -0.5773502691896257 0.5773502691896261
  outer loop
    vertex 18.585 -10.09964 18.585
    vertex 18.525496570540284 -13.923811385926752 14.820332043532964
    vertex 18.57655855627134 -14.196361758931948 14.49671968479672
  endloop
endfacet
facet normal 0.8768039813040428 -0.480847978439527 -3.253087267759907e-17
  outer loop
    vertex 5.856999312880727 -18.584999999999997 20.000000000000004
    vertex 5.598332646214061 -19.05666666666667 20.000000000000007
    vertex 5.856999312880727 -18.584999999999997 18.585
  endloop
endfacet
facet normal 0.9411005544713149 -0.3325443655375698 0.061188163258910154
  outer loop
    vertex 5.856999312880727 -18.584999999999997 18.585
    vertex 5.598332646214061 -19.05666666666667 20.000000000000007
    vertex 5.431665979547394 -19.528333333333332 20.000000000000004
  endloop
endfacet
facet normal 0.9035557255930021 1.6761703238770652e-17 0.42847059496318257
  outer loop
    vertex 5.856999312880727 -18.584999999999997 18.585
    vertex 5.63333264621406 -20.0 19.05666666666667
    vertex 5.856999312880727 -20.0 18.585
  endloop
endfacet
facet normal 0.9421879103326941 -0.03795385928548801 0.33292859022356197
  outer loop
    vertex 5.856999312880727 -18.584999999999997 18.585
    vertex 5.466665979547395 -20.000000000000004 19.52833333333334
    vertex 5.63333264621406 -20.0 19.05666666666667
  endloop
endfacet
facet normal 0.3974278021220438 -0.9176334464809147 -2.7410182581318302e-17
  outer loop
    vertex 18.585000000000004 -5.856999312880713 20.000000000000004
    vertex 18.585000000000004 -5.856999312880713 18.585
    vertex 19.11066666666667 -5.6293326462140465 20.000000000000004
  endloop
endfacet
facet normal 0.3330387480284756 -0.9424996569205915 0.02792112132764604
  outer loop
    vertex 19.582333333333338 -5.46266597954738 20.000000000000007
    vertex 19.11066666666667 -5.6293326462140465 20.000000000000004
    vertex 18.585000000000004 -5.856999312880713 18.585
  endloop
endfacet
facet normal -2.2692454463394706e-17 -0.8332560613403365 0.5528872726330293
  outer loop
    vertex 20.0 -5.598699909363098 18.974282868814566
    vertex 18.585000000000004 -5.856999312880713 18.585
    vertex 20.000000000000007 -5.856999312880713 18.585
  endloop
endfacet
facet normal 0.0801968302235689 -0.9398303218928858 0.33209552010348914
  outer loop
    vertex 20.000000000000004 -5.4320332426964315 19.445949535481237
    vertex 18.585000000000004 -5.856999312880713 18.585
    vertex 20.0 -5.598699909363098 18.974282868814566
  endloop
endfacet
facet normal 0.2110912021020106 -0.9686240902836997 0.131178794464667
  outer loop
    vertex 20.000000000000007 -5.356999312880713 20.000000000000004
    vertex 18.585000000000004 -5.856999312880713 18.585
    vertex 20.000000000000004 -5.4320332426964315 19.445949535481237
  endloop
endfacet
facet normal 0.24411261184804398 -0.9648993774309078 0.09684123176711734
  outer loop
    vertex 19.582333333333338 -5.46266597954738 20.000000000000007
    vertex 18.585000000000004 -5.856999312880713 18.585
    vertex 20.000000000000007 -5.356999312880713 20.000000000000004
  endloop
endfacet
facet normal -1.5998815052273062e-17 -0.7800401504985509 0.6257294651925848
  outer loop
    vertex 18.584999999999997 -18.585 5.85699931288071
    vertex 20.000000000000007 -18.764916506816384 5.632713728037698
    vertex 20.0 -18.585 5.85699931288071
  endloop
endfacet
facet normal 0.1064788327095695 -0.33127456670692423 0.9375070237805939
  outer loop
    vertex 20.000000000000007 -18.764916506816384 5.632713728037698
    vertex 18.584999999999997 -18.585 5.85699931288071
    vertex 20.000000000000004 -19.23658317348305 5.4660470613710315
  endloop
endfacet
facet normal 0.5990998025461188 -3.0081613260427886e-17 0.8006743573945662
  outer loop
    vertex 18.916431807924624 -20.000000000000007 5.609007443462944
    vertex 18.584999999999997 -18.585 5.85699931288071
    vertex 18.584999999999997 -20.000000000000004 5.85699931288071
  endloop
endfacet
facet normal 0.33190888001025953 -0.08687924459727939 0.9393021304290444
  outer loop
    vertex 19.388098474591292 -20.000000000000007 5.442340776796279
    vertex 18.584999999999997 -18.585 5.85699931288071
    vertex 18.916431807924624 -20.000000000000007 5.609007443462944
  endloop
endfacet
facet normal 0.13513350990368597 -0.2072383555258049 0.9689123791654591
  outer loop
    vertex 20.0 -20.000000000000004 5.35699931288071
    vertex 18.584999999999997 -18.585 5.85699931288071
    vertex 19.388098474591292 -20.000000000000007 5.442340776796279
  endloop
endfacet
facet normal 0.2040166799937804 -0.13843222134976377 0.9691303908022313
  outer loop
    vertex 20.000000000000004 -19.23658317348305 5.4660470613710315
    vertex 18.584999999999997 -18.585 5.85699931288071
    vertex 20.0 -20.000000000000004 5.35699931288071
  endloop
endfacet
facet normal -0.5773502691896258 0.5773502691896258 -0.5773502691896258
  outer loop
    vertex -1.8476244957234487e-17 -20.000000000000004 6.581674590151598e-17
    vertex 5.11070248079628 -9.478237112542674 5.41106040666105
    vertex 5.411060406661047 -9.478237112542674 5.110702480796283
  endloop
endfacet
facet normal -0.5773502691896258 0.5773502691896258 -0.5773502691896258
  outer loop
    vertex 5.11070248079628 -9.478237112542674 5.41106040666105
    vertex -1.8476244957234487e-17 -20.000000000000004 6.581674590151598e-17
    vertex 4.833931385926751 -9.435616570540297 5.7304520435329565
  endloop
endfacet
facet normal -0.5773502691896258 0.5773502691896258 -0.5773502691896258
  outer loop
    vertex 4.833931385926751 -9.435616570540297 5.7304520435329565
    vertex -1.8476244957234487e-17 -20.000000000000004 6.581674590151598e-17
    vertex 4.584942689725763 -9.35102157050731 6.064035739766929
  endloop
endfacet
facet normal -0.5773502691896258 0.5773502691896258 -0.5773502691896258
  outer loop
    vertex 4.584942689725763 -9.35102157050731 6.064035739766929
    vertex -1.8476244957234487e-17 -20.000000000000004 6.581674590151598e-17
    vertex 4.367510807022621 -9.22573448641282 6.406754706564562
  endloop
endfacet
facet normal -0.5773502691896258 0.5773502691896258 -0.5773502691896258
  outer loop
    vertex 4.367510807022621 -9.22573448641282 6.406754706564562
    vertex -1.8476244957234487e-17 -20.000000000000004 6.581674590151598e-17
    vertex 4.184931783521248 -9.061654542741078 6.753413673737679
  endloop
endfacet
facet normal -0.5773502691896258 0.5773502691896258 -0.5773502691896258
  outer loop
    vertex 4.184931783521248 -9.061654542741078 6.753413673737679
    vertex -1.8476244957234487e-17 -20.000000000000004 6.581674590151598e-17
    vertex 4.039973331107116 -8.86126902418426 7.098757644708629
  endloop
endfacet
facet normal -0.5773502691896258 0.5773502691896258 -0.5773502691896258
  outer loop
    vertex 4.039973331107116 -8.86126902418426 7.098757644708629
    vertex -1.8476244957234487e-17 -20.000000000000004 6.581674590151598e-17
    vertex 0.0 0.0 20.000000000000004
  endloop
endfacet
facet normal -0.5773502691896258 0.5773502691896258 -0.5773502691896258
  outer loop
    vertex 4.039973331107116 -8.86126902418426 7.098757644708629
    vertex 0.0 0.0 20.000000000000004
    vertex 3.9348328721563113 -8.62761557094194 7.437551556901753
  endloop
endfacet
facet normal -0.5773502691896258 0.5773502691896258 -0.5773502691896258
  outer loop
    vertex 3.9348328721563113 -8.62761557094194 7.437551556901753
    vertex 0.0 0.0 20.000000000000004
    vertex 3.8711042288522477 -8.364236131192055 7.764659639955701
  endloop
endfacet
facet normal -0.5773502691896258 0.5773502691896258 -0.5773502691896258
  outer loop
    vertex 3.8711042288522477 -8.364236131192055 7.764659639955701
    vertex 0.0 0.0 20.000000000000004
    vertex 3.849753462466012 -8.075123268766994 8.075123268766998
  endloop
endfacet
facet normal -0.5773502691896258 0.5773502691896258 -0.5773502691896258
  outer loop
    vertex 3.849753462466012 -8.075123268766994 8.075123268766998
    vertex 0.0 0.0 20.000000000000004
    vertex 3.8711042288522495 -7.764659639955688 8.364236131192067
  endloop
endfacet
facet normal -0.5773502691896258 0.5773502691896258 -0.5773502691896258
  outer loop
    vertex 3.8711042288522495 -7.764659639955688 8.364236131192067
    vertex 0.0 0.0 20.000000000000004
    vertex 3.934832872156314 -7.437551556901739 8.627615570941952
  endloop
endfacet
facet normal -0.5773502691896258 0.5773502691896258 -0.5773502691896258
  outer loop
    vertex 3.934832872156314 -7.437551556901739 8.627615570941952
    vertex 0.0 0.0 20.000000000000004
    vertex 4.039973331107118 -7.098757644708616 8.861269024184269
  endloop
endfacet
facet normal -0.5773502691896258 0.5773502691896258 -0.5773502691896258
  outer loop
    vertex 4.039973331107118 -7.098757644708616 8.861269024184269
    vertex 0.0 0.0 20.000000000000004
    vertex 4.184931783521253 -6.753413673737665 9.061654542741085
  endloop
endfacet
facet normal -0.5773502691896258 0.5773502691896258 -0.5773502691896258
  outer loop
    vertex 4.184931783521253 -6.753413673737665 9.061654542741085
    vertex 0.0 0.0 20.000000000000004
    vertex 4.367510807022627 -6.406754706564552 9.225734486412827
  endloop
endfacet
facet normal -0.5773502691896258 0.5773502691896258 -0.5773502691896258
  outer loop
    vertex 4.367510807022627 -6.406754706564552 9.225734486412827
    vertex 0.0 0.0 20.000000000000004
    vertex 4.58494268972577 -6.06403573976692 9.351021570507314
  endloop
endfacet
facet normal -0.5773502691896258 0.5773502691896258 -0.5773502691896258
  outer loop
    vertex 4.58494268972577 -6.06403573976692 9.351021570507314
    vertex 0.0 0.0 20.000000000000004
    vertex 4.833931385926758 -5.730452043532946 9.435616570540299
  endloop
endfacet
facet normal -0.5773502691896258 0.5773502691896258 -0.5773502691896258
  outer loop
    vertex 4.833931385926758 -5.730452043532946 9.435616570540299
    vertex 0.0 0.0 20.000000000000004
    vertex 5.110702480796286 -5.411060406661043 9.478237112542676
  endloop
endfacet
facet normal -0.5773502691896258 0.5773502691896258 -0.5773502691896258
  outer loop
    vertex 5.110702480796286 -5.411060406661043 9.478237112542676
    vertex 0.0 0.0 20.000000000000004
    vertex 5.4110604066610515 -5.110702480796277 9.478237112542676
  endloop
endfacet
facet normal -0.5773502691896258 0.5773502691896258 -0.5773502691896258
  outer loop
    vertex 5.4110604066610515 -5.110702480796277 9.478237112542676
    vertex 0.0 0.0 20.000000000000004
    vertex 5.7304520435329565 -4.833931385926749 9.435616570540297
  endloop
endfacet
facet normal -0.5773502691896258 0.5773502691896258 -0.5773502691896258
  outer loop
    vertex 5.7304520435329565 -4.833931385926749 9.435616570540297
    vertex 0.0 0.0 20.000000000000004
    vertex 6.06403573976693 -4.584942689725762 9.351021570507312
  endloop
endfacet
facet normal -0.5773502691896258 0.5773502691896258 -0.5773502691896258
  outer loop
    vertex 6.06403573976693 -4.584942689725762 9.351021570507312
    vertex 0.0 0.0 20.000000000000004
    vertex 6.406754706564563 -4.3675108070226205 9.225734486412822
  endloop
endfacet
facet normal -0.5773502691896258 0.5773502691896258 -0.5773502691896258
  outer loop
    vertex 6.406754706564563 -4.3675108070226205 9.225734486412822
    vertex 0.0 0.0 20.000000000000004
    vertex 6.753413673737677 -4.184931783521247 9.061654542741078
  endloop
endfacet
facet normal -0.5773502691896258 0.5773502691896258 -0.5773502691896258
  outer loop
    vertex 6.753413673737677 -4.184931783521247 9.061654542741078
    vertex 0.0 0.0 20.000000000000004
    vertex 7.098757644708628 -4.039973331107116 8.861269024184264
  endloop
endfacet
facet normal -0.5773502691896258 0.5773502691896258 -0.5773502691896258
  outer loop
    vertex 7.098757644708628 -4.039973331107116 8.861269024184264
    vertex 0.0 0.0 20.000000000000004
    vertex 7.4375515569017505 -3.9348328721563113 8.627615570941945
  endloop
endfacet
facet normal -0.5773502691896258 0.5773502691896258 -0.5773502691896258
  outer loop
    vertex 7.4375515569017505 -3.9348328721563113 8.627615570941945
    vertex 0.0 0.0 20.000000000000004
    vertex 7.764659639955699 -3.8711042288522477 8.364236131192058
  endloop
endfacet
facet normal -0.5773502691896258 0.5773502691896258 -0.5773502691896258
  outer loop
    vertex 7.764659639955699 -3.8711042288522477 8.364236131192058
    vertex 0.0 0.0 20.000000000000004
    vertex 8.075123268766992 -3.849753462466013 8.075123268767
  endloop
endfacet
facet normal -0.5773502691896258 0.5773502691896258 -0.5773502691896258
  outer loop
    vertex 8.075123268766992 -3.849753462466013 8.075123268767
    vertex 0.0 0.0 20.000000000000004
    vertex 20.000000000000004 -1.0009364297109367e-16 -1.0009364297109372e-16
  endloop
endfacet
facet normal -0.5773502691896258 0.5773502691896258 -0.5773502691896258
  outer loop
    vertex -1.8476244957234487e-17 -20.000000000000004 6.581674590151598e-17
    vertex 7.098757644708626 -8.861269024184262 4.039973331107116
    vertex 20.000000000000004 -1.0009364297109367e-16 -1.0009364297109372e-16
  endloop
endfacet
facet normal -0.5773502691896258 0.5773502691896258 -0.5773502691896258
  outer loop
    vertex 7.098757644708626 -8.861269024184262 4.039973331107116
    vertex -1.8476244957234487e-17 -20.000000000000004 6.581674590151598e-17
    vertex 6.753413673737676 -9.061654542741078 4.184931783521249
  endloop
endfacet
facet normal -0.5773502691896258 0.5773502691896258 -0.5773502691896258
  outer loop
    vertex 6.753413673737676 -9.061654542741078 4.184931783521249
    vertex -1.8476244957234487e-17 -20.000000000000004 6.581674590151598e-17
    vertex 6.406754706564558 -9.22573448641282 4.367510807022622
  endloop
endfacet
facet normal -0.5773502691896258 0.5773502691896258 -0.5773502691896258
  outer loop
    vertex 6.406754706564558 -9.22573448641282 4.367510807022622
    vertex -1.8476244957234487e-17 -20.000000000000004 6.581674590151598e-17
    vertex 6.064035739766927 -9.351021570507312 4.584942689725765
  endloop
endfacet
facet normal -0.5773502691896258 0.5773502691896258 -0.5773502691896258
  outer loop
    vertex 6.064035739766927 -9.351021570507312 4.584942689725765
    vertex -1.8476244957234487e-17 -20.000000000000004 6.581674590151598e-17
    vertex 5.730452043532953 -9.435616570540297 4.833931385926753
  endloop
endfacet
facet normal -0.5773502691896258 0.5773502691896258 -0.5773502691896258
  outer loop
    vertex 5.730452043532953 -9.435616570540297 4.833931385926753
    vertex -1.8476244957234487e-17 -20.000000000000004 6.581674590151598e-17
    vertex 5.411060406661047 -9.478237112542674 5.110702480796283
  endloop
endfacet
facet normal -0.5773502691896258 0.5773502691896258 -0.5773502691896258
  outer loop
    vertex 20.000000000000004 -1.0009364297109367e-16 -1.0009364297109372e-16
    vertex 7.098757644708626 -8.861269024184262 4.039973331107116
    vertex 7.4375515569017505 -8.627615570941941 3.9348328721563126
  endloop
endfacet
facet normal -0.5773502691896258 0.5773502691896258 -0.5773502691896258
  outer loop
    vertex 20.000000000000004 -1.0009364297109367e-16 -1.0009364297109372e-16
    vertex 7.4375515569017505 -8.627615570941941 3.9348328721563126
    vertex 7.764659639955699 -8.364236131192055 3.8711042288522495
  endloop
endfacet
facet normal -0.5773502691896258 0.5773502691896258 -0.5773502691896258
  outer loop
    vertex 20.000000000000004 -1.0009364297109367e-16 -1.0009364297109372e-16
    vertex 7.764659639955699 -8.364236131192055 3.8711042288522495
    vertex 8.075123268766996 -8.075123268766994 3.849753462466014
  endloop
endfacet
facet normal -0.5773502691896258 0.5773502691896258 -0.5773502691896258
  outer loop
    vertex 20.000000000000004 -1.0009364297109367e-16 -1.0009364297109372e-16
    vertex 8.075123268766996 -8.075123268766994 3.849753462466014
    vertex 8.364236131192056 -7.764659639955698 3.8711042288522495
  endloop
endfacet
facet normal -0.5773502691896258 0.5773502691896258 -0.5773502691896258
  outer loop
    vertex 20.000000000000004 -1.0009364297109367e-16 -1.0009364297109372e-16
    vertex 8.364236131192056 -7.764659639955698 3.8711042288522495
    vertex 8.627615570941943 -7.437551556901749 3.9348328721563126
  endloop
endfacet
facet normal -0.5773502691896258 0.5773502691896258 -0.5773502691896258
  outer loop
    vertex 20.000000000000004 -1.0009364297109367e-16 -1.0009364297109372e-16
    vertex 8.627615570941943 -7.437551556901749 3.9348328721563126
    vertex 8.861269024184264 -7.098757644708624 4.039973331107118
  endloop
endfacet
facet normal -0.5773502691896258 0.5773502691896258 -0.5773502691896258
  outer loop
    vertex 20.000000000000004 -1.0009364297109367e-16 -1.0009364297109372e-16
    vertex 8.861269024184264 -7.098757644708624 4.039973331107118
    vertex 9.06165454274108 -6.753413673737675 4.18493178352125
  endloop
endfacet
facet normal -0.5773502691896258 0.5773502691896258 -0.5773502691896258
  outer loop
    vertex 20.000000000000004 -1.0009364297109367e-16 -1.0009364297109372e-16
    vertex 9.06165454274108 -6.753413673737675 4.18493178352125
    vertex 9.225734486412822 -6.406754706564557 4.367510807022624
  endloop
endfacet
facet normal -0.5773502691896258 0.5773502691896258 -0.5773502691896258
  outer loop
    vertex 20.000000000000004 -1.0009364297109367e-16 -1.0009364297109372e-16
    vertex 9.225734486412822 -6.406754706564557 4.367510807022624
    vertex 9.351021570507314 -6.064035739766926 4.584942689725768
  endloop
endfacet
facet normal -0.5773502691896258 0.5773502691896258 -0.5773502691896258
  outer loop
    vertex 20.000000000000004 -1.0009364297109367e-16 -1.0009364297109372e-16
    vertex 9.351021570507314 -6.064035739766926 4.584942689725768
    vertex 9.435616570540297 -5.73045204353295 4.833931385926756
  endloop
endfacet
facet normal -0.5773502691896258 0.5773502691896258 -0.5773502691896258
  outer loop
    vertex 20.000000000000004 -1.0009364297109367e-16 -1.0009364297109372e-16
    vertex 9.435616570540297 -5.73045204353295 4.833931385926756
    vertex 9.478237112542674 -5.411060406661044 5.110702480796285
  endloop
endfacet
facet normal -0.5773502691896258 0.5773502691896258 -0.5773502691896258
  outer loop
    vertex 20.000000000000004 -1.0009364297109367e-16 -1.0009364297109372e-16
    vertex 9.478237112542674 -5.411060406661044 5.110702480796285
    vertex 9.478237112542674 -5.110702480796279 5.411060406661052
  endloop
endfacet
facet normal -0.5773502691896258 0.5773502691896258 -0.5773502691896258
  outer loop
    vertex 20.000000000000004 -1.0009364297109367e-16 -1.0009364297109372e-16
    vertex 9.478237112542674 -5.110702480796279 5.411060406661052
    vertex 9.435616570540297 -4.83393138592675 5.730452043532958
  endloop
endfacet
facet normal -0.5773502691896258 0.5773502691896258 -0.5773502691896258
  outer loop
    vertex 20.000000000000004 -1.0009364297109367e-16 -1.0009364297109372e-16
    vertex 9.435616570540297 -4.83393138592675 5.730452043532958
    vertex 9.35102157050731 -4.584942689725762 6.064035739766933
  endloop
endfacet
facet normal -0.5773502691896258 0.5773502691896258 -0.5773502691896258
  outer loop
    vertex 20.000000000000004 -1.0009364297109367e-16 -1.0009364297109372e-16
    vertex 9.35102157050731 -4.584942689725762 6.064035739766933
    vertex 9.22573448641282 -4.3675108070226205 6.406754706564565
  endloop
endfacet
facet normal -0.5773502691896258 0.5773502691896258 -0.5773502691896258
  outer loop
    vertex 20.000000000000004 -1.0009364297109367e-16 -1.0009364297109372e-16
    vertex 9.22573448641282 -4.3675108070226205 6.406754706564565
    vertex 9.061654542741076 -4.184931783521246 6.753413673737682
  endloop
endfacet
facet normal -0.5773502691896258 0.5773502691896258 -0.5773502691896258
  outer loop
    vertex 20.000000000000004 -1.0009364297109367e-16 -1.0009364297109372e-16
    vertex 9.061654542741076 -4.184931783521246 6.753413673737682
    vertex 8.861269024184258 -4.039973331107113 7.098757644708633
  endloop
endfacet
facet normal -0.5773502691896258 0.5773502691896258 -0.5773502691896258
  outer loop
    vertex 20.000000000000004 -1.0009364297109367e-16 -1.0009364297109372e-16
    vertex 8.861269024184258 -4.039973331107113 7.098757644708633
    vertex 8.627615570941938 -3.93483287215631 7.437551556901758
  endloop
endfacet
facet normal -0.5773502691896258 0.5773502691896258 -0.5773502691896258
  outer loop
    vertex 20.000000000000004 -1.0009364297109367e-16 -1.0009364297109372e-16
    vertex 8.627615570941938 -3.93483287215631 7.437551556901758
    vertex 8.364236131192051 -3.8711042288522473 7.764659639955705
  endloop
endfacet
facet normal -0.5773502691896258 0.5773502691896258 -0.5773502691896258
  outer loop
    vertex 20.000000000000004 -1.0009364297109367e-16 -1.0009364297109372e-16
    vertex 8.364236131192051 -3.8711042288522473 7.764659639955705
    vertex 8.075123268766992 -3.849753462466013 8.075123268767
  endloop
endfacet
facet normal 0.8149479553263619 0.3639438434798489 -0.4510041118465526
  outer loop
    vertex 3.849753462466012 -8.075123268766994 8.075123268766998
    vertex 12.960984228852247 -16.854539639955686 17.454116131192063
    vertex 12.939633462466011 -17.165003268767 17.165003268767
  endloop
endfacet
facet normal 0.8149479553263619 0.3639438434798489 -0.4510041118465526
  outer loop
    vertex 12.960984228852247 -16.854539639955686 17.454116131192063
    vertex 3.849753462466012 -8.075123268766994 8.075123268766998
    vertex 3.8711042288522495 -7.764659639955688 8.364236131192067
  endloop
endfacet
facet normal 0.8025941750358355 0.2713665574300667 -0.5312276176057688
  outer loop
    vertex 3.8711042288522495 -7.764659639955688 8.364236131192067
    vertex 13.024712872156316 -16.527431556901732 17.71749557094195
    vertex 12.960984228852247 -16.854539639955686 17.454116131192063
  endloop
endfacet
facet normal 0.8025941750358355 0.2713665574300667 -0.5312276176057688
  outer loop
    vertex 13.024712872156316 -16.527431556901732 17.71749557094195
    vertex 3.8711042288522495 -7.764659639955688 8.364236131192067
    vertex 3.934832872156314 -7.437551556901739 8.627615570941952
  endloop
endfacet
facet normal 0.7780738851712103 0.17467563098540367 -0.6033982541857652
  outer loop
    vertex 3.934832872156314 -7.437551556901739 8.627615570941952
    vertex 13.12985333110712 -16.188637644708617 17.951149024184264
    vertex 13.024712872156316 -16.527431556901732 17.71749557094195
  endloop
endfacet
facet normal 0.7780738851712103 0.17467563098540367 -0.6033982541857652
  outer loop
    vertex 13.12985333110712 -16.188637644708617 17.951149024184264
    vertex 3.934832872156314 -7.437551556901739 8.627615570941952
    vertex 4.039973331107118 -7.098757644708616 8.861269024184269
  endloop
endfacet
facet normal 0.7417587883322327 0.07533680002963081 -0.666421988302602
  outer loop
    vertex 4.039973331107118 -7.098757644708616 8.861269024184269
    vertex 13.274811783521253 -15.843293673737666 18.151534542741086
    vertex 13.12985333110712 -16.188637644708617 17.951149024184264
  endloop
endfacet
facet normal 0.7417587883322327 0.07533680002963081 -0.666421988302602
  outer loop
    vertex 13.274811783521253 -15.843293673737666 18.151534542741086
    vertex 4.039973331107118 -7.098757644708616 8.861269024184269
    vertex 4.184931783521253 -6.753413673737665 9.061654542741085
  endloop
endfacet
facet normal 0.6941993843694217 -0.02514406002057373 -0.7193434443899506
  outer loop
    vertex 4.367510807022627 -6.406754706564552 9.225734486412827
    vertex 13.274811783521253 -15.843293673737666 18.151534542741086
    vertex 4.184931783521253 -6.753413673737665 9.061654542741085
  endloop
endfacet
facet normal 0.6941993843694217 -0.02514406002057373 -0.7193434443899506
  outer loop
    vertex 13.274811783521253 -15.843293673737666 18.151534542741086
    vertex 4.367510807022627 -6.406754706564552 9.225734486412827
    vertex 13.457390807022625 -15.496634706564556 18.315614486412827
  endloop
endfacet
facet normal 0.6361166253674251 -0.1252437617512818 -0.7613603871187068
  outer loop
    vertex 4.58494268972577 -6.06403573976692 9.351021570507314
    vertex 13.457390807022625 -15.496634706564556 18.315614486412827
    vertex 4.367510807022627 -6.406754706564552 9.225734486412827
  endloop
endfacet
facet normal 0.6361166253674251 -0.1252437617512818 -0.7613603871187068
  outer loop
    vertex 13.457390807022625 -15.496634706564556 18.315614486412827
    vertex 4.58494268972577 -6.06403573976692 9.351021570507314
    vertex 13.674822689725769 -15.153915739766925 18.44090157050731
  endloop
endfacet
facet normal 0.5683909867464269 -0.223444895720321 -0.7918358824667887
  outer loop
    vertex 4.833931385926758 -5.730452043532946 9.435616570540299
    vertex 13.674822689725769 -15.153915739766925 18.44090157050731
    vertex 4.58494268972577 -6.06403573976692 9.351021570507314
  endloop
endfacet
facet normal 0.5683909867464269 -0.223444895720321 -0.7918358824667887
  outer loop
    vertex 13.674822689725769 -15.153915739766925 18.44090157050731
    vertex 4.833931385926758 -5.730452043532946 9.435616570540299
    vertex 13.923811385926756 -14.820332043532945 18.52549657054031
  endloop
endfacet
facet normal 0.2234448957203334 -0.5683909867464176 -0.7918358824667919
  outer loop
    vertex 6.06403573976693 -4.584942689725762 9.351021570507312
    vertex 14.820332043532959 -13.923811385926752 18.525496570540287
    vertex 5.7304520435329565 -4.833931385926749 9.435616570540297
  endloop
endfacet
facet normal 0.2234448957203334 -0.5683909867464176 -0.7918358824667919
  outer loop
    vertex 14.820332043532959 -13.923811385926752 18.525496570540287
    vertex 6.06403573976693 -4.584942689725762 9.351021570507312
    vertex 15.15391573976693 -13.674822689725763 18.440901570507307
  endloop
endfacet
facet normal 0.12524376175133772 -0.6361166253673665 -0.7613603871187467
  outer loop
    vertex 6.406754706564563 -4.3675108070226205 9.225734486412822
    vertex 15.15391573976693 -13.674822689725763 18.440901570507307
    vertex 6.06403573976693 -4.584942689725762 9.351021570507312
  endloop
endfacet
facet normal 0.12524376175133772 -0.6361166253673665 -0.7613603871187467
  outer loop
    vertex 15.15391573976693 -13.674822689725763 18.440901570507307
    vertex 6.406754706564563 -4.3675108070226205 9.225734486412822
    vertex 15.496634706564562 -13.457390807022625 18.315614486412812
  endloop
endfacet
facet normal 0.02514406002052808 -0.6941993843694457 -0.7193434443899289
  outer loop
    vertex 6.753413673737677 -4.184931783521247 9.061654542741078
    vertex 15.496634706564562 -13.457390807022625 18.315614486412812
    vertex 6.406754706564563 -4.3675108070226205 9.225734486412822
  endloop
endfacet
facet normal 0.02514406002052808 -0.6941993843694457 -0.7193434443899289
  outer loop
    vertex 15.496634706564562 -13.457390807022625 18.315614486412812
    vertex 6.753413673737677 -4.184931783521247 9.061654542741078
    vertex 15.843293673737678 -13.274811783521253 18.15153454274108
  endloop
endfacet
facet normal -0.07533680002963541 -0.7417587883322347 -0.6664219883025992
  outer loop
    vertex 16.188637644708628 -13.12985333110712 17.95114902418426
    vertex 6.753413673737677 -4.184931783521247 9.061654542741078
    vertex 7.098757644708628 -4.039973331107116 8.861269024184264
  endloop
endfacet
facet normal -0.07533680002963541 -0.7417587883322347 -0.6664219883025992
  outer loop
    vertex 6.753413673737677 -4.184931783521247 9.061654542741078
    vertex 16.188637644708628 -13.12985333110712 17.95114902418426
    vertex 15.843293673737678 -13.274811783521253 18.15153454274108
  endloop
endfacet
facet normal -0.17467563098547284 -0.7780738851712319 -0.6033982541857176
  outer loop
    vertex 16.52743155690175 -13.024712872156313 17.717495570941942
    vertex 7.098757644708628 -4.039973331107116 8.861269024184264
    vertex 7.4375515569017505 -3.9348328721563113 8.627615570941945
  endloop
endfacet
facet normal -0.17467563098547284 -0.7780738851712319 -0.6033982541857176
  outer loop
    vertex 7.098757644708628 -4.039973331107116 8.861269024184264
    vertex 16.52743155690175 -13.024712872156313 17.717495570941942
    vertex 16.188637644708628 -13.12985333110712 17.95114902418426
  endloop
endfacet
facet normal -0.27136655742999516 -0.8025941750358218 -0.5312276176058265
  outer loop
    vertex 16.854539639955696 -12.96098422885225 17.45411613119206
    vertex 7.4375515569017505 -3.9348328721563113 8.627615570941945
    vertex 7.764659639955699 -3.8711042288522477 8.364236131192058
  endloop
endfacet
facet normal -0.27136655742999516 -0.8025941750358218 -0.5312276176058265
  outer loop
    vertex 7.4375515569017505 -3.9348328721563113 8.627615570941945
    vertex 16.854539639955696 -12.96098422885225 17.45411613119206
    vertex 16.52743155690175 -13.024712872156313 17.717495570941942
  endloop
endfacet
facet normal -0.3639438434798897 -0.8149479553263645 -0.4510041118465144
  outer loop
    vertex 17.165003268766995 -12.939633462466015 17.165003268767
    vertex 7.764659639955699 -3.8711042288522477 8.364236131192058
    vertex 8.075123268766992 -3.849753462466013 8.075123268767
  endloop
endfacet
facet normal -0.3639438434798897 -0.8149479553263645 -0.4510041118465144
  outer loop
    vertex 7.764659639955699 -3.8711042288522477 8.364236131192058
    vertex 17.165003268766995 -12.939633462466015 17.165003268767
    vertex 16.854539639955696 -12.96098422885225 17.45411613119206
  endloop
endfacet
facet normal -0.4510041118464659 -0.8149479553263803 -0.3639438434799145
  outer loop
    vertex 17.454116131192052 -12.96098422885225 16.854539639955703
    vertex 8.075123268766992 -3.849753462466013 8.075123268767
    vertex 8.364236131192051 -3.8711042288522473 7.764659639955705
  endloop
endfacet
facet normal -0.4510041118464659 -0.8149479553263803 -0.3639438434799145
  outer loop
    vertex 8.075123268766992 -3.849753462466013 8.075123268767
    vertex 17.454116131192052 -12.96098422885225 16.854539639955703
    vertex 17.165003268766995 -12.939633462466015 17.165003268767
  endloop
endfacet
facet normal -0.5312276176057688 -0.8025941750358355 -0.2713665574300667
  outer loop
    vertex 17.717495570941935 -13.024712872156313 16.527431556901753
    vertex 8.364236131192051 -3.8711042288522473 7.764659639955705
    vertex 8.627615570941938 -3.93483287215631 7.437551556901758
  endloop
endfacet
facet normal -0.5312276176057688 -0.8025941750358355 -0.2713665574300667
  outer loop
    vertex 8.364236131192051 -3.8711042288522473 7.764659639955705
    vertex 17.717495570941935 -13.024712872156313 16.527431556901753
    vertex 17.454116131192052 -12.96098422885225 16.854539639955703
  endloop
endfacet
facet normal -0.6033982541858086 -0.7780738851711834 -0.17467563098537472
  outer loop
    vertex 17.951149024184257 -13.129853331107114 16.18863764470863
    vertex 8.627615570941938 -3.93483287215631 7.437551556901758
    vertex 8.861269024184258 -4.039973331107113 7.098757644708633
  endloop
endfacet
facet normal -0.6033982541858086 -0.7780738851711834 -0.17467563098537472
  outer loop
    vertex 8.627615570941938 -3.93483287215631 7.437551556901758
    vertex 17.951149024184257 -13.129853331107114 16.18863764470863
    vertex 17.717495570941935 -13.024712872156313 16.527431556901753
  endloop
endfacet
facet normal -0.6664219883026047 -0.741758788332231 -0.0753368000296262
  outer loop
    vertex 18.151534542741075 -13.274811783521246 15.843293673737683
    vertex 8.861269024184258 -4.039973331107113 7.098757644708633
    vertex 9.061654542741076 -4.184931783521246 6.753413673737682
  endloop
endfacet
facet normal -0.6664219883026047 -0.741758788332231 -0.0753368000296262
  outer loop
    vertex 8.861269024184258 -4.039973331107113 7.098757644708633
    vertex 18.151534542741075 -13.274811783521246 15.843293673737683
    vertex 17.951149024184257 -13.129853331107114 16.18863764470863
  endloop
endfacet
facet normal -0.719343444389993 -0.6941993843693745 0.025144060020663415
  outer loop
    vertex 18.151534542741075 -13.274811783521246 15.843293673737683
    vertex 9.22573448641282 -4.3675108070226205 6.406754706564565
    vertex 18.31561448641282 -13.457390807022621 15.496634706564567
  endloop
endfacet
facet normal -0.719343444389993 -0.6941993843693745 0.025144060020663415
  outer loop
    vertex 9.22573448641282 -4.3675108070226205 6.406754706564565
    vertex 18.151534542741075 -13.274811783521246 15.843293673737683
    vertex 9.061654542741076 -4.184931783521246 6.753413673737682
  endloop
endfacet
facet normal -0.7613603871186904 -0.6361166253674537 0.12524376175123667
  outer loop
    vertex 18.31561448641282 -13.457390807022621 15.496634706564567
    vertex 9.35102157050731 -4.584942689725762 6.064035739766933
    vertex 18.44090157050731 -13.674822689725763 15.153915739766934
  endloop
endfacet
facet normal -0.7613603871186904 -0.6361166253674537 0.12524376175123667
  outer loop
    vertex 9.35102157050731 -4.584942689725762 6.064035739766933
    vertex 18.31561448641282 -13.457390807022621 15.496634706564567
    vertex 9.22573448641282 -4.3675108070226205 6.406754706564565
  endloop
endfacet
facet normal -0.791835882466787 -0.568390986746432 0.22344489572031428
  outer loop
    vertex 18.44090157050731 -13.674822689725763 15.153915739766934
    vertex 9.435616570540297 -4.83393138592675 5.730452043532958
    vertex 18.525496570540284 -13.923811385926752 14.820332043532964
  endloop
endfacet
facet normal -0.791835882466787 -0.568390986746432 0.22344489572031428
  outer loop
    vertex 9.435616570540297 -4.83393138592675 5.730452043532958
    vertex 18.44090157050731 -13.674822689725763 15.153915739766934
    vertex 9.35102157050731 -4.584942689725762 6.064035739766933
  endloop
endfacet
facet normal -0.7918358824667503 -0.2234448957203039 0.5683909867464871
  outer loop
    vertex 18.525496570540348 -14.820332043532934 13.923811385926724
    vertex 9.351021570507314 -6.064035739766926 4.584942689725768
    vertex 18.440901570507314 -15.153915739766925 13.674822689725767
  endloop
endfacet
facet normal -0.7918358824667503 -0.2234448957203039 0.5683909867464871
  outer loop
    vertex 9.351021570507314 -6.064035739766926 4.584942689725768
    vertex 18.525496570540348 -14.820332043532934 13.923811385926724
    vertex 9.435616570540297 -5.73045204353295 4.833931385926756
  endloop
endfacet
facet normal -0.7613603871187041 -0.12524376175127436 0.6361166253674299
  outer loop
    vertex 18.440901570507314 -15.153915739766925 13.674822689725767
    vertex 9.225734486412822 -6.406754706564557 4.367510807022624
    vertex 18.31561448641282 -15.496634706564567 13.45739080702262
  endloop
endfacet
facet normal -0.7613603871187041 -0.12524376175127436 0.6361166253674299
  outer loop
    vertex 9.225734486412822 -6.406754706564557 4.367510807022624
    vertex 18.440901570507314 -15.153915739766925 13.674822689725767
    vertex 9.351021570507314 -6.064035739766926 4.584942689725768
  endloop
endfacet
facet normal -0.7193434443899729 -0.025144060020620963 0.6941993843693968
  outer loop
    vertex 18.31561448641282 -15.496634706564567 13.45739080702262
    vertex 9.06165454274108 -6.753413673737675 4.18493178352125
    vertex 18.151534542741086 -15.843293673737675 13.274811783521246
  endloop
endfacet
facet normal -0.7193434443899729 -0.025144060020620963 0.6941993843693968
  outer loop
    vertex 9.06165454274108 -6.753413673737675 4.18493178352125
    vertex 18.31561448641282 -15.496634706564567 13.45739080702262
    vertex 9.225734486412822 -6.406754706564557 4.367510807022624
  endloop
endfacet
facet normal -0.666421988302602 0.07533680002963081 0.7417587883322327
  outer loop
    vertex 17.951149024184264 -16.188637644708624 13.129853331107114
    vertex 9.06165454274108 -6.753413673737675 4.18493178352125
    vertex 8.861269024184264 -7.098757644708624 4.039973331107118
  endloop
endfacet
facet normal -0.666421988302602 0.07533680002963081 0.7417587883322327
  outer loop
    vertex 9.06165454274108 -6.753413673737675 4.18493178352125
    vertex 17.951149024184264 -16.188637644708624 13.129853331107114
    vertex 18.151534542741086 -15.843293673737675 13.274811783521246
  endloop
endfacet
facet normal -0.45100411184650396 0.3639438434798736 0.8149479553263775
  outer loop
    vertex 17.165003268767 -17.165003268766995 12.939633462466015
    vertex 8.364236131192056 -7.764659639955698 3.8711042288522495
    vertex 8.075123268766996 -8.075123268766994 3.849753462466014
  endloop
endfacet
facet normal -0.45100411184650396 0.3639438434798736 0.8149479553263775
  outer loop
    vertex 8.364236131192056 -7.764659639955698 3.8711042288522495
    vertex 17.165003268767 -17.165003268766995 12.939633462466015
    vertex 17.454116131192055 -16.8545396399557 12.960984228852247
  endloop
endfacet
facet normal -0.363943843479851 0.45100411184652506 0.814947955326376
  outer loop
    vertex 16.8545396399557 -17.454116131192055 12.960984228852247
    vertex 8.075123268766996 -8.075123268766994 3.849753462466014
    vertex 7.764659639955699 -8.364236131192055 3.8711042288522495
  endloop
endfacet
facet normal -0.363943843479851 0.45100411184652506 0.814947955326376
  outer loop
    vertex 8.075123268766996 -8.075123268766994 3.849753462466014
    vertex 16.8545396399557 -17.454116131192055 12.960984228852247
    vertex 17.165003268767 -17.165003268766995 12.939633462466015
  endloop
endfacet
facet normal -0.27136655743005217 0.5312276176057805 0.8025941750358326
  outer loop
    vertex 16.527431556901753 -17.717495570941946 13.024712872156313
    vertex 7.764659639955699 -8.364236131192055 3.8711042288522495
    vertex 7.4375515569017505 -8.627615570941941 3.9348328721563126
  endloop
endfacet
facet normal -0.27136655743005217 0.5312276176057805 0.8025941750358326
  outer loop
    vertex 7.764659639955699 -8.364236131192055 3.8711042288522495
    vertex 16.527431556901753 -17.717495570941946 13.024712872156313
    vertex 16.8545396399557 -17.454116131192055 12.960984228852247
  endloop
endfacet
facet normal -0.17467563098542388 0.6033982541857746 0.7780738851711985
  outer loop
    vertex 16.188637644708628 -17.951149024184268 13.129853331107114
    vertex 7.4375515569017505 -8.627615570941941 3.9348328721563126
    vertex 7.098757644708626 -8.861269024184262 4.039973331107116
  endloop
endfacet
facet normal -0.17467563098542388 0.6033982541857746 0.7780738851711985
  outer loop
    vertex 7.4375515569017505 -8.627615570941941 3.9348328721563126
    vertex 16.188637644708628 -17.951149024184268 13.129853331107114
    vertex 16.527431556901753 -17.717495570941946 13.024712872156313
  endloop
endfacet
facet normal -0.0753368000295012 0.6664219883026543 0.741758788332199
  outer loop
    vertex 15.843293673737675 -18.151534542741082 13.274811783521246
    vertex 7.098757644708626 -8.861269024184262 4.039973331107116
    vertex 6.753413673737676 -9.061654542741078 4.184931783521249
  endloop
endfacet
facet normal -0.0753368000295012 0.6664219883026543 0.741758788332199
  outer loop
    vertex 7.098757644708626 -8.861269024184262 4.039973331107116
    vertex 15.843293673737675 -18.151534542741082 13.274811783521246
    vertex 16.188637644708628 -17.951149024184268 13.129853331107114
  endloop
endfacet
facet normal 0.025144060020665004 0.7193434443899936 0.6941993843693736
  outer loop
    vertex 6.406754706564558 -9.22573448641282 4.367510807022622
    vertex 15.843293673737675 -18.151534542741082 13.274811783521246
    vertex 6.753413673737676 -9.061654542741078 4.184931783521249
  endloop
endfacet
facet normal 0.025144060020665004 0.7193434443899936 0.6941993843693736
  outer loop
    vertex 15.843293673737675 -18.151534542741082 13.274811783521246
    vertex 6.406754706564558 -9.22573448641282 4.367510807022622
    vertex 15.496634706564558 -18.315614486412823 13.457390807022621
  endloop
endfacet
facet normal 0.1252437617513195 0.7613603871187207 0.6361166253674011
  outer loop
    vertex 6.064035739766927 -9.351021570507312 4.584942689725765
    vertex 15.496634706564558 -18.315614486412823 13.457390807022621
    vertex 6.406754706564558 -9.22573448641282 4.367510807022622
  endloop
endfacet
facet normal 0.1252437617513195 0.7613603871187207 0.6361166253674011
  outer loop
    vertex 15.496634706564558 -18.315614486412823 13.457390807022621
    vertex 6.064035739766927 -9.351021570507312 4.584942689725765
    vertex 15.153915739766928 -18.44090157050731 13.674822689725763
  endloop
endfacet
facet normal 0.22344489572077933 0.791835882466905 0.5683909867460849
  outer loop
    vertex 5.730452043532953 -9.435616570540297 4.833931385926753
    vertex 15.153915739766928 -18.44090157050731 13.674822689725763
    vertex 6.064035739766927 -9.351021570507312 4.584942689725765
  endloop
endfacet
facet normal 0.22344489572077933 0.791835882466905 0.5683909867460849
  outer loop
    vertex 15.153915739766928 -18.44090157050731 13.674822689725763
    vertex 5.730452043532953 -9.435616570540297 4.833931385926753
    vertex 14.820332043533108 -18.525496570539904 13.92381138592699
  endloop
endfacet
facet normal 0.5683909867464413 0.791835882466784 0.2234448957203019
  outer loop
    vertex 4.584942689725763 -9.35102157050731 6.064035739766929
    vertex 13.923811385926747 -18.525496570540298 14.820332043532956
    vertex 4.833931385926751 -9.435616570540297 5.7304520435329565
  endloop
endfacet
facet normal 0.5683909867464413 0.791835882466784 0.2234448957203019
  outer loop
    vertex 13.923811385926747 -18.525496570540298 14.820332043532956
    vertex 4.584942689725763 -9.35102157050731 6.064035739766929
    vertex 13.674822689725763 -18.440901570507314 15.153915739766934
  endloop
endfacet
facet normal 0.6361166253674776 0.7613603871186766 0.12524376175119895
  outer loop
    vertex 4.367510807022621 -9.22573448641282 6.406754706564562
    vertex 13.674822689725763 -18.440901570507314 15.153915739766934
    vertex 4.584942689725763 -9.35102157050731 6.064035739766929
  endloop
endfacet
facet normal 0.6361166253674776 0.7613603871186766 0.12524376175119895
  outer loop
    vertex 13.674822689725763 -18.440901570507314 15.153915739766934
    vertex 4.367510807022621 -9.22573448641282 6.406754706564562
    vertex 13.45739080702262 -18.315614486412827 15.496634706564564
  endloop
endfacet
facet normal 0.6941993843694217 0.7193434443899506 0.02514406002057373
  outer loop
    vertex 4.184931783521248 -9.061654542741078 6.753413673737679
    vertex 13.45739080702262 -18.315614486412827 15.496634706564564
    vertex 4.367510807022621 -9.22573448641282 6.406754706564562
  endloop
endfacet
facet normal 0.6941993843694217 0.7193434443899506 0.02514406002057373
  outer loop
    vertex 13.45739080702262 -18.315614486412827 15.496634706564564
    vertex 4.184931783521248 -9.061654542741078 6.753413673737679
    vertex 13.274811783521246 -18.151534542741086 15.843293673737675
  endloop
endfacet
facet normal 0.7417587883322372 0.6664219883026015 -0.07533680002959213
  outer loop
    vertex 4.184931783521248 -9.061654542741078 6.753413673737679
    vertex 13.129853331107114 -17.951149024184264 16.18863764470863
    vertex 13.274811783521246 -18.151534542741086 15.843293673737675
  endloop
endfacet
facet normal 0.7417587883322372 0.6664219883026015 -0.07533680002959213
  outer loop
    vertex 13.129853331107114 -17.951149024184264 16.18863764470863
    vertex 4.184931783521248 -9.061654542741078 6.753413673737679
    vertex 4.039973331107116 -8.86126902418426 7.098757644708629
  endloop
endfacet
facet normal 0.7780738851711941 0.6033982541857847 -0.1746756309854093
  outer loop
    vertex 4.039973331107116 -8.86126902418426 7.098757644708629
    vertex 13.024712872156313 -17.717495570941946 16.527431556901753
    vertex 13.129853331107114 -17.951149024184264 16.18863764470863
  endloop
endfacet
facet normal 0.7780738851711941 0.6033982541857847 -0.1746756309854093
  outer loop
    vertex 13.024712872156313 -17.717495570941946 16.527431556901753
    vertex 4.039973331107116 -8.86126902418426 7.098757644708629
    vertex 3.9348328721563113 -8.62761557094194 7.437551556901753
  endloop
endfacet
facet normal 0.8025941750358326 0.5312276176057805 -0.27136655743005217
  outer loop
    vertex 3.9348328721563113 -8.62761557094194 7.437551556901753
    vertex 12.96098422885225 -17.454116131192055 16.854539639955703
    vertex 13.024712872156313 -17.717495570941946 16.527431556901753
  endloop
endfacet
facet normal 0.8025941750358326 0.5312276176057805 -0.27136655743005217
  outer loop
    vertex 12.96098422885225 -17.454116131192055 16.854539639955703
    vertex 3.9348328721563113 -8.62761557094194 7.437551556901753
    vertex 3.8711042288522477 -8.364236131192055 7.764659639955701
  endloop
endfacet
facet normal 0.8149479553263816 0.4510041118464489 -0.36394384347993275
  outer loop
    vertex 3.8711042288522477 -8.364236131192055 7.764659639955701
    vertex 12.939633462466011 -17.165003268767 17.165003268767
    vertex 12.96098422885225 -17.454116131192055 16.854539639955703
  endloop
endfacet
facet normal 0.8149479553263816 0.4510041118464489 -0.36394384347993275
  outer loop
    vertex 12.939633462466011 -17.165003268767 17.165003268767
    vertex 3.8711042288522477 -8.364236131192055 7.764659639955701
    vertex 3.849753462466012 -8.075123268766994 8.075123268766998
  endloop
endfacet
facet normal 0.4086273278259938 0.8161172795056115 0.40862732782591465
  outer loop
    vertex 5.11070248079628 -9.478237112542674 5.41106040666105
    vertex 14.496719684796714 -18.57655855627134 14.196361758931952
    vertex 5.411060406661047 -9.478237112542674 5.110702480796283
  endloop
endfacet
facet normal 0.4086273278259938 0.8161172795056115 0.40862732782591465
  outer loop
    vertex 14.496719684796714 -18.57655855627134 14.196361758931952
    vertex 5.11070248079628 -9.478237112542674 5.41106040666105
    vertex 14.196361758931948 -18.576558556271337 14.49671968479672
  endloop
endfacet
facet normal -0.8161172795056116 -0.4086273278259345 0.4086273278259741
  outer loop
    vertex 18.57655855627134 -14.196361758931948 14.49671968479672
    vertex 9.478237112542674 -5.411060406661044 5.110702480796285
    vertex 18.57655855627134 -14.496719684796714 14.196361758931953
  endloop
endfacet
facet normal -0.8161172795056116 -0.4086273278259345 0.4086273278259741
  outer loop
    vertex 9.478237112542674 -5.411060406661044 5.110702480796285
    vertex 18.57655855627134 -14.196361758931948 14.49671968479672
    vertex 9.478237112542674 -5.110702480796279 5.411060406661052
  endloop
endfacet
facet normal 0.4086273278259543 -0.4086273278259543 -0.8161172795056116
  outer loop
    vertex 5.4110604066610515 -5.110702480796277 9.478237112542676
    vertex 14.196361758931953 -14.49671968479671 18.57655855627134
    vertex 5.110702480796286 -5.411060406661043 9.478237112542676
  endloop
endfacet
facet normal 0.4086273278259543 -0.4086273278259543 -0.8161172795056116
  outer loop
    vertex 14.196361758931953 -14.49671968479671 18.57655855627134
    vertex 5.4110604066610515 -5.110702480796277 9.478237112542676
    vertex 14.49671968479672 -14.196361758931948 18.57655855627134
  endloop
endfacet
facet normal -0.8103079529897204 -0.3182588328376521 0.4920491201520683
  outer loop
    vertex 9.435616570540297 -5.73045204353295 4.833931385926756
    vertex 18.525496570540348 -14.820332043532934 13.923811385926724
    vertex 18.548861712927266 -14.6452373421959 14.075540944876835
  endloop
endfacet
facet normal -0.8042982861497024 -0.2774772012772678 0.5254623389625428
  outer loop
    vertex 9.435616570540297 -5.73045204353295 4.833931385926756
    vertex 18.548861712927266 -14.6452373421959 14.075540944876835
    vertex 18.57655855627134 -14.496719684796714 14.196361758931953
  endloop
endfacet
facet normal -0.8099315291161436 -0.318635017061866 0.49242526747271015
  outer loop
    vertex 9.478237112542674 -5.411060406661044 5.110702480796285
    vertex 9.435616570540297 -5.73045204353295 4.833931385926756
    vertex 18.57655855627134 -14.496719684796714 14.196361758931953
  endloop
endfacet
facet normal -0.8076573572144862 -0.5075937739090065 0.3000635833054796
  outer loop
    vertex 9.435616570540297 -4.83393138592675 5.730452043532958
    vertex 18.57655855627134 -14.196361758931948 14.49671968479672
    vertex 18.525496570540284 -13.923811385926752 14.820332043532964
  endloop
endfacet
facet normal -0.8099315291161248 -0.4924252674727221 0.3186350170618949
  outer loop
    vertex 9.435616570540297 -4.83393138592675 5.730452043532958
    vertex 9.478237112542674 -5.110702480796279 5.411060406661052
    vertex 18.57655855627134 -14.196361758931948 14.49671968479672
  endloop
endfacet
facet normal 0.4920491201522137 -0.3182588328375319 -0.8103079529896795
  outer loop
    vertex 5.110702480796286 -5.411060406661043 9.478237112542676
    vertex 13.923811385926756 -14.820332043532945 18.52549657054031
    vertex 4.833931385926758 -5.730452043532946 9.435616570540299
  endloop
endfacet
facet normal 0.4920491201522137 -0.3182588328375319 -0.8103079529896795
  outer loop
    vertex 13.923811385926756 -14.820332043532945 18.52549657054031
    vertex 5.110702480796286 -5.411060406661043 9.478237112542676
    vertex 14.048852921846269 -14.676035107998137 18.544751970155602
  endloop
endfacet
facet normal 0.5204771282977122 -0.2854086521941155 -0.8047642264487812
  outer loop
    vertex 14.196361758931953 -14.49671968479671 18.57655855627134
    vertex 14.048852921846269 -14.676035107998137 18.544751970155602
    vertex 5.110702480796286 -5.411060406661043 9.478237112542676
  endloop
endfacet
facet normal 0.3186350170618804 -0.4924252674727161 -0.8099315291161341
  outer loop
    vertex 14.49671968479672 -14.196361758931948 18.57655855627134
    vertex 5.4110604066610515 -5.110702480796277 9.478237112542676
    vertex 5.7304520435329565 -4.833931385926749 9.435616570540297
  endloop
endfacet
facet normal 0.3000635833054561 -0.5075937739090264 -0.8076573572144825
  outer loop
    vertex 14.820332043532959 -13.923811385926752 18.525496570540287
    vertex 14.49671968479672 -14.196361758931948 18.57655855627134
    vertex 5.7304520435329565 -4.833931385926749 9.435616570540297
  endloop
endfacet
facet normal 0.31825883283716566 0.8103079529896555 0.4920491201524898
  outer loop
    vertex 5.411060406661047 -9.478237112542674 5.110702480796283
    vertex 14.820332043533108 -18.525496570539904 13.92381138592699
    vertex 5.730452043532953 -9.435616570540297 4.833931385926753
  endloop
endfacet
facet normal 0.31825883283716566 0.8103079529896555 0.4920491201524898
  outer loop
    vertex 14.820332043533108 -18.525496570539904 13.92381138592699
    vertex 5.411060406661047 -9.478237112542674 5.110702480796283
    vertex 14.67603510799814 -18.544751970155595 14.048852921846263
  endloop
endfacet
facet normal 0.2854086521940554 0.8047642264486928 0.5204771282978818
  outer loop
    vertex 14.496719684796714 -18.57655855627134 14.196361758931952
    vertex 14.67603510799814 -18.544751970155595 14.048852921846263
    vertex 5.411060406661047 -9.478237112542674 5.110702480796283
  endloop
endfacet
facet normal 0.49242526747272336 0.8099315291161161 0.318635017061915
  outer loop
    vertex 14.196361758931948 -18.576558556271337 14.49671968479672
    vertex 5.11070248079628 -9.478237112542674 5.41106040666105
    vertex 4.833931385926751 -9.435616570540297 5.7304520435329565
  endloop
endfacet
facet normal 0.5075937739089814 0.807657357214499 0.3000635833054878
  outer loop
    vertex 13.923811385926747 -18.525496570540298 14.820332043532956
    vertex 14.196361758931948 -18.576558556271337 14.49671968479672
    vertex 4.833931385926751 -9.435616570540297 5.7304520435329565
  endloop
endfacet
facet normal 0.9673403111355451 -0.11690119661072162 0.2249151677481276
  outer loop
    vertex 5.856999312880727 -18.584999999999997 18.585
    vertex 5.356999312880727 -20.0 20.000000000000004
    vertex 5.466665979547395 -20.000000000000004 19.52833333333334
  endloop
endfacet
facet normal 0.9698660502210632 -0.15353356554736267 0.18917528612085666
  outer loop
    vertex 5.856999312880727 -18.584999999999997 18.585
    vertex 5.431665979547394 -19.528333333333332 20.000000000000004
    vertex 5.356999312880727 -20.0 20.000000000000004
  endloop
endfacet
facet normal -0.0 -0.0 1.0
  outer loop
    vertex 18.585000000000004 -5.856999312880713 18.585
    vertex 5.856999312880727 -18.584999999999997 18.585
    vertex 10.09964 -18.585 18.585
  endloop
endfacet
facet normal 0.006156107765170352 -0.00410408451966297 0.9999726290391349
  outer loop
    vertex 18.585000000000004 -5.856999312880713 18.585
    vertex 10.09964 -18.585 18.585
    vertex 14.196361758931953 -14.49671968479671 18.57655855627134
  endloop
endfacet
facet normal 0.0019857086228463818 -0.001985708622846706 0.9999960569534915
  outer loop
    vertex 18.585000000000004 -5.856999312880713 18.585
    vertex 14.196361758931953 -14.49671968479671 18.57655855627134
    vertex 14.49671968479672 -14.196361758931948 18.57655855627134
  endloop
endfacet
facet normal -0.00206478643425326 2.6367133959745282e-18 0.9999978683262186
  outer loop
    vertex 18.585000000000004 -5.856999312880713 18.585
    vertex 14.49671968479672 -14.196361758931948 18.57655855627134
    vertex 18.585 -10.09964 18.585
  endloop
endfacet
facet normal -2.2155612274610427e-16 -1.0 0.0
  outer loop
    vertex 5.856999312880727 -18.584999999999997 18.585
    vertex 18.584999999999997 -18.585 5.85699931288071
    vertex 18.585 -18.585 10.09964
  endloop
endfacet
facet normal 0.004104084519662351 -0.9999726290391349 0.006156107765169752
  outer loop
    vertex 5.856999312880727 -18.584999999999997 18.585
    vertex 18.585 -18.585 10.09964
    vertex 14.496719684796714 -18.57655855627134 14.196361758931952
  endloop
endfacet
facet normal 0.001985708622856454 -0.9999960569534915 0.0019857086228665093
  outer loop
    vertex 5.856999312880727 -18.584999999999997 18.585
    vertex 14.496719684796714 -18.57655855627134 14.196361758931952
    vertex 14.196361758931948 -18.576558556271337 14.49671968479672
  endloop
endfacet
facet normal -6.648912280182467e-16 -0.9999978683262186 -0.002064786434254615
  outer loop
    vertex 5.856999312880727 -18.584999999999997 18.585
    vertex 14.196361758931948 -18.576558556271337 14.49671968479672
    vertex 10.09964 -18.585 18.585
  endloop
endfacet
facet normal 1.0 2.2156022868392307e-16 -6.646724741761303e-16
  outer loop
    vertex 18.585000000000004 -5.856999312880713 18.585
    vertex 18.585 -18.585 10.09964
    vertex 18.584999999999997 -18.585 5.85699931288071
  endloop
endfacet
facet normal 0.9999726290391349 -0.004104084519663654 0.006156107765171047
  outer loop
    vertex 18.585000000000004 -5.856999312880713 18.585
    vertex 18.57655855627134 -14.496719684796714 14.196361758931953
    vertex 18.585 -18.585 10.09964
  endloop
endfacet
facet normal 0.9999960569534915 -0.0019857086228475228 0.0019857086228473606
  outer loop
    vertex 18.585000000000004 -5.856999312880713 18.585
    vertex 18.57655855627134 -14.196361758931948 14.49671968479672
    vertex 18.57655855627134 -14.496719684796714 14.196361758931953
  endloop
endfacet
facet normal 0.9999978683262186 -6.648912280182426e-16 -0.0020647864342525917
  outer loop
    vertex 18.585000000000004 -5.856999312880713 18.585
    vertex 18.585 -10.09964 18.585
    vertex 18.57655855627134 -14.196361758931948 14.49671968479672
  endloop
endfacet
facet normal 0.5773502691896255 -0.5773502691896257 0.5773502691896262
  outer loop
    vertex 10.09964 -18.585 18.585
    vertex 12.96098422885225 -17.454116131192055 16.854539639955703
    vertex 12.939633462466011 -17.165003268767 17.165003268767
  endloop
endfacet
facet normal 0.5773502691896255 -0.5773502691896257 0.5773502691896262
  outer loop
    vertex 12.96098422885225 -17.454116131192055 16.854539639955703
    vertex 10.09964 -18.585 18.585
    vertex 13.024712872156313 -17.717495570941946 16.527431556901753
  endloop
endfacet
facet normal 0.5773502691896255 -0.5773502691896257 0.5773502691896262
  outer loop
    vertex 13.024712872156313 -17.717495570941946 16.527431556901753
    vertex 10.09964 -18.585 18.585
    vertex 13.129853331107114 -17.951149024184264 16.18863764470863
  endloop
endfacet
facet normal 0.5773502691896255 -0.5773502691896257 0.5773502691896262
  outer loop
    vertex 13.129853331107114 -17.951149024184264 16.18863764470863
    vertex 10.09964 -18.585 18.585
    vertex 13.274811783521246 -18.151534542741086 15.843293673737675
  endloop
endfacet
facet normal 0.5773502691896255 -0.5773502691896257 0.5773502691896262
  outer loop
    vertex 13.274811783521246 -18.151534542741086 15.843293673737675
    vertex 10.09964 -18.585 18.585
    vertex 13.45739080702262 -18.315614486412827 15.496634706564564
  endloop
endfacet
facet normal 0.5773502691896255 -0.5773502691896257 0.5773502691896262
  outer loop
    vertex 13.45739080702262 -18.315614486412827 15.496634706564564
    vertex 10.09964 -18.585 18.585
    vertex 13.674822689725763 -18.440901570507314 15.153915739766934
  endloop
endfacet
facet normal 0.5773502691896255 -0.5773502691896257 0.5773502691896262
  outer loop
    vertex 13.674822689725763 -18.440901570507314 15.153915739766934
    vertex 10.09964 -18.585 18.585
    vertex 13.923811385926747 -18.525496570540298 14.820332043532956
  endloop
endfacet
facet normal 0.5773502691896255 -0.5773502691896257 0.5773502691896262
  outer loop
    vertex 13.923811385926747 -18.525496570540298 14.820332043532956
    vertex 10.09964 -18.585 18.585
    vertex 14.196361758931948 -18.576558556271337 14.49671968479672
  endloop
endfacet
facet normal 0.5773502691896255 -0.5773502691896257 0.5773502691896262
  outer loop
    vertex 10.09964 -18.585 18.585
    vertex 13.923811385926756 -14.820332043532945 18.52549657054031
    vertex 14.196361758931953 -14.49671968479671 18.57655855627134
  endloop
endfacet
facet normal 0.5773502691896255 -0.5773502691896257 0.5773502691896262
  outer loop
    vertex 13.923811385926756 -14.820332043532945 18.52549657054031
    vertex 10.09964 -18.585 18.585
    vertex 13.674822689725769 -15.153915739766925 18.44090157050731
  endloop
endfacet
facet normal 0.5773502691896255 -0.5773502691896257 0.5773502691896262
  outer loop
    vertex 13.674822689725769 -15.153915739766925 18.44090157050731
    vertex 10.09964 -18.585 18.585
    vertex 13.457390807022625 -15.496634706564556 18.315614486412827
  endloop
endfacet
facet normal 0.5773502691896255 -0.5773502691896257 0.5773502691896262
  outer loop
    vertex 13.457390807022625 -15.496634706564556 18.315614486412827
    vertex 10.09964 -18.585 18.585
    vertex 13.274811783521253 -15.843293673737666 18.151534542741086
  endloop
endfacet
facet normal 0.5773502691896255 -0.5773502691896257 0.5773502691896262
  outer loop
    vertex 13.274811783521253 -15.843293673737666 18.151534542741086
    vertex 10.09964 -18.585 18.585
    vertex 13.12985333110712 -16.188637644708617 17.951149024184264
  endloop
endfacet
facet normal 0.5773502691896255 -0.5773502691896257 0.5773502691896262
  outer loop
    vertex 13.12985333110712 -16.188637644708617 17.951149024184264
    vertex 10.09964 -18.585 18.585
    vertex 13.024712872156316 -16.527431556901732 17.71749557094195
  endloop
endfacet
facet normal 0.5773502691896255 -0.5773502691896257 0.5773502691896262
  outer loop
    vertex 13.024712872156316 -16.527431556901732 17.71749557094195
    vertex 10.09964 -18.585 18.585
    vertex 12.960984228852247 -16.854539639955686 17.454116131192063
  endloop
endfacet
facet normal 0.5773502691896255 -0.5773502691896257 0.5773502691896262
  outer loop
    vertex 12.960984228852247 -16.854539639955686 17.454116131192063
    vertex 10.09964 -18.585 18.585
    vertex 12.939633462466011 -17.165003268767 17.165003268767
  endloop
endfacet
facet normal 0.5773502691896255 -0.5773502691896257 0.5773502691896262
  outer loop
    vertex 14.196361758931953 -14.49671968479671 18.57655855627134
    vertex 13.923811385926756 -14.820332043532945 18.52549657054031
    vertex 14.048852921846269 -14.676035107998137 18.544751970155602
  endloop
endfacet
facet normal 0.5773502691896256 -0.5773502691896261 0.5773502691896256
  outer loop
    vertex 18.585 -18.585 10.09964
    vertex 17.454116131192055 -16.8545396399557 12.960984228852247
    vertex 17.165003268767 -17.165003268766995 12.939633462466015
  endloop
endfacet
facet normal 0.5773502691896256 -0.5773502691896261 0.5773502691896256
  outer loop
    vertex 17.454116131192055 -16.8545396399557 12.960984228852247
    vertex 18.585 -18.585 10.09964
    vertex 17.717495570941946 -16.52743155690175 13.024712872156313
  endloop
endfacet
facet normal 0.5773502691896256 -0.5773502691896261 0.5773502691896256
  outer loop
    vertex 17.717495570941946 -16.52743155690175 13.024712872156313
    vertex 18.585 -18.585 10.09964
    vertex 17.951149024184264 -16.188637644708624 13.129853331107114
  endloop
endfacet
facet normal 0.5773502691896256 -0.5773502691896261 0.5773502691896256
  outer loop
    vertex 17.951149024184264 -16.188637644708624 13.129853331107114
    vertex 18.585 -18.585 10.09964
    vertex 18.151534542741086 -15.843293673737675 13.274811783521246
  endloop
endfacet
facet normal 0.5773502691896256 -0.5773502691896261 0.5773502691896256
  outer loop
    vertex 18.151534542741086 -15.843293673737675 13.274811783521246
    vertex 18.585 -18.585 10.09964
    vertex 18.31561448641282 -15.496634706564567 13.45739080702262
  endloop
endfacet
facet normal 0.5773502691896256 -0.5773502691896261 0.5773502691896256
  outer loop
    vertex 18.31561448641282 -15.496634706564567 13.45739080702262
    vertex 18.585 -18.585 10.09964
    vertex 18.440901570507314 -15.153915739766925 13.674822689725767
  endloop
endfacet
facet normal 0.5773502691896256 -0.5773502691896261 0.5773502691896256
  outer loop
    vertex 18.440901570507314 -15.153915739766925 13.674822689725767
    vertex 18.585 -18.585 10.09964
    vertex 18.525496570540348 -14.820332043532934 13.923811385926724
  endloop
endfacet
facet normal 0.5773502691896256 -0.5773502691896261 0.5773502691896256
  outer loop
    vertex 18.525496570540348 -14.820332043532934 13.923811385926724
    vertex 18.585 -18.585 10.09964
    vertex 18.57655855627134 -14.496719684796714 14.196361758931953
  endloop
endfacet
facet normal 0.5773502691896256 -0.5773502691896261 0.5773502691896256
  outer loop
    vertex 18.525496570540348 -14.820332043532934 13.923811385926724
    vertex 18.57655855627134 -14.496719684796714 14.196361758931953
    vertex 18.548861712927266 -14.6452373421959 14.075540944876835
  endloop
endfacet
facet normal 0.5773502691896256 -0.5773502691896261 0.5773502691896256
  outer loop
    vertex 18.585 -18.585 10.09964
    vertex 14.820332043533108 -18.525496570539904 13.92381138592699
    vertex 14.496719684796714 -18.57655855627134 14.196361758931952
  endloop
endfacet
facet normal 0.5773502691896256 -0.5773502691896261 0.5773502691896256
  outer loop
    vertex 14.820332043533108 -18.525496570539904 13.92381138592699
    vertex 18.585 -18.585 10.09964
    vertex 15.153915739766928 -18.44090157050731 13.674822689725763
  endloop
endfacet
facet normal 0.5773502691896256 -0.5773502691896261 0.5773502691896256
  outer loop
    vertex 15.153915739766928 -18.44090157050731 13.674822689725763
    vertex 18.585 -18.585 10.09964
    vertex 15.496634706564558 -18.315614486412823 13.457390807022621
  endloop
endfacet
facet normal 0.5773502691896256 -0.5773502691896261 0.5773502691896256
  outer loop
    vertex 15.496634706564558 -18.315614486412823 13.457390807022621
    vertex 18.585 -18.585 10.09964
    vertex 15.843293673737675 -18.151534542741082 13.274811783521246
  endloop
endfacet
facet normal 0.5773502691896256 -0.5773502691896261 0.5773502691896256
  outer loop
    vertex 15.843293673737675 -18.151534542741082 13.274811783521246
    vertex 18.585 -18.585 10.09964
    vertex 16.188637644708628 -17.951149024184268 13.129853331107114
  endloop
endfacet
facet normal 0.5773502691896256 -0.5773502691896261 0.5773502691896256
  outer loop
    vertex 16.188637644708628 -17.951149024184268 13.129853331107114
    vertex 18.585 -18.585 10.09964
    vertex 16.527431556901753 -17.717495570941946 13.024712872156313
  endloop
endfacet
facet normal 0.5773502691896256 -0.5773502691896261 0.5773502691896256
  outer loop
    vertex 16.527431556901753 -17.717495570941946 13.024712872156313
    vertex 18.585 -18.585 10.09964
    vertex 16.8545396399557 -17.454116131192055 12.960984228852247
  endloop
endfacet
facet normal 0.5773502691896256 -0.5773502691896261 0.5773502691896256
  outer loop
    vertex 16.8545396399557 -17.454116131192055 12.960984228852247
    vertex 18.585 -18.585 10.09964
    vertex 17.165003268767 -17.165003268766995 12.939633462466015
  endloop
endfacet
facet normal 0.5773502691896256 -0.5773502691896261 0.5773502691896256
  outer loop
    vertex 14.496719684796714 -18.57655855627134 14.196361758931952
    vertex 14.820332043533108 -18.525496570539904 13.92381138592699
    vertex 14.67603510799814 -18.544751970155595 14.048852921846263
  endloop
endfacet
facet normal -0.5312276176057923 0.2713665574300376 0.80259417503583
  outer loop
    vertex 17.454116131192055 -16.8545396399557 12.960984228852247
    vertex 8.627615570941943 -7.437551556901749 3.9348328721563126
    vertex 8.364236131192056 -7.764659639955698 3.8711042288522495
  endloop
endfacet
facet normal -0.5312276176057923 0.2713665574300376 0.80259417503583
  outer loop
    vertex 8.627615570941943 -7.437551556901749 3.9348328721563126
    vertex 17.454116131192055 -16.8545396399557 12.960984228852247
    vertex 17.717495570941946 -16.52743155690175 13.024712872156313
  endloop
endfacet
facet normal -0.6033982541857539 0.1746756309854539 0.7780738851712078
  outer loop
    vertex 17.717495570941946 -16.52743155690175 13.024712872156313
    vertex 8.861269024184264 -7.098757644708624 4.039973331107118
    vertex 8.627615570941943 -7.437551556901749 3.9348328721563126
  endloop
endfacet
facet normal -0.6033982541857539 0.1746756309854539 0.7780738851712078
  outer loop
    vertex 8.861269024184264 -7.098757644708624 4.039973331107118
    vertex 17.717495570941946 -16.52743155690175 13.024712872156313
    vertex 17.951149024184264 -16.188637644708624 13.129853331107114
  endloop
endfacet
endsolid 18-12 assembly with hole
