solid 18-12 assembly
facet normal 0.0 0.0 -1.0
  outer loop
    vertex 0.0 0.0 0.0
    vertex 20.000000000000004 -20.000000000000004 -3.427689706957774e-17
    vertex -1.8476244957234487e-17 -20.000000000000004 6.581674590151598e-17
  endloop
endfacet
facet normal 0.0 0.0 -1.0
  outer loop
    vertex 20.000000000000004 -20.000000000000004 -3.427689706957774e-17
    vertex 0.0 0.0 0.0
    vertex 20.000000000000004 -1.0009364297109367e-16 -1.0009364297109372e-16
  endloop
endfacet
facet normal -1.3172217034677394e-16 -1.0 -1.1533240611369935e-17
  outer loop
    vertex 18.585 -18.585 10.09964
    vertex 5.856999312880727 -18.584999999999997 18.585
    vertex 18.584999999999997 -18.585 5.85699931288071
  endloop
endfacet
facet normal -1.3172217034677394e-16 -1.0 -1.1533240611369935e-17
  outer loop
    vertex 5.856999312880727 -18.584999999999997 18.585
    vertex 18.585 -18.585 10.09964
    vertex 10.09964 -18.585 18.585
  endloop
endfacet
facet normal -1.0 0.0 0.0
  outer loop
    vertex 0.0 0.0 20.000000000000004
    vertex -1.8476244957234487e-17 -20.000000000000004 6.581674590151598e-17
    vertex -1.8476244957234487e-17 -20.000000000000004 20.000000000000004
  endloop
endfacet
facet normal -1.0 0.0 0.0
  outer loop
    vertex -1.8476244957234487e-17 -20.000000000000004 6.581674590151598e-17
    vertex 0.0 0.0 20.000000000000004
    vertex 0.0 0.0 0.0
  endloop
endfacet
facet normal -0.0 1.0 0.0
  outer loop
    vertex 0.0 0.0 0.0
    vertex 20.000000000000004 -1.0009364297109367e-16 20.000000000000004
    vertex 20.000000000000004 -1.0009364297109367e-16 -1.0009364297109372e-16
  endloop
endfacet
facet normal -0.0 1.0 0.0
  outer loop
    vertex 20.000000000000004 -1.0009364297109367e-16 20.000000000000004
    vertex 0.0 0.0 0.0
    vertex 0.0 0.0 20.000000000000004
  endloop
endfacet
facet normal -0.0 -0.0 1.0
  outer loop
    vertex 10.09964 -18.585 18.585
    vertex 18.585000000000004 -5.856999312880713 18.585
    vertex 5.856999312880727 -18.584999999999997 18.585
  endloop
endfacet
facet normal -0.0 -0.0 1.0
  outer loop
    vertex 18.585000000000004 -5.856999312880713 18.585
    vertex 10.09964 -18.585 18.585
    vertex 18.585 -10.09964 18.585
  endloop
endfacet
facet normal 1.0 -1.5338471651101934e-16 -1.5338471651101963e-16
  outer loop
    vertex 18.585000000000004 -5.856999312880713 18.585
    vertex 18.585 -18.585 10.09964
    vertex 18.584999999999997 -18.585 5.85699931288071
  endloop
endfacet
facet normal 1.0 -1.5338471651101934e-16 -1.5338471651101963e-16
  outer loop
    vertex 18.585 -18.585 10.09964
    vertex 18.585000000000004 -5.856999312880713 18.585
    vertex 18.585 -10.09964 18.585
  endloop
endfacet
facet normal -3.2309634419494244e-17 3.078584316170043e-17 1.0
  outer loop
    vertex 5.356999312880727 -20.0 20.000000000000004
    vertex 0.0 0.0 20.000000000000004
    vertex -1.8476244957234487e-17 -20.000000000000004 20.000000000000004
  endloop
endfacet
facet normal -3.2309634419494244e-17 3.078584316170043e-17 1.0
  outer loop
    vertex 0.0 0.0 20.000000000000004
    vertex 5.356999312880727 -20.0 20.000000000000004
    vertex 5.431665979547394 -19.528333333333332 20.000000000000004
  endloop
endfacet
facet normal -3.2309634419494244e-17 3.078584316170043e-17 1.0
  outer loop
    vertex 0.0 0.0 20.000000000000004
    vertex 5.431665979547394 -19.528333333333332 20.000000000000004
    vertex 5.598332646214061 -19.05666666666667 20.000000000000007
  endloop
endfacet
facet normal -3.2309634419494244e-17 3.078584316170043e-17 1.0
  outer loop
    vertex 0.0 0.0 20.000000000000004
    vertex 5.598332646214061 -19.05666666666667 20.000000000000007
    vertex 5.856999312880727 -18.584999999999997 20.000000000000004
  endloop
endfacet
facet normal -3.2309634419494244e-17 3.078584316170043e-17 1.0
  outer loop
    vertex 0.0 0.0 20.000000000000004
    vertex 5.856999312880727 -18.584999999999997 20.000000000000004
    vertex 20.000000000000004 -1.0009364297109367e-16 20.000000000000004
  endloop
endfacet
facet normal -3.2309634419494244e-17 3.078584316170043e-17 1.0
  outer loop
    vertex 20.000000000000004 -1.0009364297109367e-16 20.000000000000004
    vertex 5.856999312880727 -18.584999999999997 20.000000000000004
    vertex 18.585000000000004 -5.856999312880713 20.000000000000004
  endloop
endfacet
facet normal -3.2309634419494244e-17 3.078584316170043e-17 1.0
  outer loop
    vertex 20.000000000000004 -1.0009364297109367e-16 20.000000000000004
    vertex 18.585000000000004 -5.856999312880713 20.000000000000004
    vertex 19.11066666666667 -5.6293326462140465 20.000000000000004
  endloop
endfacet
facet normal -3.2309634419494244e-17 3.078584316170043e-17 1.0
  outer loop
    vertex 20.000000000000004 -1.0009364297109367e-16 20.000000000000004
    vertex 19.11066666666667 -5.6293326462140465 20.000000000000004
    vertex 19.582333333333338 -5.46266597954738 20.000000000000007
  endloop
endfacet
facet normal -3.2309634419494244e-17 3.078584316170043e-17 1.0
  outer loop
    vertex 20.000000000000004 -1.0009364297109367e-16 20.000000000000004
    vertex 19.582333333333338 -5.46266597954738 20.000000000000007
    vertex 20.000000000000007 -5.356999312880713 20.000000000000004
  endloop
endfacet
facet normal 0.7071067811865478 -0.7071067811865474 0.0
  outer loop
    vertex 18.585000000000004 -5.856999312880713 18.585
    vertex 5.856999312880727 -18.584999999999997 20.000000000000004
    vertex 5.856999312880727 -18.584999999999997 18.585
  endloop
endfacet
facet normal 0.7071067811865478 -0.7071067811865474 0.0
  outer loop
    vertex 5.856999312880727 -18.584999999999997 20.000000000000004
    vertex 18.585000000000004 -5.856999312880713 18.585
    vertex 18.585000000000004 -5.856999312880713 20.000000000000004
  endloop
endfacet
facet normal 1.0 -3.6053621298398684e-17 -3.348412455601606e-17
  outer loop
    vertex 20.000000000000004 -1.0009364297109367e-16 -1.0009364297109372e-16
    vertex 20.0 -20.000000000000004 5.35699931288071
    vertex 20.000000000000004 -20.000000000000004 -3.427689706957774e-17
  endloop
endfacet
facet normal 1.0 -3.6053621298398684e-17 -3.348412455601606e-17
  outer loop
    vertex 20.0 -20.000000000000004 5.35699931288071
    vertex 20.000000000000004 -1.0009364297109367e-16 -1.0009364297109372e-16
    vertex 20.000000000000004 -19.23658317348305 5.4660470613710315
  endloop
endfacet
facet normal 1.0 -3.6053621298398684e-17 -3.348412455601606e-17
  outer loop
    vertex 20.000000000000004 -19.23658317348305 5.4660470613710315
    vertex 20.000000000000004 -1.0009364297109367e-16 -1.0009364297109372e-16
    vertex 20.000000000000007 -18.764916506816384 5.632713728037698
  endloop
endfacet
facet normal 1.0 -3.6053621298398684e-17 -3.348412455601606e-17
  outer loop
    vertex 20.000000000000007 -18.764916506816384 5.632713728037698
    vertex 20.000000000000004 -1.0009364297109367e-16 -1.0009364297109372e-16
    vertex 20.0 -18.585 5.85699931288071
  endloop
endfacet
facet normal 1.0 -3.6053621298398684e-17 -3.348412455601606e-17
  outer loop
    vertex 20.0 -18.585 5.85699931288071
    vertex 20.000000000000004 -1.0009364297109367e-16 -1.0009364297109372e-16
    vertex 20.000000000000007 -5.856999312880713 18.585
  endloop
endfacet
facet normal 1.0 -3.6053621298398684e-17 -3.348412455601606e-17
  outer loop
    vertex 20.000000000000007 -5.856999312880713 18.585
    vertex 20.000000000000004 -1.0009364297109367e-16 -1.0009364297109372e-16
    vertex 20.0 -5.598699909363098 18.974282868814566
  endloop
endfacet
facet normal 1.0 -3.6053621298398684e-17 -3.348412455601606e-17
  outer loop
    vertex 20.0 -5.598699909363098 18.974282868814566
    vertex 20.000000000000004 -1.0009364297109367e-16 -1.0009364297109372e-16
    vertex 20.000000000000004 -5.4320332426964315 19.445949535481237
  endloop
endfacet
facet normal 1.0 -3.6053621298398684e-17 -3.348412455601606e-17
  outer loop
    vertex 20.000000000000004 -5.4320332426964315 19.445949535481237
    vertex 20.000000000000004 -1.0009364297109367e-16 -1.0009364297109372e-16
    vertex 20.000000000000007 -5.356999312880713 20.000000000000004
  endloop
endfacet
facet normal 1.0 -3.6053621298398684e-17 -3.348412455601606e-17
  outer loop
    vertex 20.000000000000007 -5.356999312880713 20.000000000000004
    vertex 20.000000000000004 -1.0009364297109367e-16 -1.0009364297109372e-16
    vertex 20.000000000000004 -1.0009364297109367e-16 20.000000000000004
  endloop
endfacet
facet normal 8.696589937471867e-33 -0.7071067811865476 0.7071067811865475
  outer loop
    vertex 20.000000000000007 -5.856999312880713 18.585
    vertex 18.584999999999997 -18.585 5.85699931288071
    vertex 20.0 -18.585 5.85699931288071
  endloop
endfacet
facet normal 8.696589937471867e-33 -0.7071067811865476 0.7071067811865475
  outer loop
    vertex 18.584999999999997 -18.585 5.85699931288071
    vertex 20.000000000000007 -5.856999312880713 18.585
    vertex 18.585000000000004 -5.856999312880713 18.585
  endloop
endfacet
facet normal -9.983370530587825e-17 -1.0 1.0102019781939826e-16
  outer loop
    vertex 20.0 -20.000000000000004 5.35699931288071
    vertex -1.8476244957234487e-17 -20.000000000000004 6.581674590151598e-17
    vertex 20.000000000000004 -20.000000000000004 -3.427689706957774e-17
  endloop
endfacet
facet normal -9.983370530587825e-17 -1.0 1.0102019781939826e-16
  outer loop
    vertex -1.8476244957234487e-17 -20.000000000000004 6.581674590151598e-17
    vertex 20.0 -20.000000000000004 5.35699931288071
    vertex 19.388098474591292 -20.000000000000007 5.442340776796279
  endloop
endfacet
facet normal -9.983370530587825e-17 -1.0 1.0102019781939826e-16
  outer loop
    vertex -1.8476244957234487e-17 -20.000000000000004 6.581674590151598e-17
    vertex 19.388098474591292 -20.000000000000007 5.442340776796279
    vertex 18.916431807924624 -20.000000000000007 5.609007443462944
  endloop
endfacet
facet normal -9.983370530587825e-17 -1.0 1.0102019781939826e-16
  outer loop
    vertex -1.8476244957234487e-17 -20.000000000000004 6.581674590151598e-17
    vertex 18.916431807924624 -20.000000000000007 5.609007443462944
    vertex 18.584999999999997 -20.000000000000004 5.85699931288071
  endloop
endfacet
facet normal -9.983370530587825e-17 -1.0 1.0102019781939826e-16
  outer loop
    vertex -1.8476244957234487e-17 -20.000000000000004 6.581674590151598e-17
    vertex 18.584999999999997 -20.000000000000004 5.85699931288071
    vertex -1.8476244957234487e-17 -20.000000000000004 20.000000000000004
  endloop
endfacet
facet normal -9.983370530587825e-17 -1.0 1.0102019781939826e-16
  outer loop
    vertex -1.8476244957234487e-17 -20.000000000000004 20.000000000000004
    vertex 18.584999999999997 -20.000000000000004 5.85699931288071
    vertex 5.856999312880727 -20.0 18.585
  endloop
endfacet
facet normal -9.983370530587825e-17 -1.0 1.0102019781939826e-16
  outer loop
    vertex -1.8476244957234487e-17 -20.000000000000004 20.000000000000004
    vertex 5.856999312880727 -20.0 18.585
    vertex 5.63333264621406 -20.0 19.05666666666667
  endloop
endfacet
facet normal -9.983370530587825e-17 -1.0 1.0102019781939826e-16
  outer loop
    vertex -1.8476244957234487e-17 -20.000000000000004 20.000000000000004
    vertex 5.63333264621406 -20.0 19.05666666666667
    vertex 5.466665979547395 -20.000000000000004 19.52833333333334
  endloop
endfacet
facet normal -9.983370530587825e-17 -1.0 1.0102019781939826e-16
  outer loop
    vertex -1.8476244957234487e-17 -20.000000000000004 20.000000000000004
    vertex 5.466665979547395 -20.000000000000004 19.52833333333334
    vertex 5.356999312880727 -20.0 20.000000000000004
  endloop
endfacet
facet normal 0.707106781186548 6.723510175840189e-30 0.7071067811865471
  outer loop
    vertex 18.584999999999997 -18.585 5.85699931288071
    vertex 5.856999312880727 -20.0 18.585
    vertex 18.584999999999997 -20.000000000000004 5.85699931288071
  endloop
endfacet
facet normal 0.707106781186548 6.723510175840189e-30 0.7071067811865471
  outer loop
    vertex 5.856999312880727 -20.0 18.585
    vertex 18.584999999999997 -18.585 5.85699931288071
    vertex 5.856999312880727 -18.584999999999997 18.585
  endloop
endfacet
facet normal 0.5773502691896258 -0.5773502691896257 0.5773502691896257
  outer loop
    vertex 18.585 -10.09964 18.585
    vertex 10.09964 -18.585 18.585
    vertex 18.585 -18.585 10.09964
  endloop
endfacet
facet normal 0.8768039813040428 -0.480847978439527 -3.253087267759907e-17
  outer loop
    vertex 5.856999312880727 -18.584999999999997 20.000000000000004
    vertex 5.598332646214061 -19.05666666666667 20.000000000000007
    vertex 5.856999312880727 -18.584999999999997 18.585
  endloop
endfacet
facet normal 0.9411005544713149 -0.3325443655375698 0.061188163258910154
  outer loop
    vertex 5.856999312880727 -18.584999999999997 18.585
    vertex 5.598332646214061 -19.05666666666667 20.000000000000007
    vertex 5.431665979547394 -19.528333333333332 20.000000000000004
  endloop
endfacet
facet normal 0.9035557255930021 1.6761703238770652e-17 0.42847059496318257
  outer loop
    vertex 5.856999312880727 -18.584999999999997 18.585
    vertex 5.63333264621406 -20.0 19.05666666666667
    vertex 5.856999312880727 -20.0 18.585
  endloop
endfacet
facet normal 0.9694646486193983 -0.13366342023367767 0.20560249309943193
  outer loop
    vertex 5.856999312880727 -18.584999999999997 18.585
    vertex 5.356999312880727 -20.0 20.000000000000004
    vertex 5.466665979547395 -20.000000000000004 19.52833333333334
  endloop
endfacet
facet normal 0.9694646486193983 -0.13366342023367767 0.20560249309943193
  outer loop
    vertex 5.356999312880727 -20.0 20.000000000000004
    vertex 5.856999312880727 -18.584999999999997 18.585
    vertex 5.431665979547394 -19.528333333333332 20.000000000000004
  endloop
endfacet
facet normal 0.9421879103326943 -0.037953859285488015 0.332928590223562
  outer loop
    vertex 5.856999312880727 -18.584999999999997 18.585
    vertex 5.466665979547395 -20.000000000000004 19.52833333333334
    vertex 5.63333264621406 -20.0 19.05666666666667
  endloop
endfacet
facet normal 0.3974278021220438 -0.9176334464809147 -2.7410182581318302e-17
  outer loop
    vertex 18.585000000000004 -5.856999312880713 20.000000000000004
    vertex 18.585000000000004 -5.856999312880713 18.585
    vertex 19.11066666666667 -5.6293326462140465 20.000000000000004
  endloop
endfacet
facet normal 0.3330387480284756 -0.9424996569205915 0.02792112132764604
  outer loop
    vertex 19.582333333333338 -5.46266597954738 20.000000000000007
    vertex 19.11066666666667 -5.6293326462140465 20.000000000000004
    vertex 18.585000000000004 -5.856999312880713 18.585
  endloop
endfacet
facet normal -2.2692454463394706e-17 -0.8332560613403365 0.5528872726330293
  outer loop
    vertex 20.0 -5.598699909363098 18.974282868814566
    vertex 18.585000000000004 -5.856999312880713 18.585
    vertex 20.000000000000007 -5.856999312880713 18.585
  endloop
endfacet
facet normal 0.0801968302235689 -0.9398303218928858 0.33209552010348914
  outer loop
    vertex 20.000000000000004 -5.4320332426964315 19.445949535481237
    vertex 18.585000000000004 -5.856999312880713 18.585
    vertex 20.0 -5.598699909363098 18.974282868814566
  endloop
endfacet
facet normal 0.2110912021020106 -0.9686240902836997 0.131178794464667
  outer loop
    vertex 20.000000000000007 -5.356999312880713 20.000000000000004
    vertex 18.585000000000004 -5.856999312880713 18.585
    vertex 20.000000000000004 -5.4320332426964315 19.445949535481237
  endloop
endfacet
facet normal 0.24411261184804403 -0.964899377430908 0.09684123176711737
  outer loop
    vertex 19.582333333333338 -5.46266597954738 20.000000000000007
    vertex 18.585000000000004 -5.856999312880713 18.585
    vertex 20.000000000000007 -5.356999312880713 20.000000000000004
  endloop
endfacet
facet normal -1.5998815052273062e-17 -0.7800401504985509 0.6257294651925848
  outer loop
    vertex 18.584999999999997 -18.585 5.85699931288071
    vertex 20.000000000000007 -18.764916506816384 5.632713728037698
    vertex 20.0 -18.585 5.85699931288071
  endloop
endfacet
facet normal 0.1064788327095695 -0.33127456670692423 0.9375070237805939
  outer loop
    vertex 20.000000000000007 -18.764916506816384 5.632713728037698
    vertex 18.584999999999997 -18.585 5.85699931288071
    vertex 20.000000000000004 -19.23658317348305 5.4660470613710315
  endloop
endfacet
facet normal 0.5990998025461188 -3.0081613260427886e-17 0.8006743573945662
  outer loop
    vertex 18.916431807924624 -20.000000000000007 5.609007443462944
    vertex 18.584999999999997 -18.585 5.85699931288071
    vertex 18.584999999999997 -20.000000000000004 5.85699931288071
  endloop
endfacet
facet normal 0.33190888001025953 -0.08687924459727939 0.9393021304290444
  outer loop
    vertex 19.388098474591292 -20.000000000000007 5.442340776796279
    vertex 18.584999999999997 -18.585 5.85699931288071
    vertex 18.916431807924624 -20.000000000000007 5.609007443462944
  endloop
endfacet
facet normal 0.135133509903686 -0.20723835552580497 0.9689123791654594
  outer loop
    vertex 20.0 -20.000000000000004 5.35699931288071
    vertex 18.584999999999997 -18.585 5.85699931288071
    vertex 19.388098474591292 -20.000000000000007 5.442340776796279
  endloop
endfacet
facet normal 0.2040166799937804 -0.13843222134976377 0.9691303908022313
  outer loop
    vertex 20.000000000000004 -19.23658317348305 5.4660470613710315
    vertex 18.584999999999997 -18.585 5.85699931288071
    vertex 20.0 -20.000000000000004 5.35699931288071
  endloop
endfacet
endsolid 18-12 assembly
