solid 10-5 octahedron
facet normal -4.095798206663776e-16 -1.5287728341963213e-16 1.0
  outer loop
    vertex -8.928640687119291 -0.5640000000000056 12.599999999999996
    vertex -1.1500000000000064 2.9719999999999955 12.6
    vertex -1.1500000000000077 7.214640687119285 12.600000000000001
  endloop
endfacet
facet normal -4.095798206663776e-16 -1.5287728341963213e-16 1.0
  outer loop
    vertex -1.1500000000000064 2.9719999999999955 12.6
    vertex -8.928640687119291 -0.5640000000000056 12.599999999999996
    vertex -4.686000000000004 -0.5640000000000042 12.599999999999998
  endloop
endfacet
facet normal 0.5773502691896256 -0.5773502691896256 0.5773502691896261
  outer loop
    vertex -1.1500000000000021 -0.5640000000000042 4.821359312880715
    vertex -1.1500000000000077 7.214640687119285 12.600000000000001
    vertex -8.928640687119291 -0.5640000000000056 12.599999999999996
  endloop
endfacet
facet normal 1.0 2.775557561562887e-16 4.163336342344337e-16
  outer loop
    vertex -1.1500000000000077 7.214640687119285 12.600000000000001
    vertex -1.1500000000000035 -0.5640000000000042 9.064
    vertex -1.1500000000000021 -0.5640000000000042 4.821359312880715
  endloop
endfacet
facet normal 1.0 2.775557561562887e-16 4.163336342344337e-16
  outer loop
    vertex -1.1500000000000035 -0.5640000000000042 9.064
    vertex -1.1500000000000077 7.214640687119285 12.600000000000001
    vertex -1.150000000000005 1.2039999999999957 10.831999999999999
  endloop
endfacet
facet normal 1.0 2.775557561562887e-16 4.163336342344337e-16
  outer loop
    vertex -1.150000000000005 1.2039999999999957 10.831999999999999
    vertex -1.1500000000000077 7.214640687119285 12.600000000000001
    vertex -1.1500000000000064 2.9719999999999955 12.6
  endloop
endfacet
facet normal 0.5773502691896257 -0.5773502691896256 0.5773502691896261
  outer loop
    vertex -4.686000000000004 -0.5640000000000042 12.599999999999998
    vertex -1.150000000000005 1.2039999999999957 10.831999999999999
    vertex -1.1500000000000064 2.9719999999999955 12.6
  endloop
endfacet
facet normal 0.5773502691896257 -0.5773502691896256 0.5773502691896261
  outer loop
    vertex -1.150000000000005 1.2039999999999957 10.831999999999999
    vertex -4.686000000000004 -0.5640000000000042 12.599999999999998
    vertex -1.1500000000000035 -0.5640000000000042 9.064
  endloop
endfacet
facet normal -4.163336342344337e-16 -1.2480026039629284e-31 1.0
  outer loop
    vertex -13.750000000000005 -1.7140000000000077 13.749999999999995
    vertex -8.459899447643692e-15 12.035999999999996 13.75
    vertex -13.750000000000009 12.035999999999992 13.749999999999995
  endloop
endfacet
facet normal -4.163336342344337e-16 -1.2480026039629284e-31 1.0
  outer loop
    vertex -8.459899447643692e-15 12.035999999999996 13.75
    vertex -13.750000000000005 -1.7140000000000077 13.749999999999995
    vertex -1.1500000000000077 7.214640687119285 13.75
  endloop
endfacet
facet normal -4.163336342344337e-16 -1.2480026039629284e-31 1.0
  outer loop
    vertex -8.459899447643692e-15 12.035999999999996 13.75
    vertex -1.1500000000000077 7.214640687119285 13.75
    vertex -0.8115586514780485 7.402666232560146 13.75
  endloop
endfacet
facet normal -4.163336342344337e-16 -1.2480026039629284e-31 1.0
  outer loop
    vertex -8.459899447643692e-15 12.035999999999996 13.75
    vertex -0.8115586514780485 7.402666232560146 13.75
    vertex -0.428225318144715 7.519332899226813 13.75
  endloop
endfacet
facet normal -4.163336342344337e-16 -1.2480026039629284e-31 1.0
  outer loop
    vertex -8.459899447643692e-15 12.035999999999996 13.75
    vertex -0.428225318144715 7.519332899226813 13.75
    vertex -8.459899447643692e-15 7.564640687119285 13.75
  endloop
endfacet
facet normal -4.163336342344337e-16 -1.2480026039629284e-31 1.0
  outer loop
    vertex -1.1500000000000077 7.214640687119285 13.75
    vertex -13.750000000000005 -1.7140000000000077 13.749999999999995
    vertex -8.928640687119291 -0.5640000000000056 13.749999999999998
  endloop
endfacet
facet normal -4.163336342344337e-16 -1.2480026039629284e-31 1.0
  outer loop
    vertex -8.928640687119291 -0.5640000000000056 13.749999999999998
    vertex -13.750000000000005 -1.7140000000000077 13.749999999999995
    vertex -9.139307353785957 -0.9473333333333406 13.749999999999998
  endloop
endfacet
facet normal -4.163336342344337e-16 -1.2480026039629284e-31 1.0
  outer loop
    vertex -9.139307353785957 -0.9473333333333406 13.749999999999998
    vertex -13.750000000000005 -1.7140000000000077 13.749999999999995
    vertex -9.255974020452625 -1.3306666666666742 13.749999999999998
  endloop
endfacet
facet normal -4.163336342344337e-16 -1.2480026039629284e-31 1.0
  outer loop
    vertex -9.255974020452625 -1.3306666666666742 13.749999999999998
    vertex -13.750000000000005 -1.7140000000000077 13.749999999999995
    vertex -9.27864068711929 -1.7140000000000077 13.749999999999998
  endloop
endfacet
facet normal -9.813077866773641e-17 -0.7071067811865474 0.7071067811865478
  outer loop
    vertex -1.1500000000000021 -0.5640000000000042 4.821359312880715
    vertex -5.639932965095795e-15 7.214640687119285 12.600000000000001
    vertex -1.1500000000000077 7.214640687119285 12.600000000000001
  endloop
endfacet
facet normal -9.813077866773641e-17 -0.7071067811865474 0.7071067811865478
  outer loop
    vertex -5.639932965095795e-15 7.214640687119285 12.600000000000001
    vertex -1.1500000000000021 -0.5640000000000042 4.821359312880715
    vertex 0.0 -0.5640000000000027 4.821359312880716
  endloop
endfacet
facet normal 0.3187979786316042 0.03047939330586295 0.9473324946417229
  outer loop
    vertex 0.0 -1.7140000000000049 4.471359312880716
    vertex 0.0 -1.3306666666666713 4.459025979547383
    vertex -1.1500000000000021 -0.5640000000000042 4.821359312880715
  endloop
endfacet
facet normal 0.8296091628707742 2.3026279851478343e-16 0.5583445503278899
  outer loop
    vertex -9.150931432889653 -1.7140000000000077 12.93028788300015
    vertex -8.928640687119291 -1.7140000000000077 12.599999999999996
    vertex -8.928640687119291 -0.5640000000000056 12.599999999999996
  endloop
endfacet
facet normal 0.9518029917860971 -0.1007821535611324 0.2896791714131609
  outer loop
    vertex -9.267598099556318 -1.7140000000000077 13.313621216333482
    vertex -9.150931432889653 -1.7140000000000077 12.93028788300015
    vertex -8.928640687119291 -0.5640000000000056 12.599999999999996
  endloop
endfacet
facet normal 0.7071067811865471 1.9626155733547145e-16 0.707106781186548
  outer loop
    vertex -8.928640687119291 -1.7140000000000077 12.599999999999996
    vertex -1.1500000000000021 -0.5640000000000042 4.821359312880715
    vertex -8.928640687119291 -0.5640000000000056 12.599999999999996
  endloop
endfacet
facet normal 0.7071067811865471 1.9626155733547145e-16 0.707106781186548
  outer loop
    vertex -1.1500000000000021 -0.5640000000000042 4.821359312880715
    vertex -8.928640687119291 -1.7140000000000077 12.599999999999996
    vertex -1.1500000000000021 -1.7140000000000049 4.821359312880715
  endloop
endfacet
facet normal 0.9696279456975604 -0.057334522006464696 0.2377696353797499
  outer loop
    vertex -9.27864068711929 -1.7140000000000077 13.749999999999998
    vertex -8.928640687119291 -0.5640000000000056 12.599999999999996
    vertex -9.255974020452625 -1.3306666666666742 13.749999999999998
  endloop
endfacet
facet normal 0.9629170466354112 -0.2686950444591078 0.02436666538645213
  outer loop
    vertex -9.27864068711929 -1.7140000000000077 13.749999999999998
    vertex -9.267598099556318 -1.7140000000000077 13.313621216333482
    vertex -8.928640687119291 -0.5640000000000056 12.599999999999996
  endloop
endfacet
facet normal 1.5571388373242394e-17 -0.8489094074387047 0.5285383788922685
  outer loop
    vertex -5.639932965095795e-15 7.453307353785951 12.983333333333336
    vertex -1.1500000000000077 7.214640687119285 12.600000000000001
    vertex -5.639932965095795e-15 7.214640687119285 12.600000000000001
  endloop
endfacet
facet normal 1.0 2.775557561562887e-16 4.163336342344337e-16
  outer loop
    vertex -8.459899447643692e-15 12.035999999999996 13.75
    vertex 0.0 -1.7140000000000049 8.465450562766897e-17
    vertex -2.8199664825478975e-15 12.035999999999996 8.465450562766897e-17
  endloop
endfacet
facet normal 1.0 2.775557561562887e-16 4.163336342344337e-16
  outer loop
    vertex 0.0 -1.7140000000000049 8.465450562766897e-17
    vertex -8.459899447643692e-15 12.035999999999996 13.75
    vertex 0.0 -0.5640000000000027 4.821359312880716
  endloop
endfacet
facet normal 1.0 2.775557561562887e-16 4.163336342344337e-16
  outer loop
    vertex 0.0 -1.7140000000000049 8.465450562766897e-17
    vertex 0.0 -0.5640000000000027 4.821359312880716
    vertex 0.0 -0.9473333333333377 4.57569264621405
  endloop
endfacet
facet normal 1.0 2.775557561562887e-16 4.163336342344337e-16
  outer loop
    vertex 0.0 -1.7140000000000049 8.465450562766897e-17
    vertex 0.0 -0.9473333333333377 4.57569264621405
    vertex 0.0 -1.3306666666666713 4.459025979547383
  endloop
endfacet
facet normal 1.0 2.775557561562887e-16 4.163336342344337e-16
  outer loop
    vertex 0.0 -0.5640000000000027 4.821359312880716
    vertex -8.459899447643692e-15 12.035999999999996 13.75
    vertex -5.639932965095795e-15 7.214640687119285 12.600000000000001
  endloop
endfacet
facet normal 1.0 2.775557561562887e-16 4.163336342344337e-16
  outer loop
    vertex -5.639932965095795e-15 7.214640687119285 12.600000000000001
    vertex -8.459899447643692e-15 12.035999999999996 13.75
    vertex -5.639932965095795e-15 7.453307353785951 12.983333333333336
  endloop
endfacet
facet normal 1.0 2.775557561562887e-16 4.163336342344337e-16
  outer loop
    vertex -5.639932965095795e-15 7.453307353785951 12.983333333333336
    vertex -8.459899447643692e-15 12.035999999999996 13.75
    vertex -8.459899447643692e-15 7.569974020452618 13.366666666666667
  endloop
endfacet
facet normal 1.0 2.775557561562887e-16 4.163336342344337e-16
  outer loop
    vertex -8.459899447643692e-15 7.569974020452618 13.366666666666667
    vertex -8.459899447643692e-15 12.035999999999996 13.75
    vertex -8.459899447643692e-15 7.564640687119285 13.75
  endloop
endfacet
facet normal 1.0 2.775557561562887e-16 4.163336342344337e-16
  outer loop
    vertex 0.0 -1.7140000000000049 4.471359312880716
    vertex 0.0 -1.7140000000000049 8.465450562766897e-17
    vertex 0.0 -1.3306666666666713 4.459025979547383
  endloop
endfacet
facet normal -0.06896792925562296 -0.35295352030818805 0.933095513458429
  outer loop
    vertex 0.0 -1.7140000000000049 4.471359312880716
    vertex -1.1500000000000021 -0.5640000000000042 4.821359312880715
    vertex -0.3833333333333336 -1.7140000000000049 4.443025979547382
  endloop
endfacet
facet normal 0.953762254366393 -0.2902754687202048 0.07795969731342818
  outer loop
    vertex -9.255974020452625 -1.3306666666666742 13.749999999999998
    vertex -8.928640687119291 -0.5640000000000056 12.599999999999996
    vertex -9.139307353785957 -0.9473333333333406 13.749999999999998
  endloop
endfacet
facet normal -2.775557561562887e-16 1.0 9.244463733058863e-33
  outer loop
    vertex -8.459899447643692e-15 12.035999999999996 13.75
    vertex -13.750000000000004 12.035999999999992 -5.639932965095795e-15
    vertex -13.750000000000009 12.035999999999992 13.749999999999995
  endloop
endfacet
facet normal -2.775557561562887e-16 1.0 9.244463733058863e-33
  outer loop
    vertex -13.750000000000004 12.035999999999992 -5.639932965095795e-15
    vertex -8.459899447643692e-15 12.035999999999996 13.75
    vertex -2.8199664825478975e-15 12.035999999999996 8.465450562766897e-17
  endloop
endfacet
facet normal 0.7071067811865479 -0.7071067811865472 2.9439233600321025e-16
  outer loop
    vertex -1.1500000000000077 7.214640687119285 12.600000000000001
    vertex -8.928640687119291 -0.5640000000000056 13.749999999999998
    vertex -8.928640687119291 -0.5640000000000056 12.599999999999996
  endloop
endfacet
facet normal 0.7071067811865479 -0.7071067811865472 2.9439233600321025e-16
  outer loop
    vertex -8.928640687119291 -0.5640000000000056 13.749999999999998
    vertex -1.1500000000000077 7.214640687119285 12.600000000000001
    vertex -1.1500000000000077 7.214640687119285 13.75
  endloop
endfacet
facet normal 4.163336342344337e-16 1.2480026039629284e-31 -1.0
  outer loop
    vertex 0.0 -1.7140000000000049 8.465450562766897e-17
    vertex -13.750000000000004 12.035999999999992 -5.639932965095795e-15
    vertex -2.8199664825478975e-15 12.035999999999996 8.465450562766897e-17
  endloop
endfacet
facet normal 4.163336342344337e-16 1.2480026039629284e-31 -1.0
  outer loop
    vertex -13.750000000000004 12.035999999999992 -5.639932965095795e-15
    vertex 0.0 -1.7140000000000049 8.465450562766897e-17
    vertex -13.75 -1.7140000000000077 -5.639932965095795e-15
  endloop
endfacet
facet normal 0.2904360618591624 -0.9542899175372448 0.07055244332055066
  outer loop
    vertex -0.428225318144715 7.519332899226813 13.75
    vertex -0.8115586514780485 7.402666232560146 13.75
    vertex -1.1500000000000077 7.214640687119285 12.600000000000001
  endloop
endfacet
facet normal -1.0 -2.775557561562887e-16 -4.163336342344337e-16
  outer loop
    vertex -13.750000000000005 -1.7140000000000077 13.749999999999995
    vertex -13.750000000000004 12.035999999999992 -5.639932965095795e-15
    vertex -13.75 -1.7140000000000077 -5.639932965095795e-15
  endloop
endfacet
facet normal -1.0 -2.775557561562887e-16 -4.163336342344337e-16
  outer loop
    vertex -13.750000000000004 12.035999999999992 -5.639932965095795e-15
    vertex -13.750000000000005 -1.7140000000000077 13.749999999999995
    vertex -13.750000000000009 12.035999999999992 13.749999999999995
  endloop
endfacet
facet normal 2.775557561562887e-16 -1.0 -9.244463733058863e-33
  outer loop
    vertex -1.1500000000000021 -0.5640000000000042 4.821359312880715
    vertex -4.686000000000004 -0.5640000000000042 12.599999999999998
    vertex -8.928640687119291 -0.5640000000000056 12.599999999999996
  endloop
endfacet
facet normal 2.775557561562887e-16 -1.0 -9.244463733058863e-33
  outer loop
    vertex -4.686000000000004 -0.5640000000000042 12.599999999999998
    vertex -1.1500000000000021 -0.5640000000000042 4.821359312880715
    vertex -1.1500000000000035 -0.5640000000000042 9.064
  endloop
endfacet
facet normal 2.775557561562887e-16 -1.0 -9.244463733058863e-33
  outer loop
    vertex -13.75 -1.7140000000000077 -5.639932965095795e-15
    vertex -9.27864068711929 -1.7140000000000077 13.749999999999998
    vertex -13.750000000000005 -1.7140000000000077 13.749999999999995
  endloop
endfacet
facet normal 2.775557561562887e-16 -1.0 -9.244463733058863e-33
  outer loop
    vertex -9.27864068711929 -1.7140000000000077 13.749999999999998
    vertex -13.75 -1.7140000000000077 -5.639932965095795e-15
    vertex -9.267598099556318 -1.7140000000000077 13.313621216333482
  endloop
endfacet
facet normal 2.775557561562887e-16 -1.0 -9.244463733058863e-33
  outer loop
    vertex -9.267598099556318 -1.7140000000000077 13.313621216333482
    vertex -13.75 -1.7140000000000077 -5.639932965095795e-15
    vertex -9.150931432889653 -1.7140000000000077 12.93028788300015
  endloop
endfacet
facet normal 2.775557561562887e-16 -1.0 -9.244463733058863e-33
  outer loop
    vertex -9.150931432889653 -1.7140000000000077 12.93028788300015
    vertex -13.75 -1.7140000000000077 -5.639932965095795e-15
    vertex -8.928640687119291 -1.7140000000000077 12.599999999999996
  endloop
endfacet
facet normal 2.775557561562887e-16 -1.0 -9.244463733058863e-33
  outer loop
    vertex -8.928640687119291 -1.7140000000000077 12.599999999999996
    vertex -13.75 -1.7140000000000077 -5.639932965095795e-15
    vertex 0.0 -1.7140000000000049 8.465450562766897e-17
  endloop
endfacet
facet normal 2.775557561562887e-16 -1.0 -9.244463733058863e-33
  outer loop
    vertex -8.928640687119291 -1.7140000000000077 12.599999999999996
    vertex 0.0 -1.7140000000000049 8.465450562766897e-17
    vertex -1.1500000000000021 -1.7140000000000049 4.821359312880715
  endloop
endfacet
facet normal 2.775557561562887e-16 -1.0 -9.244463733058863e-33
  outer loop
    vertex -1.1500000000000021 -1.7140000000000049 4.821359312880715
    vertex 0.0 -1.7140000000000049 8.465450562766897e-17
    vertex -0.7666666666666672 -1.7140000000000049 4.5596926462140495
  endloop
endfacet
facet normal 2.775557561562887e-16 -1.0 -9.244463733058863e-33
  outer loop
    vertex -0.7666666666666672 -1.7140000000000049 4.5596926462140495
    vertex 0.0 -1.7140000000000049 8.465450562766897e-17
    vertex -0.3833333333333336 -1.7140000000000049 4.443025979547382
  endloop
endfacet
facet normal 2.775557561562887e-16 -1.0 -9.244463733058863e-33
  outer loop
    vertex -0.3833333333333336 -1.7140000000000049 4.443025979547382
    vertex 0.0 -1.7140000000000049 8.465450562766897e-17
    vertex 0.0 -1.7140000000000049 4.471359312880716
  endloop
endfacet
facet normal 0.8763767568513627 -0.48162618289570575 4.0212903284619143e-16
  outer loop
    vertex -9.139307353785957 -0.9473333333333406 13.749999999999998
    vertex -8.928640687119291 -0.5640000000000056 12.599999999999996
    vertex -8.928640687119291 -0.5640000000000056 13.749999999999998
  endloop
endfacet
facet normal 0.4856480115851358 -0.8741544536541607 2.0219160162196586e-16
  outer loop
    vertex -0.8115586514780485 7.402666232560146 13.75
    vertex -1.1500000000000077 7.214640687119285 13.75
    vertex -1.1500000000000077 7.214640687119285 12.600000000000001
  endloop
endfacet
facet normal 0.303245410333521 -0.9528202783703547 -0.013256629959934582
  outer loop
    vertex -8.459899447643692e-15 7.564640687119285 13.75
    vertex -1.1500000000000077 7.214640687119285 12.600000000000001
    vertex -8.459899447643692e-15 7.569974020452618 13.366666666666667
  endloop
endfacet
facet normal 0.10322357190188308 -0.9756147667730566 0.19370266146383022
  outer loop
    vertex -8.459899447643692e-15 7.564640687119285 13.75
    vertex -0.428225318144715 7.519332899226813 13.75
    vertex -1.1500000000000077 7.214640687119285 12.600000000000001
  endloop
endfacet
facet normal 0.28906622850080266 -0.11975600895033232 0.9497890365026381
  outer loop
    vertex -0.3833333333333336 -1.7140000000000049 4.443025979547382
    vertex -1.1500000000000021 -0.5640000000000042 4.821359312880715
    vertex -0.7666666666666672 -1.7140000000000049 4.5596926462140495
  endloop
endfacet
facet normal -1.8286607130023954e-16 -0.5395729758362784 0.8419388361081718
  outer loop
    vertex 0.0 -0.9473333333333377 4.57569264621405
    vertex 0.0 -0.5640000000000027 4.821359312880716
    vertex -1.1500000000000021 -0.5640000000000042 4.821359312880715
  endloop
endfacet
facet normal 0.10097192970281103 -0.9517845832642164 0.28967356881954676
  outer loop
    vertex -8.459899447643692e-15 7.569974020452618 13.366666666666667
    vertex -1.1500000000000077 7.214640687119285 12.600000000000001
    vertex -5.639932965095795e-15 7.453307353785951 12.983333333333336
  endloop
endfacet
facet normal 0.10670121185048947 -0.28949941199745566 0.9512123537059244
  outer loop
    vertex 0.0 -1.3306666666666713 4.459025979547383
    vertex 0.0 -0.9473333333333377 4.57569264621405
    vertex -1.1500000000000021 -0.5640000000000042 4.821359312880715
  endloop
endfacet
facet normal 0.5637824485268357 1.2136245218959784e-16 0.8259233322367676
  outer loop
    vertex -0.7666666666666672 -1.7140000000000049 4.5596926462140495
    vertex -1.1500000000000021 -0.5640000000000042 4.821359312880715
    vertex -1.1500000000000021 -1.7140000000000049 4.821359312880715
  endloop
endfacet
facet normal 0.5773502691896256 -0.5773502691896255 0.5773502691896264
  outer loop
    vertex -1.1500000000000021 -0.5640000000000042 4.821359312880715
    vertex -1.1500000000000077 7.214640687119285 12.600000000000001
    vertex -8.928640687119291 -0.5640000000000056 12.599999999999996
  endloop
endfacet
endsolid 10-5 octahedron
