solid 14-8 buckle
facet normal 0.0 0.0 -1.0
  outer loop
    vertex 0.0 2.6008086119487577 -9.999999999999998
    vertex 3.15 -1.5991913880512405 -9.999999999999998
    vertex 0.0 -8.59919138805124 -9.999999999999998
  endloop
endfacet
facet normal 0.0 0.0 -1.0
  outer loop
    vertex 3.15 -1.5991913880512405 -9.999999999999998
    vertex 0.0 2.6008086119487577 -9.999999999999998
    vertex 6.3 2.6008086119487577 -9.999999999999998
  endloop
endfacet
facet normal 0.0 0.0 -1.0
  outer loop
    vertex 25.451999999999995 2.6008086119487577 -9.999999999999998
    vertex 22.301999999999996 -1.5991913880512405 -9.999999999999998
    vertex 19.151999999999997 2.6008086119487577 -9.999999999999998
  endloop
endfacet
facet normal 0.0 0.0 -1.0
  outer loop
    vertex 3.15 -1.5991913880512405 -9.999999999999998
    vertex 25.451999999999995 -8.59919138805124 -9.999999999999998
    vertex 0.0 -8.59919138805124 -9.999999999999998
  endloop
endfacet
facet normal 0.0 0.0 -1.0
  outer loop
    vertex 25.451999999999995 -8.59919138805124 -9.999999999999998
    vertex 3.15 -1.5991913880512405 -9.999999999999998
    vertex 6.3 -1.5991913880512405 -9.999999999999998
  endloop
endfacet
facet normal 0.0 0.0 -1.0
  outer loop
    vertex 25.451999999999995 -8.59919138805124 -9.999999999999998
    vertex 6.3 -1.5991913880512405 -9.999999999999998
    vertex 22.301999999999996 -1.5991913880512405 -9.999999999999998
  endloop
endfacet
facet normal 0.0 0.0 -1.0
  outer loop
    vertex 25.451999999999995 -8.59919138805124 -9.999999999999998
    vertex 22.301999999999996 -1.5991913880512405 -9.999999999999998
    vertex 25.451999999999995 2.6008086119487577 -9.999999999999998
  endloop
endfacet
facet normal 0.7999999999999999 -0.6 0.0
  outer loop
    vertex 6.3 2.6008086119487577 -9.999999999999998
    vertex 3.15 -1.5991913880512405 25.0
    vertex 3.15 -1.5991913880512405 -9.999999999999998
  endloop
endfacet
facet normal 0.7999999999999999 -0.6 0.0
  outer loop
    vertex 3.15 -1.5991913880512405 25.0
    vertex 6.3 2.6008086119487577 -9.999999999999998
    vertex 6.3 2.6008086119487577 25.0
  endloop
endfacet
facet normal 0.0 0.0 1.0
  outer loop
    vertex 6.3 2.6008086119487577 25.0
    vertex 0.0 2.6008086119487577 25.0
    vertex 3.15 -1.5991913880512405 25.0
  endloop
endfacet
facet normal 0.0 0.0 1.0
  outer loop
    vertex 0.0 -8.59919138805124 25.0
    vertex 3.15 -1.5991913880512405 25.0
    vertex 0.0 2.6008086119487577 25.0
  endloop
endfacet
facet normal 0.0 0.0 1.0
  outer loop
    vertex 3.15 -1.5991913880512405 25.0
    vertex 0.0 -8.59919138805124 25.0
    vertex 25.451999999999995 -8.59919138805124 25.0
  endloop
endfacet
facet normal 0.0 0.0 1.0
  outer loop
    vertex 3.15 -1.5991913880512405 25.0
    vertex 25.451999999999995 -8.59919138805124 25.0
    vertex 6.3 -1.5991913880512405 25.0
  endloop
endfacet
facet normal 0.0 0.0 1.0
  outer loop
    vertex 6.3 -1.5991913880512405 25.0
    vertex 25.451999999999995 -8.59919138805124 25.0
    vertex 22.301999999999996 -1.5991913880512405 25.0
  endloop
endfacet
facet normal 0.0 0.0 1.0
  outer loop
    vertex 22.301999999999996 -1.5991913880512405 25.0
    vertex 25.451999999999995 2.6008086119487577 25.0
    vertex 19.151999999999997 2.6008086119487577 25.0
  endloop
endfacet
facet normal 0.0 0.0 1.0
  outer loop
    vertex 25.451999999999995 2.6008086119487577 25.0
    vertex 22.301999999999996 -1.5991913880512405 25.0
    vertex 25.451999999999995 -8.59919138805124 25.0
  endloop
endfacet
facet normal 0.0 1.0 0.0
  outer loop
    vertex 19.151999999999997 2.6008086119487577 25.0
    vertex 25.451999999999995 2.6008086119487577 -9.999999999999998
    vertex 19.151999999999997 2.6008086119487577 -9.999999999999998
  endloop
endfacet
facet normal 0.0 1.0 0.0
  outer loop
    vertex 25.451999999999995 2.6008086119487577 -9.999999999999998
    vertex 19.151999999999997 2.6008086119487577 25.0
    vertex 25.451999999999995 2.6008086119487577 25.0
  endloop
endfacet
facet normal 0.0 1.0 0.0
  outer loop
    vertex 6.3 -1.5991913880512405 25.0
    vertex 22.301999999999996 -1.5991913880512405 -9.999999999999998
    vertex 6.3 -1.5991913880512405 -9.999999999999998
  endloop
endfacet
facet normal 0.0 1.0 0.0
  outer loop
    vertex 22.301999999999996 -1.5991913880512405 -9.999999999999998
    vertex 6.3 -1.5991913880512405 25.0
    vertex 22.301999999999996 -1.5991913880512405 25.0
  endloop
endfacet
facet normal -0.8 -0.5999999999999998 -0.0
  outer loop
    vertex 19.151999999999997 2.6008086119487577 25.0
    vertex 22.301999999999996 -1.5991913880512405 -9.999999999999998
    vertex 22.301999999999996 -1.5991913880512405 25.0
  endloop
endfacet
facet normal -0.8 -0.5999999999999998 -0.0
  outer loop
    vertex 22.301999999999996 -1.5991913880512405 -9.999999999999998
    vertex 19.151999999999997 2.6008086119487577 25.0
    vertex 19.151999999999997 2.6008086119487577 -9.999999999999998
  endloop
endfacet
facet normal -1.0 0.0 0.0
  outer loop
    vertex 0.0 2.6008086119487577 25.0
    vertex 0.0 -8.59919138805124 -9.999999999999998
    vertex 0.0 -8.59919138805124 25.0
  endloop
endfacet
facet normal -1.0 0.0 0.0
  outer loop
    vertex 0.0 -8.59919138805124 -9.999999999999998
    vertex 0.0 2.6008086119487577 25.0
    vertex 0.0 2.6008086119487577 -9.999999999999998
  endloop
endfacet
facet normal 1.0 0.0 0.0
  outer loop
    vertex 25.451999999999995 2.6008086119487577 -9.999999999999998
    vertex 25.451999999999995 -8.59919138805124 25.0
    vertex 25.451999999999995 -8.59919138805124 -9.999999999999998
  endloop
endfacet
facet normal 1.0 0.0 0.0
  outer loop
    vertex 25.451999999999995 -8.59919138805124 25.0
    vertex 25.451999999999995 2.6008086119487577 -9.999999999999998
    vertex 25.451999999999995 2.6008086119487577 25.0
  endloop
endfacet
facet normal 0.0 1.0 0.0
  outer loop
    vertex 0.0 2.6008086119487577 25.0
    vertex 6.3 2.6008086119487577 -9.999999999999998
    vertex 0.0 2.6008086119487577 -9.999999999999998
  endloop
endfacet
facet normal 0.0 1.0 0.0
  outer loop
    vertex 6.3 2.6008086119487577 -9.999999999999998
    vertex 0.0 2.6008086119487577 25.0
    vertex 6.3 2.6008086119487577 25.0
  endloop
endfacet
facet normal -0.0 -1.0 -0.0
  outer loop
    vertex 25.451999999999995 -8.59919138805124 25.0
    vertex 0.0 -8.59919138805124 -9.999999999999998
    vertex 25.451999999999995 -8.59919138805124 -9.999999999999998
  endloop
endfacet
facet normal -0.0 -1.0 -0.0
  outer loop
    vertex 0.0 -8.59919138805124 -9.999999999999998
    vertex 25.451999999999995 -8.59919138805124 25.0
    vertex 0.0 -8.59919138805124 25.0
  endloop
endfacet
facet normal 0.0 1.0 0.0
  outer loop
    vertex 3.15 -1.5991913880512405 25.0
    vertex 6.3 -1.5991913880512405 -9.999999999999998
    vertex 3.15 -1.5991913880512405 -9.999999999999998
  endloop
endfacet
facet normal 0.0 1.0 0.0
  outer loop
    vertex 6.3 -1.5991913880512405 -9.999999999999998
    vertex 3.15 -1.5991913880512405 25.0
    vertex 6.3 -1.5991913880512405 25.0
  endloop
endfacet
endsolid 14-8 buckle
