solid 14-8 assembly  fin2.8
facet normal 0.06279563224117526 -0.9596262904685827 0.2741789401338814
  outer loop
    vertex 14.149999999999999 10.267729773167996 13.468017607656854
    vertex 12.75 9.89954068711929 12.5
    vertex 14.149999999999999 10.134396439834662 13.001350940990188
  endloop
endfacet
facet normal 0.0 1.0 0.0
  outer loop
    vertex 0.4000000000000001 12.35 13.9
    vertex 14.149999999999999 12.35 0.15000000000000008
    vertex 0.4000000000000001 12.35 0.15000000000000008
  endloop
endfacet
facet normal 0.0 1.0 0.0
  outer loop
    vertex 14.149999999999999 12.35 0.15000000000000008
    vertex 0.4000000000000001 12.35 13.9
    vertex 14.149999999999999 12.35 13.9
  endloop
endfacet
facet normal 0.0 -0.9055647670462583 0.4242080299622534
  outer loop
    vertex 14.149999999999999 10.134396439834662 13.001350940990188
    vertex 12.75 9.89954068711929 12.5
    vertex 14.149999999999999 9.89954068711929 12.5
  endloop
endfacet
facet normal 0.8523474003133391 -0.5229760120493985 -3.300072327142091e-17
  outer loop
    vertex 2.85045931288073 7.049916206369744e-16 13.9
    vertex 2.5641259795473967 -0.46666666666666595 13.9
    vertex 2.85045931288073 7.049916206369744e-16 12.5
  endloop
endfacet
facet normal 1.0 0.0 0.0
  outer loop
    vertex 12.75 9.89954068711929 12.5
    vertex 12.75 0.0 6.8431
    vertex 12.75 0.0 2.6006672497880894
  endloop
endfacet
facet normal 1.0 0.0 0.0
  outer loop
    vertex 12.75 0.0 6.8431
    vertex 12.75 9.89954068711929 12.5
    vertex 12.75 5.6569 12.5
  endloop
endfacet
facet normal 0.1287014338870947 -0.27243637871335336 0.953527325496737
  outer loop
    vertex 14.149999999999999 -0.32566417461289765 2.318656688937032
    vertex 12.75 0.0 2.6006672497880894
    vertex 14.149999999999999 -0.7923308412795643 2.185323355603699
  endloop
endfacet
facet normal 1.5025069746267445e-17 -0.6546233112989028 0.7559552369711185
  outer loop
    vertex 14.149999999999999 0.0 2.6006672497880894
    vertex 12.75 0.0 2.6006672497880894
    vertex 14.149999999999999 -0.32566417461289765 2.318656688937032
  endloop
endfacet
facet normal 0.27051813054889123 -0.9468134569211155 0.17425331800978663
  outer loop
    vertex 13.185776172061615 10.281706781160883 13.9
    vertex 12.75 9.89954068711929 12.5
    vertex 13.652442838728282 10.415040114494218 13.9
  endloop
endfacet
facet normal 1.0 0.0 0.0
  outer loop
    vertex 14.149999999999999 12.35 0.15000000000000008
    vertex 14.149999999999999 -1.4 2.2006672497880895
    vertex 14.149999999999999 -1.4 0.1500000000000001
  endloop
endfacet
facet normal 1.0 0.0 0.0
  outer loop
    vertex 14.149999999999999 -1.4 2.2006672497880895
    vertex 14.149999999999999 12.35 0.15000000000000008
    vertex 14.149999999999999 -0.7923308412795643 2.185323355603699
  endloop
endfacet
facet normal 1.0 0.0 0.0
  outer loop
    vertex 14.149999999999999 -0.7923308412795643 2.185323355603699
    vertex 14.149999999999999 12.35 0.15000000000000008
    vertex 14.149999999999999 -0.32566417461289765 2.318656688937032
  endloop
endfacet
facet normal 1.0 0.0 0.0
  outer loop
    vertex 14.149999999999999 -0.32566417461289765 2.318656688937032
    vertex 14.149999999999999 12.35 0.15000000000000008
    vertex 14.149999999999999 0.0 2.6006672497880894
  endloop
endfacet
facet normal 1.0 0.0 0.0
  outer loop
    vertex 14.149999999999999 0.0 2.6006672497880894
    vertex 14.149999999999999 12.35 0.15000000000000008
    vertex 14.149999999999999 9.89954068711929 12.5
  endloop
endfacet
facet normal 1.0 0.0 0.0
  outer loop
    vertex 14.149999999999999 9.89954068711929 12.5
    vertex 14.149999999999999 12.35 0.15000000000000008
    vertex 14.149999999999999 10.134396439834662 13.001350940990188
  endloop
endfacet
facet normal 1.0 0.0 0.0
  outer loop
    vertex 14.149999999999999 10.134396439834662 13.001350940990188
    vertex 14.149999999999999 12.35 0.15000000000000008
    vertex 14.149999999999999 10.267729773167996 13.468017607656854
  endloop
endfacet
facet normal 1.0 0.0 0.0
  outer loop
    vertex 14.149999999999999 10.267729773167996 13.468017607656854
    vertex 14.149999999999999 12.35 0.15000000000000008
    vertex 14.149999999999999 10.299540687119292 13.9
  endloop
endfacet
facet normal 1.0 0.0 0.0
  outer loop
    vertex 14.149999999999999 10.299540687119292 13.9
    vertex 14.149999999999999 12.35 0.15000000000000008
    vertex 14.149999999999999 12.35 13.9
  endloop
endfacet
facet normal 0.6593464470665085 -0.7518392532588146 -3.338246608348245e-17
  outer loop
    vertex 12.75 9.89954068711929 13.9
    vertex 12.75 9.89954068711929 12.5
    vertex 13.185776172061615 10.281706781160883 13.9
  endloop
endfacet
facet normal 0.979819573039614 -0.15957061618073787 0.12037783325915187
  outer loop
    vertex 2.85045931288073 7.049916206369744e-16 12.5
    vertex 2.45045931288073 -1.3999999999999992 13.9
    vertex 2.507792646214063 -1.3999999999999992 13.433333333333335
  endloop
endfacet
facet normal 0.5773502691896258 -0.577350269189626 0.5773502691896257
  outer loop
    vertex 7.093099999999999 0.0 12.5
    vertex 12.75 0.0 6.8431
    vertex 12.75 5.6569 12.5
  endloop
endfacet
facet normal 0.2968527974033282 0.02410451861851032 0.9546189757468623
  outer loop
    vertex 14.149999999999999 -0.7923308412795643 2.185323355603699
    vertex 12.75 0.0 2.6006672497880894
    vertex 14.149999999999999 -1.4 2.2006672497880895
  endloop
endfacet
facet normal 0.9494718324368433 0.040013455795552696 0.3112911222060795
  outer loop
    vertex 2.85045931288073 7.049916206369744e-16 12.5
    vertex 2.430792646214063 -0.9333333333333326 13.9
    vertex 2.45045931288073 -1.3999999999999992 13.9
  endloop
endfacet
facet normal 0.5773472739725477 -0.5773432605328946 0.577360272926458
  outer loop
    vertex 12.75 9.89954068711929 12.5
    vertex 2.85045931288073 7.049916206369744e-16 12.5
    vertex 12.75 0.0 2.6006672497880894
  endloop
endfacet
facet normal 0.13559207779212432 -0.14445843499818187 0.9801767947660721
  outer loop
    vertex 14.149999999999999 -1.4 2.2006672497880895
    vertex 12.75 0.0 2.6006672497880894
    vertex 13.653114762223085 -1.4000000000000004 2.269403524890873
  endloop
endfacet
facet normal 0.41301574459899787 -2.015635064496021e-17 0.9107238850021095
  outer loop
    vertex 13.186448095556417 -1.4000000000000004 2.4027368582242064
    vertex 12.75 0.0 2.6006672497880894
    vertex 12.75 -1.4 2.6006672497880894
  endloop
endfacet
facet normal -5.895612134404871e-17 -1.0 -5.502843399346183e-18
  outer loop
    vertex 12.75 0.0 6.8431
    vertex 2.85045931288073 7.049916206369744e-16 12.5
    vertex 12.75 0.0 2.6006672497880894
  endloop
endfacet
facet normal -5.895612134404871e-17 -1.0 -5.502843399346183e-18
  outer loop
    vertex 2.85045931288073 7.049916206369744e-16 12.5
    vertex 12.75 0.0 6.8431
    vertex 7.093099999999999 0.0 12.5
  endloop
endfacet
facet normal 0.0 0.0 1.0
  outer loop
    vertex 7.093099999999999 0.0 12.5
    vertex 12.75 9.89954068711929 12.5
    vertex 2.85045931288073 7.049916206369744e-16 12.5
  endloop
endfacet
facet normal 0.0 0.0 1.0
  outer loop
    vertex 12.75 9.89954068711929 12.5
    vertex 7.093099999999999 0.0 12.5
    vertex 12.75 5.6569 12.5
  endloop
endfacet
facet normal 0.0 -0.7070993547857561 0.7071142075093441
  outer loop
    vertex 14.149999999999999 0.0 2.6006672497880894
    vertex 12.75 9.89954068711929 12.5
    vertex 12.75 0.0 2.6006672497880894
  endloop
endfacet
facet normal 0.0 -0.7070993547857561 0.7071142075093441
  outer loop
    vertex 12.75 9.89954068711929 12.5
    vertex 14.149999999999999 0.0 2.6006672497880894
    vertex 14.149999999999999 9.89954068711929 12.5
  endloop
endfacet
facet normal 0.9562589451395013 -0.2732168414684293 0.10450544186167383
  outer loop
    vertex 2.85045931288073 7.049916206369744e-16 12.5
    vertex 2.5641259795473967 -0.46666666666666595 13.9
    vertex 2.430792646214063 -0.9333333333333326 13.9
  endloop
endfacet
facet normal -1.4880366293489538e-17 -1.0 4.5956990918963986e-17
  outer loop
    vertex 14.149999999999999 -1.4 2.2006672497880895
    vertex 0.4000000000000001 -1.4 0.1500000000000001
    vertex 14.149999999999999 -1.4 0.1500000000000001
  endloop
endfacet
facet normal -1.4880366293489538e-17 -1.0 4.5956990918963986e-17
  outer loop
    vertex 0.4000000000000001 -1.4 0.1500000000000001
    vertex 14.149999999999999 -1.4 2.2006672497880895
    vertex 13.653114762223085 -1.4000000000000004 2.269403524890873
  endloop
endfacet
facet normal -1.4880366293489538e-17 -1.0 4.5956990918963986e-17
  outer loop
    vertex 0.4000000000000001 -1.4 0.1500000000000001
    vertex 13.653114762223085 -1.4000000000000004 2.269403524890873
    vertex 13.186448095556417 -1.4000000000000004 2.4027368582242064
  endloop
endfacet
facet normal -1.4880366293489538e-17 -1.0 4.5956990918963986e-17
  outer loop
    vertex 0.4000000000000001 -1.4 0.1500000000000001
    vertex 13.186448095556417 -1.4000000000000004 2.4027368582242064
    vertex 12.75 -1.4 2.6006672497880894
  endloop
endfacet
facet normal -1.4880366293489538e-17 -1.0 4.5956990918963986e-17
  outer loop
    vertex 0.4000000000000001 -1.4 0.1500000000000001
    vertex 12.75 -1.4 2.6006672497880894
    vertex 0.4000000000000001 -1.4 13.9
  endloop
endfacet
facet normal -1.4880366293489538e-17 -1.0 4.5956990918963986e-17
  outer loop
    vertex 0.4000000000000001 -1.4 13.9
    vertex 12.75 -1.4 2.6006672497880894
    vertex 2.85045931288073 -1.3999999999999992 12.5
  endloop
endfacet
facet normal -1.4880366293489538e-17 -1.0 4.5956990918963986e-17
  outer loop
    vertex 0.4000000000000001 -1.4 13.9
    vertex 2.85045931288073 -1.3999999999999992 12.5
    vertex 2.6411259795473967 -1.3999999999999992 12.966666666666667
  endloop
endfacet
facet normal -1.4880366293489538e-17 -1.0 4.5956990918963986e-17
  outer loop
    vertex 0.4000000000000001 -1.4 13.9
    vertex 2.6411259795473967 -1.3999999999999992 12.966666666666667
    vertex 2.507792646214063 -1.3999999999999992 13.433333333333335
  endloop
endfacet
facet normal -1.4880366293489538e-17 -1.0 4.5956990918963986e-17
  outer loop
    vertex 0.4000000000000001 -1.4 13.9
    vertex 2.507792646214063 -1.3999999999999992 13.433333333333335
    vertex 2.45045931288073 -1.3999999999999992 13.9
  endloop
endfacet
facet normal 0.7070987814356136 1.3454354177785978e-16 0.7071147808469785
  outer loop
    vertex 12.75 -1.4 2.6006672497880894
    vertex 2.85045931288073 7.049916206369744e-16 12.5
    vertex 2.85045931288073 -1.3999999999999992 12.5
  endloop
endfacet
facet normal 0.7070987814356136 1.3454354177785978e-16 0.7071147808469785
  outer loop
    vertex 2.85045931288073 7.049916206369744e-16 12.5
    vertex 12.75 -1.4 2.6006672497880894
    vertex 12.75 0.0 2.6006672497880894
  endloop
endfacet
facet normal 0.2743743172850625 -0.05023171996065185 0.9603101104977239
  outer loop
    vertex 13.653114762223085 -1.4000000000000004 2.269403524890873
    vertex 12.75 0.0 2.6006672497880894
    vertex 13.186448095556417 -1.4000000000000004 2.4027368582242064
  endloop
endfacet
facet normal -0.20188900185918143 -0.869712698496381 0.4503783442867191
  outer loop
    vertex 13.652442838728282 10.415040114494218 13.9
    vertex 12.75 9.89954068711929 12.5
    vertex 14.149999999999999 10.299540687119292 13.9
  endloop
endfacet
facet normal 0.9124086351125321 1.7663070754210287e-17 0.40928044489333504
  outer loop
    vertex 2.85045931288073 7.049916206369744e-16 12.5
    vertex 2.6411259795473967 -1.3999999999999992 12.966666666666667
    vertex 2.85045931288073 -1.3999999999999992 12.5
  endloop
endfacet
facet normal 0.0 0.0 1.0
  outer loop
    vertex 2.45045931288073 -1.3999999999999992 13.9
    vertex 0.4000000000000001 12.35 13.9
    vertex 0.4000000000000001 -1.4 13.9
  endloop
endfacet
facet normal 0.0 0.0 1.0
  outer loop
    vertex 0.4000000000000001 12.35 13.9
    vertex 2.45045931288073 -1.3999999999999992 13.9
    vertex 2.430792646214063 -0.9333333333333326 13.9
  endloop
endfacet
facet normal 0.0 0.0 1.0
  outer loop
    vertex 0.4000000000000001 12.35 13.9
    vertex 2.85045931288073 7.049916206369744e-16 13.9
    vertex 14.149999999999999 12.35 13.9
  endloop
endfacet
facet normal 0.0 0.0 1.0
  outer loop
    vertex 2.85045931288073 7.049916206369744e-16 13.9
    vertex 0.4000000000000001 12.35 13.9
    vertex 2.5641259795473967 -0.46666666666666595 13.9
  endloop
endfacet
facet normal 0.0 0.0 1.0
  outer loop
    vertex 2.5641259795473967 -0.46666666666666595 13.9
    vertex 0.4000000000000001 12.35 13.9
    vertex 2.430792646214063 -0.9333333333333326 13.9
  endloop
endfacet
facet normal 0.0 0.0 1.0
  outer loop
    vertex 14.149999999999999 12.35 13.9
    vertex 2.85045931288073 7.049916206369744e-16 13.9
    vertex 12.75 9.89954068711929 13.9
  endloop
endfacet
facet normal 0.0 0.0 1.0
  outer loop
    vertex 14.149999999999999 12.35 13.9
    vertex 12.75 9.89954068711929 13.9
    vertex 13.185776172061615 10.281706781160883 13.9
  endloop
endfacet
facet normal 0.0 0.0 1.0
  outer loop
    vertex 14.149999999999999 12.35 13.9
    vertex 13.185776172061615 10.281706781160883 13.9
    vertex 13.652442838728282 10.415040114494218 13.9
  endloop
endfacet
facet normal 0.0 0.0 1.0
  outer loop
    vertex 14.149999999999999 12.35 13.9
    vertex 13.652442838728282 10.415040114494218 13.9
    vertex 14.149999999999999 10.299540687119292 13.9
  endloop
endfacet
facet normal 0.7071067811865482 -0.7071067811865468 0.0
  outer loop
    vertex 12.75 9.89954068711929 12.5
    vertex 2.85045931288073 7.049916206369744e-16 13.9
    vertex 2.85045931288073 7.049916206369744e-16 12.5
  endloop
endfacet
facet normal 0.7071067811865482 -0.7071067811865468 0.0
  outer loop
    vertex 2.85045931288073 7.049916206369744e-16 13.9
    vertex 12.75 9.89954068711929 12.5
    vertex 12.75 9.89954068711929 13.9
  endloop
endfacet
facet normal 0.2069246544044112 -0.9757149254040796 0.07185103856818302
  outer loop
    vertex 14.149999999999999 10.299540687119292 13.9
    vertex 12.75 9.89954068711929 12.5
    vertex 14.149999999999999 10.267729773167996 13.468017607656854
  endloop
endfacet
facet normal 0.9602167685159404 -0.052126053148007924 0.2743476481474118
  outer loop
    vertex 2.85045931288073 7.049916206369744e-16 12.5
    vertex 2.507792646214063 -1.3999999999999992 13.433333333333335
    vertex 2.6411259795473967 -1.3999999999999992 12.966666666666667
  endloop
endfacet
facet normal -1.0 0.0 0.0
  outer loop
    vertex 0.4000000000000001 12.35 13.9
    vertex 0.4000000000000001 -1.4 0.1500000000000001
    vertex 0.4000000000000001 -1.4 13.9
  endloop
endfacet
facet normal -1.0 0.0 0.0
  outer loop
    vertex 0.4000000000000001 -1.4 0.1500000000000001
    vertex 0.4000000000000001 12.35 13.9
    vertex 0.4000000000000001 12.35 0.15000000000000008
  endloop
endfacet
facet normal 0.0 0.0 -1.0
  outer loop
    vertex 14.149999999999999 12.35 0.15000000000000008
    vertex 0.4000000000000001 -1.4 0.1500000000000001
    vertex 0.4000000000000001 12.35 0.15000000000000008
  endloop
endfacet
facet normal 0.0 0.0 -1.0
  outer loop
    vertex 0.4000000000000001 -1.4 0.1500000000000001
    vertex 14.149999999999999 12.35 0.15000000000000008
    vertex 14.149999999999999 -1.4 0.1500000000000001
  endloop
endfacet
endsolid 14-8 assembly  fin2.8
