solid 14-8 assembly  fin2.81 with hole
facet normal 0.06279563224117526 -0.9596262904685827 0.2741789401338814
  outer loop
    vertex 13.75 11.667729773167997 13.318017607656854
    vertex 12.35 11.29954068711929 12.35
    vertex 13.75 11.534396439834662 12.851350940990187
  endloop
endfacet
facet normal 0.0 -0.9055647670462583 0.4242080299622534
  outer loop
    vertex 13.75 11.534396439834662 12.851350940990187
    vertex 12.35 11.29954068711929 12.35
    vertex 13.75 11.29954068711929 12.35
  endloop
endfacet
facet normal 0.8523474003133394 -0.5229760120493979 4.9501084907131373e-17
  outer loop
    vertex 2.4504593128807297 1.4000000000000006 13.75
    vertex 2.164125979547397 0.933333333333334 13.75
    vertex 2.4504593128807297 1.4000000000000006 12.35
  endloop
endfacet
facet normal 0.1287014338870948 -0.2724363787133532 0.953527325496737
  outer loop
    vertex 13.75 1.0743358253871023 2.168656688937032
    vertex 12.35 1.4 2.4506672497880895
    vertex 13.75 0.6076691587204356 2.0353233556036985
  endloop
endfacet
facet normal 1.5025069746267445e-17 -0.6546233112989029 0.7559552369711184
  outer loop
    vertex 13.75 1.4 2.4506672497880895
    vertex 12.35 1.4 2.4506672497880895
    vertex 13.75 1.0743358253871023 2.168656688937032
  endloop
endfacet
facet normal 0.2705181305488913 -0.9468134569211157 0.17425331800978666
  outer loop
    vertex 12.785776172061617 11.681706781160884 13.75
    vertex 12.35 11.29954068711929 12.35
    vertex 13.252442838728284 11.815040114494218 13.75
  endloop
endfacet
facet normal 1.0 -0.0 -0.0
  outer loop
    vertex 13.75 13.75 -2.203098814490545e-17
    vertex 13.75 0.0 2.0506672497880896
    vertex 13.75 0.0 0.0
  endloop
endfacet
facet normal 1.0 -0.0 -0.0
  outer loop
    vertex 13.75 0.0 2.0506672497880896
    vertex 13.75 13.75 -2.203098814490545e-17
    vertex 13.75 0.6076691587204356 2.0353233556036985
  endloop
endfacet
facet normal 1.0 -0.0 -0.0
  outer loop
    vertex 13.75 0.6076691587204356 2.0353233556036985
    vertex 13.75 13.75 -2.203098814490545e-17
    vertex 13.75 1.0743358253871023 2.168656688937032
  endloop
endfacet
facet normal 1.0 -0.0 -0.0
  outer loop
    vertex 13.75 1.0743358253871023 2.168656688937032
    vertex 13.75 13.75 -2.203098814490545e-17
    vertex 13.75 1.4 2.4506672497880895
  endloop
endfacet
facet normal 1.0 -0.0 -0.0
  outer loop
    vertex 13.75 1.4 2.4506672497880895
    vertex 13.75 13.75 -2.203098814490545e-17
    vertex 13.75 11.29954068711929 12.35
  endloop
endfacet
facet normal 1.0 -0.0 -0.0
  outer loop
    vertex 13.75 11.29954068711929 12.35
    vertex 13.75 13.75 -2.203098814490545e-17
    vertex 13.75 11.534396439834662 12.851350940990187
  endloop
endfacet
facet normal 1.0 -0.0 -0.0
  outer loop
    vertex 13.75 11.534396439834662 12.851350940990187
    vertex 13.75 13.75 -2.203098814490545e-17
    vertex 13.75 11.667729773167997 13.318017607656854
  endloop
endfacet
facet normal 1.0 -0.0 -0.0
  outer loop
    vertex 13.75 11.667729773167997 13.318017607656854
    vertex 13.75 13.75 -2.203098814490545e-17
    vertex 13.75 11.69954068711929 13.75
  endloop
endfacet
facet normal 1.0 -0.0 -0.0
  outer loop
    vertex 13.75 11.69954068711929 13.75
    vertex 13.75 13.75 -2.203098814490545e-17
    vertex 13.75 13.75 13.75
  endloop
endfacet
facet normal 0.6593464470665085 -0.7518392532588146 -3.338246608348245e-17
  outer loop
    vertex 12.35 11.29954068711929 13.75
    vertex 12.35 11.29954068711929 12.35
    vertex 12.785776172061617 11.681706781160884 13.75
  endloop
endfacet
facet normal 0.9798195730396142 -0.159570616180737 0.12037783325915312
  outer loop
    vertex 2.4504593128807297 1.4000000000000006 12.35
    vertex 2.05045931288073 7.049916206369744e-16 13.75
    vertex 2.107792646214063 7.049916206369744e-16 13.283333333333335
  endloop
endfacet
facet normal 0.2968527974033282 0.024104518618510515 0.9546189757468623
  outer loop
    vertex 13.75 0.6076691587204356 2.0353233556036985
    vertex 12.35 1.4 2.4506672497880895
    vertex 13.75 0.0 2.0506672497880896
  endloop
endfacet
facet normal 0.9494718324368434 0.04001345579555338 0.31129112220607963
  outer loop
    vertex 2.4504593128807297 1.4000000000000006 12.35
    vertex 2.0307926462140626 0.46666666666666734 13.75
    vertex 2.05045931288073 7.049916206369744e-16 13.75
  endloop
endfacet
facet normal 0.13559207779212432 -0.14445843499818187 0.9801767947660721
  outer loop
    vertex 13.75 0.0 2.0506672497880896
    vertex 12.35 1.4 2.4506672497880895
    vertex 13.253114762223085 -5.287437154777307e-16 2.119403524890873
  endloop
endfacet
facet normal 0.41301574459899787 2.015635064496021e-17 0.9107238850021095
  outer loop
    vertex 12.786448095556418 -3.524958103184872e-16 2.252736858224206
    vertex 12.35 1.4 2.4506672497880895
    vertex 12.35 0.0 2.4506672497880895
  endloop
endfacet
facet normal -0.0 -0.707099354785756 0.7071142075093441
  outer loop
    vertex 13.75 1.4 2.4506672497880895
    vertex 12.35 11.29954068711929 12.35
    vertex 12.35 1.4 2.4506672497880895
  endloop
endfacet
facet normal -0.0 -0.707099354785756 0.7071142075093441
  outer loop
    vertex 12.35 11.29954068711929 12.35
    vertex 13.75 1.4 2.4506672497880895
    vertex 13.75 11.29954068711929 12.35
  endloop
endfacet
facet normal 0.9562589451395012 -0.27321684146843006 0.10450544186167321
  outer loop
    vertex 2.4504593128807297 1.4000000000000006 12.35
    vertex 2.164125979547397 0.933333333333334 13.75
    vertex 2.0307926462140626 0.46666666666666734 13.75
  endloop
endfacet
facet normal -1.4880366293489473e-17 -1.0 4.5956990918964004e-17
  outer loop
    vertex 13.75 0.0 2.0506672497880896
    vertex 0.0 0.0 0.0
    vertex 13.75 0.0 0.0
  endloop
endfacet
facet normal -1.4880366293489473e-17 -1.0 4.5956990918964004e-17
  outer loop
    vertex 0.0 0.0 0.0
    vertex 13.75 0.0 2.0506672497880896
    vertex 13.253114762223085 -5.287437154777307e-16 2.119403524890873
  endloop
endfacet
facet normal -1.4880366293489473e-17 -1.0 4.5956990918964004e-17
  outer loop
    vertex 0.0 0.0 0.0
    vertex 13.253114762223085 -5.287437154777307e-16 2.119403524890873
    vertex 12.786448095556418 -3.524958103184872e-16 2.252736858224206
  endloop
endfacet
facet normal -1.4880366293489473e-17 -1.0 4.5956990918964004e-17
  outer loop
    vertex 0.0 0.0 0.0
    vertex 12.786448095556418 -3.524958103184872e-16 2.252736858224206
    vertex 12.35 0.0 2.4506672497880895
  endloop
endfacet
facet normal -1.4880366293489473e-17 -1.0 4.5956990918964004e-17
  outer loop
    vertex 0.0 0.0 0.0
    vertex 12.35 0.0 2.4506672497880895
    vertex 0.0 0.0 13.75
  endloop
endfacet
facet normal -1.4880366293489473e-17 -1.0 4.5956990918964004e-17
  outer loop
    vertex 0.0 0.0 13.75
    vertex 12.35 0.0 2.4506672497880895
    vertex 2.4504593128807297 7.049916206369744e-16 12.35
  endloop
endfacet
facet normal -1.4880366293489473e-17 -1.0 4.5956990918964004e-17
  outer loop
    vertex 0.0 0.0 13.75
    vertex 2.4504593128807297 7.049916206369744e-16 12.35
    vertex 2.2411259795473963 7.049916206369744e-16 12.816666666666668
  endloop
endfacet
facet normal -1.4880366293489473e-17 -1.0 4.5956990918964004e-17
  outer loop
    vertex 0.0 0.0 13.75
    vertex 2.2411259795473963 7.049916206369744e-16 12.816666666666668
    vertex 2.107792646214063 7.049916206369744e-16 13.283333333333335
  endloop
endfacet
facet normal -1.4880366293489473e-17 -1.0 4.5956990918964004e-17
  outer loop
    vertex 0.0 0.0 13.75
    vertex 2.107792646214063 7.049916206369744e-16 13.283333333333335
    vertex 2.05045931288073 7.049916206369744e-16 13.75
  endloop
endfacet
facet normal 0.7070993547857567 4.0370796756111323e-16 0.7071142075093434
  outer loop
    vertex 12.35 0.0 2.4506672497880895
    vertex 2.4504593128807297 1.4000000000000006 12.35
    vertex 2.4504593128807297 7.049916206369744e-16 12.35
  endloop
endfacet
facet normal 0.7070993547857567 4.0370796756111323e-16 0.7071142075093434
  outer loop
    vertex 2.4504593128807297 1.4000000000000006 12.35
    vertex 12.35 0.0 2.4506672497880895
    vertex 12.35 1.4 2.4506672497880895
  endloop
endfacet
facet normal 0.2743743172850625 -0.05023171996065185 0.9603101104977239
  outer loop
    vertex 13.253114762223085 -5.287437154777307e-16 2.119403524890873
    vertex 12.35 1.4 2.4506672497880895
    vertex 12.786448095556418 -3.524958103184872e-16 2.252736858224206
  endloop
endfacet
facet normal -0.20188900185918102 -0.8697126984963812 0.4503783442867192
  outer loop
    vertex 13.252442838728284 11.815040114494218 13.75
    vertex 12.35 11.29954068711929 12.35
    vertex 13.75 11.69954068711929 13.75
  endloop
endfacet
facet normal 0.9124086351125321 1.7663070754210287e-17 0.40928044489333504
  outer loop
    vertex 2.4504593128807297 1.4000000000000006 12.35
    vertex 2.2411259795473963 7.049916206369744e-16 12.816666666666668
    vertex 2.4504593128807297 7.049916206369744e-16 12.35
  endloop
endfacet
facet normal -0.0 -0.0 1.0
  outer loop
    vertex 2.05045931288073 7.049916206369744e-16 13.75
    vertex 0.0 13.75 13.75
    vertex 0.0 0.0 13.75
  endloop
endfacet
facet normal -0.0 -0.0 1.0
  outer loop
    vertex 0.0 13.75 13.75
    vertex 2.05045931288073 7.049916206369744e-16 13.75
    vertex 2.0307926462140626 0.46666666666666734 13.75
  endloop
endfacet
facet normal -0.0 -0.0 1.0
  outer loop
    vertex 0.0 13.75 13.75
    vertex 2.4504593128807297 1.4000000000000006 13.75
    vertex 13.75 13.75 13.75
  endloop
endfacet
facet normal -0.0 -0.0 1.0
  outer loop
    vertex 2.4504593128807297 1.4000000000000006 13.75
    vertex 0.0 13.75 13.75
    vertex 2.164125979547397 0.933333333333334 13.75
  endloop
endfacet
facet normal -0.0 -0.0 1.0
  outer loop
    vertex 2.164125979547397 0.933333333333334 13.75
    vertex 0.0 13.75 13.75
    vertex 2.0307926462140626 0.46666666666666734 13.75
  endloop
endfacet
facet normal -0.0 -0.0 1.0
  outer loop
    vertex 13.75 13.75 13.75
    vertex 2.4504593128807297 1.4000000000000006 13.75
    vertex 12.35 11.29954068711929 13.75
  endloop
endfacet
facet normal -0.0 -0.0 1.0
  outer loop
    vertex 13.75 13.75 13.75
    vertex 12.35 11.29954068711929 13.75
    vertex 12.785776172061617 11.681706781160884 13.75
  endloop
endfacet
facet normal -0.0 -0.0 1.0
  outer loop
    vertex 13.75 13.75 13.75
    vertex 12.785776172061617 11.681706781160884 13.75
    vertex 13.252442838728284 11.815040114494218 13.75
  endloop
endfacet
facet normal -0.0 -0.0 1.0
  outer loop
    vertex 13.75 13.75 13.75
    vertex 13.252442838728284 11.815040114494218 13.75
    vertex 13.75 11.69954068711929 13.75
  endloop
endfacet
facet normal 0.7071067811865482 -0.7071067811865469 -0.0
  outer loop
    vertex 12.35 11.29954068711929 12.35
    vertex 2.4504593128807297 1.4000000000000006 13.75
    vertex 2.4504593128807297 1.4000000000000006 12.35
  endloop
endfacet
facet normal 0.7071067811865482 -0.7071067811865469 -0.0
  outer loop
    vertex 2.4504593128807297 1.4000000000000006 13.75
    vertex 12.35 11.29954068711929 12.35
    vertex 12.35 11.29954068711929 13.75
  endloop
endfacet
facet normal 0.2069246544044112 -0.9757149254040796 0.07185103856818302
  outer loop
    vertex 13.75 11.69954068711929 13.75
    vertex 12.35 11.29954068711929 12.35
    vertex 13.75 11.667729773167997 13.318017607656854
  endloop
endfacet
facet normal 0.9602167685159407 -0.05212605314800825 0.27434764814741086
  outer loop
    vertex 2.4504593128807297 1.4000000000000006 12.35
    vertex 2.107792646214063 7.049916206369744e-16 13.283333333333335
    vertex 2.2411259795473963 7.049916206369744e-16 12.816666666666668
  endloop
endfacet
facet normal -1.0 0.0 0.0
  outer loop
    vertex 0.0 13.75 13.75
    vertex 0.0 0.0 0.0
    vertex 0.0 0.0 13.75
  endloop
endfacet
facet normal -1.0 0.0 0.0
  outer loop
    vertex 0.0 0.0 0.0
    vertex 0.0 13.75 13.75
    vertex 0.0 1.0500000000000005 0.0
  endloop
endfacet
facet normal -1.0 0.0 0.0
  outer loop
    vertex 0.0 1.0500000000000005 0.0
    vertex 0.0 13.75 13.75
    vertex 0.0 13.75 12.7
  endloop
endfacet
facet normal -0.0 1.0 -0.0
  outer loop
    vertex 0.0 13.75 12.7
    vertex 13.75 13.75 -2.203098814490545e-17
    vertex 12.7 13.75 -2.203098814490545e-17
  endloop
endfacet
facet normal -0.0 1.0 -0.0
  outer loop
    vertex 13.75 13.75 -2.203098814490545e-17
    vertex 0.0 13.75 12.7
    vertex 13.75 13.75 13.75
  endloop
endfacet
facet normal -0.0 1.0 -0.0
  outer loop
    vertex 13.75 13.75 13.75
    vertex 0.0 13.75 12.7
    vertex 0.0 13.75 13.75
  endloop
endfacet
facet normal -6.513939776009815e-20 -1.5980987307897172e-18 -1.0
  outer loop
    vertex 12.7 13.75 -2.203098814490545e-17
    vertex 0.0 0.0 0.0
    vertex 0.0 1.0500000000000005 0.0
  endloop
endfacet
facet normal -6.513939776009815e-20 -1.5980987307897172e-18 -1.0
  outer loop
    vertex 0.0 0.0 0.0
    vertex 12.7 13.75 -2.203098814490545e-17
    vertex 13.75 0.0 0.0
  endloop
endfacet
facet normal -6.513939776009815e-20 -1.5980987307897172e-18 -1.0
  outer loop
    vertex 13.75 0.0 0.0
    vertex 12.7 13.75 -2.203098814490545e-17
    vertex 13.75 13.75 -2.203098814490545e-17
  endloop
endfacet
facet normal -0.5773502691896258 0.5773502691896258 -0.5773502691896258
  outer loop
    vertex 0.0 1.0500000000000005 0.0
    vertex 2.7035733469322407 7.2804349860696 3.5268616391373557
    vertex 3.0902381200345146 7.230476240069037 3.090238120034518
  endloop
endfacet
facet normal -0.5773502691896258 0.5773502691896258 -0.5773502691896258
  outer loop
    vertex 2.7035733469322407 7.2804349860696 3.5268616391373557
    vertex 0.0 1.0500000000000005 0.0
    vertex 2.3837664258385365 7.428127787142403 3.9943613613038624
  endloop
endfacet
facet normal -0.5773502691896258 0.5773502691896258 -0.5773502691896258
  outer loop
    vertex 2.3837664258385365 7.428127787142403 3.9943613613038624
    vertex 0.0 1.0500000000000005 0.0
    vertex 2.144794453809065 7.667099759171875 4.472305305362806
  endloop
endfacet
facet normal -0.5773502691896258 0.5773502691896258 -0.5773502691896258
  outer loop
    vertex 2.144794453809065 7.667099759171875 4.472305305362806
    vertex 0.0 1.0500000000000005 0.0
    vertex 1.997101652736263 7.986906680265579 4.939805027529314
  endloop
endfacet
facet normal -0.5773502691896258 0.5773502691896258 -0.5773502691896258
  outer loop
    vertex 1.997101652736263 7.986906680265579 4.939805027529314
    vertex 0.0 1.0500000000000005 0.0
    vertex 0.0 13.75 12.7
  endloop
endfacet
facet normal -0.5773502691896258 0.5773502691896258 -0.5773502691896258
  outer loop
    vertex 1.997101652736263 7.986906680265579 4.939805027529314
    vertex 0.0 13.75 12.7
    vertex 1.9471429067357002 8.373571453367854 5.376428546632151
  endloop
endfacet
facet normal -0.5773502691896258 0.5773502691896258 -0.5773502691896258
  outer loop
    vertex 1.9471429067357002 8.373571453367854 5.376428546632151
    vertex 0.0 13.75 12.7
    vertex 1.997101652736263 8.810194972470688 5.763093319734423
  endloop
endfacet
facet normal -0.5773502691896258 0.5773502691896258 -0.5773502691896258
  outer loop
    vertex 1.997101652736263 8.810194972470688 5.763093319734423
    vertex 0.0 13.75 12.7
    vertex 2.144794453809066 9.277694694637194 6.0829002408281285
  endloop
endfacet
facet normal -0.5773502691896258 0.5773502691896258 -0.5773502691896258
  outer loop
    vertex 2.144794453809066 9.277694694637194 6.0829002408281285
    vertex 0.0 13.75 12.7
    vertex 2.3837664258385383 9.755638638696139 6.321872212857601
  endloop
endfacet
facet normal -0.5773502691896258 0.5773502691896258 -0.5773502691896258
  outer loop
    vertex 2.3837664258385383 9.755638638696139 6.321872212857601
    vertex 0.0 13.75 12.7
    vertex 2.7035733469322434 10.223138360862647 6.469565013930403
  endloop
endfacet
facet normal -0.5773502691896258 0.5773502691896258 -0.5773502691896258
  outer loop
    vertex 2.7035733469322434 10.223138360862647 6.469565013930403
    vertex 0.0 13.75 12.7
    vertex 3.090238120034519 10.659761879965485 6.5195237599309666
  endloop
endfacet
facet normal -0.5773502691896258 0.5773502691896258 -0.5773502691896258
  outer loop
    vertex 3.090238120034519 10.659761879965485 6.5195237599309666
    vertex 0.0 13.75 12.7
    vertex 3.526861639137356 11.04642665306776 6.469565013930403
  endloop
endfacet
facet normal -0.5773502691896258 0.5773502691896258 -0.5773502691896258
  outer loop
    vertex 3.526861639137356 11.04642665306776 6.469565013930403
    vertex 0.0 13.75 12.7
    vertex 3.9943613613038647 11.366233574161463 6.3218722128576
  endloop
endfacet
facet normal -0.5773502691896258 0.5773502691896258 -0.5773502691896258
  outer loop
    vertex 3.9943613613038647 11.366233574161463 6.3218722128576
    vertex 0.0 13.75 12.7
    vertex 4.472305305362808 11.605205546190936 6.082900240828128
  endloop
endfacet
facet normal -0.5773502691896258 0.5773502691896258 -0.5773502691896258
  outer loop
    vertex 4.472305305362808 11.605205546190936 6.082900240828128
    vertex 0.0 13.75 12.7
    vertex 4.939805027529316 11.752898347263736 5.763093319734422
  endloop
endfacet
facet normal -0.5773502691896258 0.5773502691896258 -0.5773502691896258
  outer loop
    vertex 4.939805027529316 11.752898347263736 5.763093319734422
    vertex 0.0 13.75 12.7
    vertex 5.3764285466321535 11.802857093264299 5.376428546632146
  endloop
endfacet
facet normal -0.5773502691896258 0.5773502691896258 -0.5773502691896258
  outer loop
    vertex 0.0 1.0500000000000005 0.0
    vertex 4.93980502752931 7.9869066802655775 1.9971016527362635
    vertex 12.7 13.75 -2.203098814490545e-17
  endloop
endfacet
facet normal -0.5773502691896258 0.5773502691896258 -0.5773502691896258
  outer loop
    vertex 4.93980502752931 7.9869066802655775 1.9971016527362635
    vertex 0.0 1.0500000000000005 0.0
    vertex 4.472305305362802 7.667099759171872 2.144794453809067
  endloop
endfacet
facet normal -0.5773502691896258 0.5773502691896258 -0.5773502691896258
  outer loop
    vertex 4.472305305362802 7.667099759171872 2.144794453809067
    vertex 0.0 1.0500000000000005 0.0
    vertex 3.994361361303859 7.428127787142403 2.3837664258385387
  endloop
endfacet
facet normal -0.5773502691896258 0.5773502691896258 -0.5773502691896258
  outer loop
    vertex 3.994361361303859 7.428127787142403 2.3837664258385387
    vertex 0.0 1.0500000000000005 0.0
    vertex 3.5268616391373513 7.280434986069598 2.7035733469322434
  endloop
endfacet
facet normal -0.5773502691896258 0.5773502691896258 -0.5773502691896258
  outer loop
    vertex 3.5268616391373513 7.280434986069598 2.7035733469322434
    vertex 0.0 1.0500000000000005 0.0
    vertex 3.0902381200345146 7.230476240069037 3.090238120034518
  endloop
endfacet
facet normal -0.5773502691896258 0.5773502691896258 -0.5773502691896258
  outer loop
    vertex 12.7 13.75 -2.203098814490545e-17
    vertex 4.93980502752931 7.9869066802655775 1.9971016527362635
    vertex 5.376428546632147 8.373571453367852 1.947142906735701
  endloop
endfacet
facet normal -0.5773502691896258 0.5773502691896258 -0.5773502691896258
  outer loop
    vertex 12.7 13.75 -2.203098814490545e-17
    vertex 5.376428546632147 8.373571453367852 1.947142906735701
    vertex 5.763093319734421 8.810194972470688 1.997101652736263
  endloop
endfacet
facet normal -0.5773502691896258 0.5773502691896258 -0.5773502691896258
  outer loop
    vertex 12.7 13.75 -2.203098814490545e-17
    vertex 5.763093319734421 8.810194972470688 1.997101652736263
    vertex 6.082900240828126 9.277694694637194 2.144794453809066
  endloop
endfacet
facet normal -0.5773502691896258 0.5773502691896258 -0.5773502691896258
  outer loop
    vertex 12.7 13.75 -2.203098814490545e-17
    vertex 6.082900240828126 9.277694694637194 2.144794453809066
    vertex 6.321872212857598 9.755638638696137 2.383766425838537
  endloop
endfacet
facet normal -0.5773502691896258 0.5773502691896258 -0.5773502691896258
  outer loop
    vertex 12.7 13.75 -2.203098814490545e-17
    vertex 6.321872212857598 9.755638638696137 2.383766425838537
    vertex 6.469565013930402 10.223138360862645 2.7035733469322416
  endloop
endfacet
facet normal -0.5773502691896258 0.5773502691896258 -0.5773502691896258
  outer loop
    vertex 12.7 13.75 -2.203098814490545e-17
    vertex 6.469565013930402 10.223138360862645 2.7035733469322416
    vertex 6.519523759930964 10.659761879965481 3.090238120034515
  endloop
endfacet
facet normal -0.5773502691896258 0.5773502691896258 -0.5773502691896258
  outer loop
    vertex 12.7 13.75 -2.203098814490545e-17
    vertex 6.519523759930964 10.659761879965481 3.090238120034515
    vertex 6.469565013930403 11.046426653067755 3.5268616391373513
  endloop
endfacet
facet normal -0.5773502691896258 0.5773502691896258 -0.5773502691896258
  outer loop
    vertex 12.7 13.75 -2.203098814490545e-17
    vertex 6.469565013930403 11.046426653067755 3.5268616391373513
    vertex 6.321872212857602 11.36623357416146 3.994361361303859
  endloop
endfacet
facet normal -0.5773502691896258 0.5773502691896258 -0.5773502691896258
  outer loop
    vertex 12.7 13.75 -2.203098814490545e-17
    vertex 6.321872212857602 11.36623357416146 3.994361361303859
    vertex 6.08290024082813 11.605205546190934 4.472305305362801
  endloop
endfacet
facet normal -0.5773502691896258 0.5773502691896258 -0.5773502691896258
  outer loop
    vertex 12.7 13.75 -2.203098814490545e-17
    vertex 6.08290024082813 11.605205546190934 4.472305305362801
    vertex 5.763093319734428 11.752898347263734 4.939805027529308
  endloop
endfacet
facet normal -0.5773502691896258 0.5773502691896258 -0.5773502691896258
  outer loop
    vertex 12.7 13.75 -2.203098814490545e-17
    vertex 5.763093319734428 11.752898347263734 4.939805027529308
    vertex 5.3764285466321535 11.802857093264299 5.376428546632146
  endloop
endfacet
facet normal -0.5773502691896258 0.5773502691896258 -0.5773502691896258
  outer loop
    vertex 12.7 13.75 -2.203098814490545e-17
    vertex 5.3764285466321535 11.802857093264299 5.376428546632146
    vertex 0.0 13.75 12.7
  endloop
endfacet
facet normal 0.5773502691896256 -0.5773502691896258 0.5773502691896258
  outer loop
    vertex 8.375827787142402 1.4360664258385367 10.703338638696135
    vertex 6.6931 1.4 12.35
    vertex 8.41189421298093 1.4000000000000024 10.631205787019072
  endloop
endfacet
facet normal 0.5773502691896256 -0.5773502691896258 0.5773502691896258
  outer loop
    vertex 6.6931 1.4 12.35
    vertex 8.375827787142402 1.4360664258385367 10.703338638696135
    vertex 8.228134986069598 1.7558733469322418 11.170838360862643
  endloop
endfacet
facet normal 0.5773502691896256 -0.5773502691896258 0.5773502691896258
  outer loop
    vertex 6.6931 1.4 12.35
    vertex 8.228134986069598 1.7558733469322418 11.170838360862643
    vertex 8.178176240069035 2.1425381200345175 11.607461879965483
  endloop
endfacet
facet normal 0.5773502691896256 -0.5773502691896258 0.5773502691896258
  outer loop
    vertex 6.6931 1.4 12.35
    vertex 8.178176240069035 2.1425381200345175 11.607461879965483
    vertex 8.228134986069595 2.5791616391373493 11.994126653067752
  endloop
endfacet
facet normal 0.5773502691896256 -0.5773502691896258 0.5773502691896258
  outer loop
    vertex 6.6931 1.4 12.35
    vertex 8.228134986069595 2.5791616391373493 11.994126653067752
    vertex 8.375827787142399 3.0466613613038582 12.313933574161458
  endloop
endfacet
facet normal 0.5773502691896256 -0.5773502691896258 0.5773502691896258
  outer loop
    vertex 6.6931 1.4 12.35
    vertex 8.375827787142399 3.0466613613038582 12.313933574161458
    vertex 8.41189421298094 3.1187942129809403 12.350000000000001
  endloop
endfacet
facet normal 0.812023727225959 0.33209907840941116 -0.4799246488165422
  outer loop
    vertex 1.9471429067357002 8.373571453367854 5.376428546632151
    vertex 8.228134986069595 2.5791616391373493 11.994126653067752
    vertex 8.178176240069035 2.1425381200345175 11.607461879965483
  endloop
endfacet
facet normal 0.812023727225959 0.33209907840941116 -0.4799246488165422
  outer loop
    vertex 8.228134986069595 2.5791616391373493 11.994126653067752
    vertex 1.9471429067357002 8.373571453367854 5.376428546632151
    vertex 1.997101652736263 8.810194972470688 5.763093319734423
  endloop
endfacet
facet normal 0.7765343938240261 0.16975918468759976 -0.6067752091364264
  outer loop
    vertex 1.997101652736263 8.810194972470688 5.763093319734423
    vertex 8.375827787142399 3.0466613613038582 12.313933574161458
    vertex 8.228134986069595 2.5791616391373493 11.994126653067752
  endloop
endfacet
facet normal 0.7765343938240261 0.16975918468759976 -0.6067752091364264
  outer loop
    vertex 8.375827787142399 3.0466613613038582 12.313933574161458
    vertex 1.997101652736263 8.810194972470688 5.763093319734423
    vertex 2.144794453809066 9.277694694637194 6.0829002408281285
  endloop
endfacet
facet normal 0.7071067811865526 1.0118451489169008e-14 -0.7071067811865425
  outer loop
    vertex 2.144794453809066 9.277694694637194 6.0829002408281285
    vertex 8.41189421298094 3.1187942129809403 12.350000000000001
    vertex 8.375827787142399 3.0466613613038582 12.313933574161458
  endloop
endfacet
facet normal 0.7071067811865526 1.0118451489169008e-14 -0.7071067811865425
  outer loop
    vertex 8.41189421298094 3.1187942129809403 12.350000000000001
    vertex 2.144794453809066 9.277694694637194 6.0829002408281285
    vertex 8.41189421298094 3.7275108515537334 12.35
  endloop
endfacet
facet normal 0.7071067811865526 1.0118451489169008e-14 -0.7071067811865425
  outer loop
    vertex 8.41189421298094 3.7275108515537334 12.35
    vertex 2.144794453809066 9.277694694637194 6.0829002408281285
    vertex 2.3837664258385383 9.755638638696139 6.321872212857601
  endloop
endfacet
facet normal 0.6067752091364245 -0.1697591846876024 -0.7765343938240269
  outer loop
    vertex 2.7035733469322434 10.223138360862647 6.469565013930403
    vertex 8.41189421298094 3.7275108515537334 12.35
    vertex 2.3837664258385383 9.755638638696139 6.321872212857601
  endloop
endfacet
facet normal 0.6067752091364245 -0.1697591846876024 -0.7765343938240269
  outer loop
    vertex 8.41189421298094 3.7275108515537334 12.35
    vertex 2.7035733469322434 10.223138360862647 6.469565013930403
    vertex 8.584008333001842 4.342703374793045 12.35
  endloop
endfacet
facet normal 0.47992464881655256 -0.33209907840940783 -0.8120237272259541
  outer loop
    vertex 3.090238120034519 10.659761879965485 6.5195237599309666
    vertex 8.584008333001842 4.342703374793045 12.35
    vertex 2.7035733469322434 10.223138360862647 6.469565013930403
  endloop
endfacet
facet normal 0.47992464881655256 -0.33209907840940783 -0.8120237272259541
  outer loop
    vertex 8.584008333001842 4.342703374793045 12.35
    vertex 3.090238120034519 10.659761879965485 6.5195237599309666
    vertex 8.92071436010355 4.8292856398964465 12.35
  endloop
endfacet
facet normal 0.3320990784094167 -0.47992464881654084 -0.8120237272259576
  outer loop
    vertex 3.526861639137356 11.04642665306776 6.469565013930403
    vertex 8.92071436010355 4.8292856398964465 12.35
    vertex 3.090238120034519 10.659761879965485 6.5195237599309666
  endloop
endfacet
facet normal 0.3320990784094167 -0.47992464881654084 -0.8120237272259576
  outer loop
    vertex 8.92071436010355 4.8292856398964465 12.35
    vertex 3.526861639137356 11.04642665306776 6.469565013930403
    vertex 9.407296625206952 5.165991666998157 12.35
  endloop
endfacet
facet normal 0.1697591846876024 -0.6067752091364245 -0.7765343938240269
  outer loop
    vertex 3.9943613613038647 11.366233574161463 6.3218722128576
    vertex 9.407296625206952 5.165991666998157 12.35
    vertex 3.526861639137356 11.04642665306776 6.469565013930403
  endloop
endfacet
facet normal 0.1697591846876024 -0.6067752091364245 -0.7765343938240269
  outer loop
    vertex 9.407296625206952 5.165991666998157 12.35
    vertex 3.9943613613038647 11.366233574161463 6.3218722128576
    vertex 10.022489148446269 5.3381057870190585 12.35
  endloop
endfacet
facet normal -1.0118451489168935e-14 -0.7071067811865577 -0.7071067811865375
  outer loop
    vertex 10.703338638696142 5.374172212857601 12.31393357416146
    vertex 3.9943613613038647 11.366233574161463 6.3218722128576
    vertex 4.472305305362808 11.605205546190936 6.082900240828128
  endloop
endfacet
facet normal -1.0118451489168935e-14 -0.7071067811865577 -0.7071067811865375
  outer loop
    vertex 3.9943613613038647 11.366233574161463 6.3218722128576
    vertex 10.703338638696142 5.374172212857601 12.31393357416146
    vertex 10.022489148446269 5.3381057870190585 12.35
  endloop
endfacet
facet normal -1.0118451489168935e-14 -0.7071067811865577 -0.7071067811865375
  outer loop
    vertex 10.022489148446269 5.3381057870190585 12.35
    vertex 10.703338638696142 5.374172212857601 12.31393357416146
    vertex 10.631205787019054 5.338105787019053 12.35
  endloop
endfacet
facet normal -0.16975918468761228 -0.77653439382403 -0.6067752091364177
  outer loop
    vertex 11.170838360862653 5.5218650139304035 11.994126653067752
    vertex 4.472305305362808 11.605205546190936 6.082900240828128
    vertex 4.939805027529316 11.752898347263736 5.763093319734422
  endloop
endfacet
facet normal -0.16975918468761228 -0.77653439382403 -0.6067752091364177
  outer loop
    vertex 4.472305305362808 11.605205546190936 6.082900240828128
    vertex 11.170838360862653 5.5218650139304035 11.994126653067752
    vertex 10.703338638696142 5.374172212857601 12.31393357416146
  endloop
endfacet
facet normal -0.3320990784094133 -0.8120237272259593 -0.47992464881654034
  outer loop
    vertex 11.607461879965486 5.571823759930961 11.607461879965475
    vertex 4.939805027529316 11.752898347263736 5.763093319734422
    vertex 5.3764285466321535 11.802857093264299 5.376428546632146
  endloop
endfacet
facet normal -0.3320990784094133 -0.8120237272259593 -0.47992464881654034
  outer loop
    vertex 4.939805027529316 11.752898347263736 5.763093319734422
    vertex 11.607461879965486 5.571823759930961 11.607461879965475
    vertex 11.170838360862653 5.5218650139304035 11.994126653067752
  endloop
endfacet
facet normal -0.4799246488165497 -0.8120237272259563 -0.3320990784094065
  outer loop
    vertex 11.994126653067761 5.521865013930397 11.170838360862637
    vertex 5.3764285466321535 11.802857093264299 5.376428546632146
    vertex 5.763093319734428 11.752898347263734 4.939805027529308
  endloop
endfacet
facet normal -0.4799246488165497 -0.8120237272259563 -0.3320990784094065
  outer loop
    vertex 5.3764285466321535 11.802857093264299 5.376428546632146
    vertex 11.994126653067761 5.521865013930397 11.170838360862637
    vertex 11.607461879965486 5.571823759930961 11.607461879965475
  endloop
endfacet
facet normal -0.6067752091364278 -0.7765343938240254 -0.1697591846875976
  outer loop
    vertex 12.313933574161466 5.374172212857598 10.703338638696135
    vertex 5.763093319734428 11.752898347263734 4.939805027529308
    vertex 6.08290024082813 11.605205546190934 4.472305305362801
  endloop
endfacet
facet normal -0.6067752091364278 -0.7765343938240254 -0.1697591846875976
  outer loop
    vertex 5.763093319734428 11.752898347263734 4.939805027529308
    vertex 12.313933574161466 5.374172212857598 10.703338638696135
    vertex 11.994126653067761 5.521865013930397 11.170838360862637
  endloop
endfacet
facet normal -0.7071067811865476 -0.7071067811865476 0.0
  outer loop
    vertex 12.35 5.338105787019064 10.631205787019066
    vertex 6.321872212857602 11.36623357416146 3.994361361303859
    vertex 12.35 5.338105787019059 10.022489148446253
  endloop
endfacet
facet normal -0.7071067811865476 -0.7071067811865476 0.0
  outer loop
    vertex 6.321872212857602 11.36623357416146 3.994361361303859
    vertex 12.35 5.338105787019064 10.631205787019066
    vertex 12.313933574161466 5.374172212857598 10.703338638696135
  endloop
endfacet
facet normal -0.7071067811865476 -0.7071067811865476 0.0
  outer loop
    vertex 6.321872212857602 11.36623357416146 3.994361361303859
    vertex 12.313933574161466 5.374172212857598 10.703338638696135
    vertex 6.08290024082813 11.605205546190934 4.472305305362801
  endloop
endfacet
facet normal -0.7765343938240272 -0.6067752091364262 0.1697591846875947
  outer loop
    vertex 12.35 5.338105787019059 10.022489148446253
    vertex 6.469565013930403 11.046426653067755 3.5268616391373513
    vertex 12.35 5.165991666998156 9.407296625206943
  endloop
endfacet
facet normal -0.7765343938240272 -0.6067752091364262 0.1697591846875947
  outer loop
    vertex 6.469565013930403 11.046426653067755 3.5268616391373513
    vertex 12.35 5.338105787019059 10.022489148446253
    vertex 6.321872212857602 11.36623357416146 3.994361361303859
  endloop
endfacet
facet normal -0.8120237272259581 -0.47992464881653596 0.33209907840942204
  outer loop
    vertex 12.35 5.165991666998156 9.407296625206943
    vertex 6.519523759930964 10.659761879965481 3.090238120034515
    vertex 12.35 4.829285639896445 8.920714360103547
  endloop
endfacet
facet normal -0.8120237272259581 -0.47992464881653596 0.33209907840942204
  outer loop
    vertex 6.519523759930964 10.659761879965481 3.090238120034515
    vertex 12.35 5.165991666998156 9.407296625206943
    vertex 6.469565013930403 11.046426653067755 3.5268616391373513
  endloop
endfacet
facet normal -0.812023727225957 -0.3320990784094127 0.4799246488165443
  outer loop
    vertex 12.35 4.829285639896445 8.920714360103547
    vertex 6.469565013930402 10.223138360862645 2.7035733469322416
    vertex 12.35 4.342703374793041 8.584008333001838
  endloop
endfacet
facet normal -0.812023727225957 -0.3320990784094127 0.4799246488165443
  outer loop
    vertex 6.469565013930402 10.223138360862645 2.7035733469322416
    vertex 12.35 4.829285639896445 8.920714360103547
    vertex 6.519523759930964 10.659761879965481 3.090238120034515
  endloop
endfacet
facet normal -0.7765343938240222 -0.16975918468759638 0.6067752091364321
  outer loop
    vertex 12.35 4.342703374793041 8.584008333001838
    vertex 6.321872212857598 9.755638638696137 2.383766425838537
    vertex 12.35 3.7275108515537303 8.411894212980936
  endloop
endfacet
facet normal -0.7765343938240222 -0.16975918468759638 0.6067752091364321
  outer loop
    vertex 6.321872212857598 9.755638638696137 2.383766425838537
    vertex 12.35 4.342703374793041 8.584008333001838
    vertex 6.469565013930402 10.223138360862645 2.7035733469322416
  endloop
endfacet
facet normal -0.7071067811865476 0.0 0.7071067811865476
  outer loop
    vertex 12.35 3.118794212980939 8.411894212980938
    vertex 6.082900240828126 9.277694694637194 2.144794453809066
    vertex 12.31393357416146 3.046661361303856 8.375827787142397
  endloop
endfacet
facet normal -0.7071067811865476 0.0 0.7071067811865476
  outer loop
    vertex 6.082900240828126 9.277694694637194 2.144794453809066
    vertex 12.35 3.118794212980939 8.411894212980938
    vertex 12.35 3.7275108515537303 8.411894212980936
  endloop
endfacet
facet normal -0.7071067811865476 0.0 0.7071067811865476
  outer loop
    vertex 6.082900240828126 9.277694694637194 2.144794453809066
    vertex 12.35 3.7275108515537303 8.411894212980936
    vertex 6.321872212857598 9.755638638696137 2.383766425838537
  endloop
endfacet
facet normal -0.6067752091364244 0.1697591846876025 0.7765343938240269
  outer loop
    vertex 11.994126653067758 2.5791616391373497 8.228134986069595
    vertex 6.082900240828126 9.277694694637194 2.144794453809066
    vertex 5.763093319734421 8.810194972470688 1.997101652736263
  endloop
endfacet
facet normal -0.6067752091364244 0.1697591846876025 0.7765343938240269
  outer loop
    vertex 6.082900240828126 9.277694694637194 2.144794453809066
    vertex 11.994126653067758 2.5791616391373497 8.228134986069595
    vertex 12.31393357416146 3.046661361303856 8.375827787142397
  endloop
endfacet
facet normal -0.4799246488165425 0.33209907840941477 0.8120237272259574
  outer loop
    vertex 11.60746187996548 2.142538120034515 8.178176240069034
    vertex 5.763093319734421 8.810194972470688 1.997101652736263
    vertex 5.376428546632147 8.373571453367852 1.947142906735701
  endloop
endfacet
facet normal -0.4799246488165425 0.33209907840941477 0.8120237272259574
  outer loop
    vertex 5.763093319734421 8.810194972470688 1.997101652736263
    vertex 11.60746187996548 2.142538120034515 8.178176240069034
    vertex 11.994126653067758 2.5791616391373497 8.228134986069595
  endloop
endfacet
facet normal -0.3320990784094087 0.47992464881654434 0.8120237272259586
  outer loop
    vertex 11.170838360862646 1.7558733469322418 8.228134986069596
    vertex 5.376428546632147 8.373571453367852 1.947142906735701
    vertex 4.93980502752931 7.9869066802655775 1.9971016527362635
  endloop
endfacet
facet normal -0.3320990784094087 0.47992464881654434 0.8120237272259586
  outer loop
    vertex 5.376428546632147 8.373571453367852 1.947142906735701
    vertex 11.170838360862646 1.7558733469322418 8.228134986069596
    vertex 11.60746187996548 2.142538120034515 8.178176240069034
  endloop
endfacet
facet normal -0.16975918468760115 0.6067752091364254 0.7765343938240264
  outer loop
    vertex 10.703338638696138 1.4360664258385367 8.3758277871424
    vertex 4.93980502752931 7.9869066802655775 1.9971016527362635
    vertex 4.472305305362802 7.667099759171872 2.144794453809067
  endloop
endfacet
facet normal -0.16975918468760115 0.6067752091364254 0.7765343938240264
  outer loop
    vertex 4.93980502752931 7.9869066802655775 1.9971016527362635
    vertex 10.703338638696138 1.4360664258385367 8.3758277871424
    vertex 11.170838360862646 1.7558733469322418 8.228134986069596
  endloop
endfacet
facet normal -0.0 0.7071067811865425 0.7071067811865526
  outer loop
    vertex 10.022489148446258 1.4000000000000001 8.411894212980936
    vertex 4.472305305362802 7.667099759171872 2.144794453809067
    vertex 3.994361361303859 7.428127787142403 2.3837664258385387
  endloop
endfacet
facet normal -0.0 0.7071067811865425 0.7071067811865526
  outer loop
    vertex 4.472305305362802 7.667099759171872 2.144794453809067
    vertex 10.022489148446258 1.4000000000000001 8.411894212980936
    vertex 10.703338638696138 1.4360664258385367 8.3758277871424
  endloop
endfacet
facet normal -0.0 0.7071067811865425 0.7071067811865526
  outer loop
    vertex 10.703338638696138 1.4360664258385367 8.3758277871424
    vertex 10.022489148446258 1.4000000000000001 8.411894212980936
    vertex 10.631205787019068 1.4000000000000004 8.411894212980933
  endloop
endfacet
facet normal 0.16975918468759701 0.7765343938240251 0.6067752091364281
  outer loop
    vertex 3.5268616391373513 7.280434986069598 2.7035733469322434
    vertex 10.022489148446258 1.4000000000000001 8.411894212980936
    vertex 3.994361361303859 7.428127787142403 2.3837664258385387
  endloop
endfacet
facet normal 0.16975918468759701 0.7765343938240251 0.6067752091364281
  outer loop
    vertex 10.022489148446258 1.4000000000000001 8.411894212980936
    vertex 3.5268616391373513 7.280434986069598 2.7035733469322434
    vertex 9.407296625206948 1.4000000000000001 8.584008333001837
  endloop
endfacet
facet normal 0.3320990784094117 0.8120237272259545 0.4799246488165491
  outer loop
    vertex 3.0902381200345146 7.230476240069037 3.090238120034518
    vertex 9.407296625206948 1.4000000000000001 8.584008333001837
    vertex 3.5268616391373513 7.280434986069598 2.7035733469322434
  endloop
endfacet
facet normal 0.3320990784094117 0.8120237272259545 0.4799246488165491
  outer loop
    vertex 9.407296625206948 1.4000000000000001 8.584008333001837
    vertex 3.0902381200345146 7.230476240069037 3.090238120034518
    vertex 8.920714360103553 1.4000000000000004 8.920714360103553
  endloop
endfacet
facet normal 0.47992464881654323 0.8120237272259553 0.3320990784094183
  outer loop
    vertex 2.7035733469322407 7.2804349860696 3.5268616391373557
    vertex 8.920714360103553 1.4000000000000004 8.920714360103553
    vertex 3.0902381200345146 7.230476240069037 3.090238120034518
  endloop
endfacet
facet normal 0.47992464881654323 0.8120237272259553 0.3320990784094183
  outer loop
    vertex 8.920714360103553 1.4000000000000004 8.920714360103553
    vertex 2.7035733469322407 7.2804349860696 3.5268616391373557
    vertex 8.58400833300184 1.4000000000000004 9.407296625206952
  endloop
endfacet
facet normal 0.6067752091364241 0.7765343938240282 0.16975918468759768
  outer loop
    vertex 2.3837664258385365 7.428127787142403 3.9943613613038624
    vertex 8.58400833300184 1.4000000000000004 9.407296625206952
    vertex 2.7035733469322407 7.2804349860696 3.5268616391373557
  endloop
endfacet
facet normal 0.6067752091364241 0.7765343938240282 0.16975918468759768
  outer loop
    vertex 8.58400833300184 1.4000000000000004 9.407296625206952
    vertex 2.3837664258385365 7.428127787142403 3.9943613613038624
    vertex 8.411894212980938 1.4000000000000004 10.022489148446256
  endloop
endfacet
facet normal 0.7071067811865577 0.7071067811865375 -1.0118451489168645e-14
  outer loop
    vertex 2.3837664258385365 7.428127787142403 3.9943613613038624
    vertex 8.41189421298093 1.4000000000000024 10.631205787019072
    vertex 8.411894212980938 1.4000000000000004 10.022489148446256
  endloop
endfacet
facet normal 0.7071067811865577 0.7071067811865375 -1.0118451489168645e-14
  outer loop
    vertex 8.41189421298093 1.4000000000000024 10.631205787019072
    vertex 2.3837664258385365 7.428127787142403 3.9943613613038624
    vertex 8.375827787142402 1.4360664258385367 10.703338638696135
  endloop
endfacet
facet normal 0.7071067811865577 0.7071067811865375 -1.0118451489168645e-14
  outer loop
    vertex 8.375827787142402 1.4360664258385367 10.703338638696135
    vertex 2.3837664258385365 7.428127787142403 3.9943613613038624
    vertex 2.144794453809065 7.667099759171875 4.472305305362806
  endloop
endfacet
facet normal 0.7765343938240259 0.6067752091364248 -0.1697591846876068
  outer loop
    vertex 2.144794453809065 7.667099759171875 4.472305305362806
    vertex 8.228134986069598 1.7558733469322418 11.170838360862643
    vertex 8.375827787142402 1.4360664258385367 10.703338638696135
  endloop
endfacet
facet normal 0.7765343938240259 0.6067752091364248 -0.1697591846876068
  outer loop
    vertex 8.228134986069598 1.7558733469322418 11.170838360862643
    vertex 2.144794453809065 7.667099759171875 4.472305305362806
    vertex 1.997101652736263 7.986906680265579 4.939805027529314
  endloop
endfacet
facet normal 0.812023727225956 0.4799246488165519 -0.33209907840940417
  outer loop
    vertex 1.997101652736263 7.986906680265579 4.939805027529314
    vertex 8.178176240069035 2.1425381200345175 11.607461879965483
    vertex 8.228134986069598 1.7558733469322418 11.170838360862643
  endloop
endfacet
facet normal 0.812023727225956 0.4799246488165519 -0.33209907840940417
  outer loop
    vertex 8.178176240069035 2.1425381200345175 11.607461879965483
    vertex 1.997101652736263 7.986906680265579 4.939805027529314
    vertex 1.9471429067357002 8.373571453367854 5.376428546632151
  endloop
endfacet
facet normal 0.5773502691896261 -0.5773502691896256 0.5773502691896256
  outer loop
    vertex 12.35 1.4 6.6931
    vertex 10.703338638696138 1.4360664258385367 8.3758277871424
    vertex 10.631205787019068 1.4000000000000004 8.411894212980933
  endloop
endfacet
facet normal 0.5773502691896261 -0.5773502691896256 0.5773502691896256
  outer loop
    vertex 10.703338638696138 1.4360664258385367 8.3758277871424
    vertex 12.35 1.4 6.6931
    vertex 11.170838360862646 1.7558733469322418 8.228134986069596
  endloop
endfacet
facet normal 0.5773502691896261 -0.5773502691896256 0.5773502691896256
  outer loop
    vertex 11.170838360862646 1.7558733469322418 8.228134986069596
    vertex 12.35 1.4 6.6931
    vertex 11.60746187996548 2.142538120034515 8.178176240069034
  endloop
endfacet
facet normal 0.5773502691896261 -0.5773502691896256 0.5773502691896256
  outer loop
    vertex 11.60746187996548 2.142538120034515 8.178176240069034
    vertex 12.35 1.4 6.6931
    vertex 11.994126653067758 2.5791616391373497 8.228134986069595
  endloop
endfacet
facet normal 0.5773502691896261 -0.5773502691896256 0.5773502691896256
  outer loop
    vertex 11.994126653067758 2.5791616391373497 8.228134986069595
    vertex 12.35 1.4 6.6931
    vertex 12.31393357416146 3.046661361303856 8.375827787142397
  endloop
endfacet
facet normal 0.5773502691896261 -0.5773502691896256 0.5773502691896256
  outer loop
    vertex 12.31393357416146 3.046661361303856 8.375827787142397
    vertex 12.35 1.4 6.6931
    vertex 12.35 3.118794212980939 8.411894212980938
  endloop
endfacet
facet normal 0.577350269189626 -0.5773502691896253 0.5773502691896261
  outer loop
    vertex 10.703338638696142 5.374172212857601 12.31393357416146
    vertex 12.35 7.056900000000001 12.35
    vertex 10.631205787019054 5.338105787019053 12.35
  endloop
endfacet
facet normal 0.577350269189626 -0.5773502691896253 0.5773502691896261
  outer loop
    vertex 12.35 7.056900000000001 12.35
    vertex 10.703338638696142 5.374172212857601 12.31393357416146
    vertex 11.170838360862653 5.5218650139304035 11.994126653067752
  endloop
endfacet
facet normal 0.577350269189626 -0.5773502691896253 0.5773502691896261
  outer loop
    vertex 12.35 7.056900000000001 12.35
    vertex 11.170838360862653 5.5218650139304035 11.994126653067752
    vertex 11.607461879965486 5.571823759930961 11.607461879965475
  endloop
endfacet
facet normal 0.577350269189626 -0.5773502691896253 0.5773502691896261
  outer loop
    vertex 12.35 7.056900000000001 12.35
    vertex 11.607461879965486 5.571823759930961 11.607461879965475
    vertex 11.994126653067761 5.521865013930397 11.170838360862637
  endloop
endfacet
facet normal 0.577350269189626 -0.5773502691896253 0.5773502691896261
  outer loop
    vertex 12.35 7.056900000000001 12.35
    vertex 11.994126653067761 5.521865013930397 11.170838360862637
    vertex 12.313933574161466 5.374172212857598 10.703338638696135
  endloop
endfacet
facet normal 0.577350269189626 -0.5773502691896253 0.5773502691896261
  outer loop
    vertex 12.35 7.056900000000001 12.35
    vertex 12.313933574161466 5.374172212857598 10.703338638696135
    vertex 12.35 5.338105787019064 10.631205787019066
  endloop
endfacet
facet normal 1.0 -0.0 -0.0
  outer loop
    vertex 12.35 11.29954068711929 12.35
    vertex 12.35 1.4 6.6931
    vertex 12.35 1.4 2.4506672497880895
  endloop
endfacet
facet normal 1.0 -0.0 -0.0
  outer loop
    vertex 12.35 1.4 6.6931
    vertex 12.35 11.29954068711929 12.35
    vertex 12.35 4.342703374793041 8.584008333001838
  endloop
endfacet
facet normal 1.0 -0.0 -0.0
  outer loop
    vertex 12.35 1.4 6.6931
    vertex 12.35 4.342703374793041 8.584008333001838
    vertex 12.35 3.7275108515537303 8.411894212980936
  endloop
endfacet
facet normal 1.0 -0.0 -0.0
  outer loop
    vertex 12.35 1.4 6.6931
    vertex 12.35 3.7275108515537303 8.411894212980936
    vertex 12.35 3.118794212980939 8.411894212980938
  endloop
endfacet
facet normal 1.0 -0.0 -0.0
  outer loop
    vertex 12.35 4.342703374793041 8.584008333001838
    vertex 12.35 11.29954068711929 12.35
    vertex 12.35 4.829285639896445 8.920714360103547
  endloop
endfacet
facet normal 1.0 -0.0 -0.0
  outer loop
    vertex 12.35 4.829285639896445 8.920714360103547
    vertex 12.35 11.29954068711929 12.35
    vertex 12.35 5.165991666998156 9.407296625206943
  endloop
endfacet
facet normal 1.0 -0.0 -0.0
  outer loop
    vertex 12.35 5.165991666998156 9.407296625206943
    vertex 12.35 11.29954068711929 12.35
    vertex 12.35 5.338105787019059 10.022489148446253
  endloop
endfacet
facet normal 1.0 -0.0 -0.0
  outer loop
    vertex 12.35 5.338105787019059 10.022489148446253
    vertex 12.35 11.29954068711929 12.35
    vertex 12.35 5.338105787019064 10.631205787019066
  endloop
endfacet
facet normal 1.0 -0.0 -0.0
  outer loop
    vertex 12.35 5.338105787019064 10.631205787019066
    vertex 12.35 11.29954068711929 12.35
    vertex 12.35 7.056900000000001 12.35
  endloop
endfacet
facet normal 1.790904323449334e-17 -1.0 1.0547941376880253e-16
  outer loop
    vertex 12.35 1.4 6.6931
    vertex 2.4504593128807297 1.4000000000000006 12.35
    vertex 12.35 1.4 2.4506672497880895
  endloop
endfacet
facet normal 1.790904323449334e-17 -1.0 1.0547941376880253e-16
  outer loop
    vertex 2.4504593128807297 1.4000000000000006 12.35
    vertex 12.35 1.4 6.6931
    vertex 9.407296625206948 1.4000000000000001 8.584008333001837
  endloop
endfacet
facet normal 1.790904323449334e-17 -1.0 1.0547941376880253e-16
  outer loop
    vertex 9.407296625206948 1.4000000000000001 8.584008333001837
    vertex 12.35 1.4 6.6931
    vertex 10.022489148446258 1.4000000000000001 8.411894212980936
  endloop
endfacet
facet normal 1.790904323449334e-17 -1.0 1.0547941376880253e-16
  outer loop
    vertex 10.022489148446258 1.4000000000000001 8.411894212980936
    vertex 12.35 1.4 6.6931
    vertex 10.631205787019068 1.4000000000000004 8.411894212980933
  endloop
endfacet
facet normal 1.790904323449334e-17 -1.0 1.0547941376880253e-16
  outer loop
    vertex 2.4504593128807297 1.4000000000000006 12.35
    vertex 9.407296625206948 1.4000000000000001 8.584008333001837
    vertex 8.920714360103553 1.4000000000000004 8.920714360103553
  endloop
endfacet
facet normal 1.790904323449334e-17 -1.0 1.0547941376880253e-16
  outer loop
    vertex 2.4504593128807297 1.4000000000000006 12.35
    vertex 8.920714360103553 1.4000000000000004 8.920714360103553
    vertex 8.58400833300184 1.4000000000000004 9.407296625206952
  endloop
endfacet
facet normal 1.790904323449334e-17 -1.0 1.0547941376880253e-16
  outer loop
    vertex 2.4504593128807297 1.4000000000000006 12.35
    vertex 8.58400833300184 1.4000000000000004 9.407296625206952
    vertex 8.411894212980938 1.4000000000000004 10.022489148446256
  endloop
endfacet
facet normal 1.790904323449334e-17 -1.0 1.0547941376880253e-16
  outer loop
    vertex 2.4504593128807297 1.4000000000000006 12.35
    vertex 8.411894212980938 1.4000000000000004 10.022489148446256
    vertex 8.41189421298093 1.4000000000000024 10.631205787019072
  endloop
endfacet
facet normal 1.790904323449334e-17 -1.0 1.0547941376880253e-16
  outer loop
    vertex 2.4504593128807297 1.4000000000000006 12.35
    vertex 8.41189421298093 1.4000000000000024 10.631205787019072
    vertex 6.6931 1.4 12.35
  endloop
endfacet
facet normal -5.533292976250164e-17 7.797565133941056e-17 1.0
  outer loop
    vertex 8.41189421298094 3.1187942129809403 12.350000000000001
    vertex 8.41189421298094 3.7275108515537334 12.35
    vertex 6.6931 1.4 12.35
  endloop
endfacet
facet normal -5.533292976250164e-17 7.797565133941056e-17 1.0
  outer loop
    vertex 6.6931 1.4 12.35
    vertex 12.35 11.29954068711929 12.35
    vertex 2.4504593128807297 1.4000000000000006 12.35
  endloop
endfacet
facet normal -5.533292976250164e-17 7.797565133941056e-17 1.0
  outer loop
    vertex 12.35 11.29954068711929 12.35
    vertex 6.6931 1.4 12.35
    vertex 8.584008333001842 4.342703374793045 12.35
  endloop
endfacet
facet normal -5.533292976250164e-17 7.797565133941056e-17 1.0
  outer loop
    vertex 8.584008333001842 4.342703374793045 12.35
    vertex 6.6931 1.4 12.35
    vertex 8.41189421298094 3.7275108515537334 12.35
  endloop
endfacet
facet normal -5.533292976250164e-17 7.797565133941056e-17 1.0
  outer loop
    vertex 12.35 11.29954068711929 12.35
    vertex 8.584008333001842 4.342703374793045 12.35
    vertex 8.92071436010355 4.8292856398964465 12.35
  endloop
endfacet
facet normal -5.533292976250164e-17 7.797565133941056e-17 1.0
  outer loop
    vertex 12.35 11.29954068711929 12.35
    vertex 8.92071436010355 4.8292856398964465 12.35
    vertex 9.407296625206952 5.165991666998157 12.35
  endloop
endfacet
facet normal -5.533292976250164e-17 7.797565133941056e-17 1.0
  outer loop
    vertex 12.35 11.29954068711929 12.35
    vertex 9.407296625206952 5.165991666998157 12.35
    vertex 10.022489148446269 5.3381057870190585 12.35
  endloop
endfacet
facet normal -5.533292976250164e-17 7.797565133941056e-17 1.0
  outer loop
    vertex 12.35 11.29954068711929 12.35
    vertex 10.022489148446269 5.3381057870190585 12.35
    vertex 10.631205787019054 5.338105787019053 12.35
  endloop
endfacet
facet normal -5.533292976250164e-17 7.797565133941056e-17 1.0
  outer loop
    vertex 12.35 11.29954068711929 12.35
    vertex 10.631205787019054 5.338105787019053 12.35
    vertex 12.35 7.056900000000001 12.35
  endloop
endfacet
endsolid 14-8 assembly  fin2.81 with hole
